{
.appVersion = "895";
classes = (
{
automatic = 1;
code = "A Aacute Abreve Abreveacute Abrevedotbelow Abrevegrave Abrevehookabove Abrevetilde Acircumflex Acircumflexacute Acircumflexdotbelow Acircumflexgrave Acircumflexhookabove Acircumflextilde Adblgrave Adieresis Adotbelow Agrave Ahookabove Ainvertedbreve Amacron Aogonek Aring Aringacute Atilde AE AEacute AEmacron B C Cacute Ccaron Ccedilla Ccircumflex Cdotaccent D DZ DZcaron Eth Dcaron Dcroat Dz Dzcaron E Eacute Ebreve Ecaron Ecircumflex Ecircumflexacute Ecircumflexdotbelow Ecircumflexgrave Ecircumflexhookabove Ecircumflextilde Edblgrave Edieresis Edotaccent Edotbelow Egrave Ehookabove Einvertedbreve Emacron Eogonek Etilde F G Gbreve Gcaron Gcircumflex Gcommaaccent Gdotaccent H Hbar Hcircumflex I IJ Iacute Ibreve Icircumflex Idblgrave Idieresis Idotaccent Idotbelow Igrave Ihookabove Iinvertedbreve Imacron Iogonek Itilde J Jcircumflex K Kcommaaccent L LJ Lacute Lcaron Lcommaaccent Ldot Lj Lslash M N NJ Nacute Ncaron Ncommaaccent Ndotbelow Eng Nj Ntilde O Oacute Obreve Ocircumflex Ocircumflexacute Ocircumflexdotbelow Ocircumflexgrave Ocircumflexhookabove Ocircumflextilde Odblgrave Odieresis Odieresismacron Odotaccentmacron Odotbelow Ograve Ohookabove Ohorn Ohornacute Ohorndotbelow Ohorngrave Ohornhookabove Ohorntilde Ohungarumlaut Oinvertedbreve Omacron Oogonek Oslash Oslashacute Otilde Otildemacron OE P Thorn Q R Racute Rcaron Rcommaaccent Rdblgrave Rinvertedbreve S Sacute Scaron Scedilla Scircumflex Scommaaccent Sdotbelow Germandbls Schwa T Tbar Tcaron Tcedilla Tcommaaccent Tcommaaccent U Uacute Ubreve Ucaron Ucircumflex Udblgrave Udieresis Udotbelow Ugrave Uhorn Uhornacute Uhorndotbelow Uhorngrave Uhornhookabove Uhorntilde Uhungarumlaut Uinvertedbreve Umacron Uogonek Uring Utilde V W Wacute Wcircumflex Wdieresis Wgrave X Y Yacute Ycircumflex Ydieresis Ydotbelow Ygrave Yhookabove Ymacron Ytilde Z Zacute Zcaron Zdotaccent";
name = Uppercase;
}
);

glyphs = (
{
color = 4;
glyphname = A;
lastChange = "2016-07-29 15:34:29 +0000";
layers = (
{
anchors = (
{
name = bottom;
position = "{276, 0}";
},
{
name = ogonek;
position = "{567, 5}";
},
{
name = top;
position = "{276, 750}";
}
);
layerId = "849A9C4C-BF7C-40C5-8614-1FD725A2A379";
paths = (
{
closed = 1;
nodes = (
"143 0 LINE",
"175 161 LINE",
"354 161 LINE",
"381 0 LINE",
"541 6 LINE",
"379 750 LINE",
"170 741 LINE",
"12 0 LINE"
);
},
{
closed = 1;
nodes = (
"258 640 LINE",
"327 281 LINE",
"202 281 LINE"
);
}
);
width = 552;
}
);
unicode = 0041;
},
{
color = 4;
glyphname = AE;
lastChange = "2016-07-29 15:34:05 +0000";
layers = (
{
layerId = "849A9C4C-BF7C-40C5-8614-1FD725A2A379";
paths = (
{
closed = 1;
nodes = (
"156 0 LINE",
"220 161 LINE",
"383 161 LINE",
"375 0 LINE",
"735 0 LINE",
"747 117 LINE",
"539 117 LINE",
"539 328 LINE",
"662 328 LINE",
"663 454 LINE",
"539 454 LINE",
"539 633 LINE",
"728 633 LINE",
"739 750 LINE",
"419 750 LINE",
"319 741 LINE",
"-3 0 LINE"
);
},
{
closed = 1;
nodes = (
"395 640 LINE",
"384 281 LINE",
"268 281 LINE"
);
}
);
width = 771;
}
);
unicode = 00C6;
},
{
color = 4;
glyphname = B;
lastChange = "2016-07-29 15:34:05 +0000";
layers = (
{
anchors = (
{
name = bottom;
position = "{276, 0}";
},
{
name = top;
position = "{276, 750}";
}
);
layerId = "849A9C4C-BF7C-40C5-8614-1FD725A2A379";
paths = (
{
closed = 1;
nodes = (
"190 0 LINE SMOOTH",
"348 0 OFFCURVE",
"521 35 OFFCURVE",
"521 210 CURVE SMOOTH",
"521 329 OFFCURVE",
"470 372 OFFCURVE",
"417 399 CURVE",
"467 424 OFFCURVE",
"498 484 OFFCURVE",
"498 557 CURVE SMOOTH",
"498 664 OFFCURVE",
"431 750 OFFCURVE",
"238 750 CURVE SMOOTH",
"70 750 LINE",
"70 0 LINE"
);
},
{
closed = 1;
nodes = (
"217 338 LINE",
"249 338 LINE SMOOTH",
"318 338 OFFCURVE",
"380 326 OFFCURVE",
"380 230 CURVE SMOOTH",
"380 186 OFFCURVE",
"351 117 OFFCURVE",
"244 117 CURVE SMOOTH",
"217 117 LINE"
);
},
{
closed = 1;
nodes = (
"212 633 LINE",
"241 633 LINE SMOOTH",
"306 633 OFFCURVE",
"362 617 OFFCURVE",
"362 542 CURVE SMOOTH",
"362 457 OFFCURVE",
"315 445 OFFCURVE",
"247 445 CURVE SMOOTH",
"212 445 LINE"
);
}
);
width = 551;
}
);
unicode = 0042;
},
{
color = 4;
glyphname = C;
lastChange = "2016-07-29 15:34:05 +0000";
layers = (
{
anchors = (
{
name = bottom;
position = "{261, 0}";
},
{
name = top;
position = "{261, 750}";
}
);
layerId = "849A9C4C-BF7C-40C5-8614-1FD725A2A379";
paths = (
{
closed = 1;
nodes = (
"418 -14 OFFCURVE",
"487 116 OFFCURVE",
"487 255 CURVE",
"362 267 LINE",
"357 202 OFFCURVE",
"344 104 OFFCURVE",
"283 104 CURVE SMOOTH",
"199 104 OFFCURVE",
"186 249 OFFCURVE",
"186 391 CURVE SMOOTH",
"186 501 OFFCURVE",
"199 646 OFFCURVE",
"269 646 CURVE SMOOTH",
"341 646 OFFCURVE",
"344 501 OFFCURVE",
"344 486 CURVE",
"486 493 LINE",
"486 625 OFFCURVE",
"409 764 OFFCURVE",
"277 764 CURVE SMOOTH",
"102 764 OFFCURVE",
"40 559 OFFCURVE",
"40 391 CURVE SMOOTH",
"40 201 OFFCURVE",
"85 -14 OFFCURVE",
"274 -14 CURVE SMOOTH"
);
}
);
width = 522;
}
);
unicode = 0043;
},
{
color = 4;
glyphname = D;
lastChange = "2016-07-29 15:34:05 +0000";
layers = (
{
anchors = (
{
name = bottom;
position = "{277, 0}";
},
{
name = center;
position = "{277, 375}";
},
{
name = top;
position = "{277, 750}";
}
);
layerId = "849A9C4C-BF7C-40C5-8614-1FD725A2A379";
paths = (
{
closed = 1;
nodes = (
"250 0 LINE SMOOTH",
"446 0 OFFCURVE",
"518 182 OFFCURVE",
"518 372 CURVE SMOOTH",
"518 626 OFFCURVE",
"421 750 OFFCURVE",
"224 750 CURVE SMOOTH",
"70 750 LINE",
"70 0 LINE"
);
},
{
closed = 1;
nodes = (
"216 633 LINE",
"233 633 LINE SMOOTH",
"381 633 OFFCURVE",
"372 440 OFFCURVE",
"372 344 CURVE SMOOTH",
"372 240 OFFCURVE",
"349 117 OFFCURVE",
"237 117 CURVE SMOOTH",
"216 117 LINE"
);
}
);
width = 554;
}
);
unicode = 0044;
},
{
color = 4;
glyphname = Eth;
lastChange = "2016-07-29 15:34:05 +0000";
layers = (
{
layerId = "849A9C4C-BF7C-40C5-8614-1FD725A2A379";
paths = (
{
closed = 1;
nodes = (
"251 0 LINE SMOOTH",
"448 0 OFFCURVE",
"520 182 OFFCURVE",
"520 372 CURVE SMOOTH",
"520 626 OFFCURVE",
"423 750 OFFCURVE",
"226 750 CURVE SMOOTH",
"72 750 LINE",
"72 0 LINE"
);
},
{
closed = 1;
nodes = (
"284 328 LINE",
"284 422 LINE",
"2 422 LINE",
"2 328 LINE"
);
},
{
closed = 1;
nodes = (
"218 633 LINE",
"235 633 LINE SMOOTH",
"383 633 OFFCURVE",
"374 440 OFFCURVE",
"374 344 CURVE SMOOTH",
"374 240 OFFCURVE",
"351 117 OFFCURVE",
"239 117 CURVE SMOOTH",
"218 117 LINE"
);
}
);
width = 556;
}
);
unicode = 00D0;
},
{
color = 4;
glyphname = Dcroat;
lastChange = "2016-07-29 15:34:05 +0000";
layers = (
{
layerId = "849A9C4C-BF7C-40C5-8614-1FD725A2A379";
paths = (
{
closed = 1;
nodes = (
"250 0 LINE SMOOTH",
"447 0 OFFCURVE",
"519 182 OFFCURVE",
"519 372 CURVE SMOOTH",
"519 626 OFFCURVE",
"421 750 OFFCURVE",
"224 750 CURVE SMOOTH",
"71 750 LINE",
"71 443 LINE",
"26 443 LINE",
"17 350 LINE",
"71 350 LINE",
"71 0 LINE"
);
},
{
closed = 1;
nodes = (
"217 350 LINE",
"298 350 LINE",
"308 443 LINE",
"217 443 LINE",
"217 633 LINE",
"234 633 LINE SMOOTH",
"382 633 OFFCURVE",
"372 440 OFFCURVE",
"372 344 CURVE SMOOTH",
"372 240 OFFCURVE",
"350 117 OFFCURVE",
"238 117 CURVE SMOOTH",
"217 117 LINE"
);
}
);
width = 554;
}
);
unicode = 0110;
},
{
color = 4;
glyphname = E;
lastChange = "2016-07-29 15:34:05 +0000";
layers = (
{
anchors = (
{
name = bottom;
position = "{242, 0}";
},
{
name = ogonek;
position = "{403, 0}";
},
{
name = top;
position = "{242, 750}";
},
{
name = topleft;
position = "{10, 750}";
}
);
layerId = "849A9C4C-BF7C-40C5-8614-1FD725A2A379";
paths = (
{
closed = 1;
nodes = (
"447 0 LINE",
"459 117 LINE",
"217 117 LINE",
"217 328 LINE",
"374 328 LINE",
"375 454 LINE",
"217 454 LINE",
"217 633 LINE",
"439 633 LINE",
"451 750 LINE",
"70 750 LINE",
"70 0 LINE"
);
}
);
width = 483;
}
);
unicode = 0045;
},
{
color = 4;
glyphname = F;
lastChange = "2016-07-29 15:34:05 +0000";
layers = (
{
anchors = (
{
name = bottom;
position = "{230, 0}";
},
{
name = top;
position = "{230, 750}";
}
);
layerId = "849A9C4C-BF7C-40C5-8614-1FD725A2A379";
paths = (
{
closed = 1;
nodes = (
"217 6 LINE",
"217 312 LINE",
"374 312 LINE",
"374 436 LINE",
"217 436 LINE",
"217 632 LINE",
"439 632 LINE",
"451 750 LINE",
"70 750 LINE",
"70 -6 LINE"
);
}
);
width = 460;
}
);
unicode = 0046;
},
{
color = 4;
glyphname = G;
lastChange = "2016-07-29 15:34:05 +0000";
layers = (
{
anchors = (
{
name = bottom;
position = "{276, 0}";
},
{
name = top;
position = "{276, 750}";
}
);
layerId = "849A9C4C-BF7C-40C5-8614-1FD725A2A379";
paths = (
{
closed = 1;
nodes = (
"379 -14 OFFCURVE",
"402 91 OFFCURVE",
"413 139 CURVE",
"437 40 OFFCURVE",
"446 6 OFFCURVE",
"447 0 CURVE",
"503 6 LINE",
"503 375 LINE",
"300 375 LINE",
"288 263 LINE",
"362 263 LINE",
"362 179 OFFCURVE",
"334 104 OFFCURVE",
"282 104 CURVE SMOOTH",
"186 104 OFFCURVE",
"186 263 OFFCURVE",
"186 370 CURVE SMOOTH",
"186 484 OFFCURVE",
"203 646 OFFCURVE",
"281 646 CURVE SMOOTH",
"351 646 OFFCURVE",
"353 552 OFFCURVE",
"361 496 CURVE",
"500 505 LINE",
"500 640 OFFCURVE",
"435 764 OFFCURVE",
"283 764 CURVE SMOOTH",
"103 764 OFFCURVE",
"40 551 OFFCURVE",
"40 378 CURVE SMOOTH",
"40 173 OFFCURVE",
"96 -14 OFFCURVE",
"254 -14 CURVE SMOOTH"
);
}
);
width = 553;
}
);
unicode = 0047;
},
{
color = 4;
glyphname = H;
lastChange = "2016-07-29 15:34:05 +0000";
layers = (
{
anchors = (
{
name = bottom;
position = "{287, 0}";
},
{
name = center;
position = "{287, 375}";
},
{
name = top;
position = "{287, 750}";
},
{
name = topleft;
position = "{10, 750}";
}
);
guideLines = (
{
position = "{-253, 795}";
}
);
layerId = "849A9C4C-BF7C-40C5-8614-1FD725A2A379";
paths = (
{
closed = 1;
nodes = (
"217 6 LINE",
"217 312 LINE",
"357 312 LINE",
"357 -6 LINE",
"504 6 LINE",
"504 750 LINE",
"357 738 LINE",
"357 446 LINE",
"217 446 LINE",
"217 750 LINE",
"70 738 LINE",
"70 -6 LINE"
);
}
);
width = 574;
}
);
unicode = 0048;
},
{
color = 4;
glyphname = Hbar;
lastChange = "2016-07-29 15:34:05 +0000";
layers = (
{
layerId = "849A9C4C-BF7C-40C5-8614-1FD725A2A379";
paths = (
{
closed = 1;
nodes = (
"217 6 LINE",
"217 312 LINE",
"358 312 LINE",
"358 -6 LINE",
"504 6 LINE",
"504 567 LINE",
"556 567 LINE",
"556 656 LINE",
"504 656 LINE",
"504 750 LINE",
"358 738 LINE",
"358 656 LINE",
"217 656 LINE",
"217 750 LINE",
"71 738 LINE",
"71 656 LINE",
"13 656 LINE",
"13 567 LINE",
"71 567 LINE",
"71 -6 LINE"
);
},
{
closed = 1;
nodes = (
"217 567 LINE",
"358 567 LINE",
"358 446 LINE",
"217 446 LINE"
);
}
);
width = 576;
}
);
unicode = 0126;
},
{
color = 4;
glyphname = I;
lastChange = "2016-07-29 15:34:05 +0000";
layers = (
{
anchors = (
{
name = bottom;
position = "{144, 0}";
},
{
name = ogonek;
position = "{292, 5}";
},
{
name = top;
position = "{144, 750}";
},
{
name = topleft;
position = "{10, 750}";
}
);
layerId = "849A9C4C-BF7C-40C5-8614-1FD725A2A379";
paths = (
{
closed = 1;
nodes = (
"217 6 LINE",
"217 750 LINE",
"70 738 LINE",
"70 -6 LINE"
);
}
);
width = 287;
}
);
unicode = 0049;
},
{
color = 4;
glyphname = J;
lastChange = "2016-07-29 15:34:05 +0000";
layers = (
{
anchors = (
{
name = bottom;
position = "{167, 0}";
},
{
name = top;
position = "{167, 750}";
}
);
layerId = "849A9C4C-BF7C-40C5-8614-1FD725A2A379";
paths = (
{
closed = 1;
nodes = (
"232 -14 OFFCURVE",
"267 68 OFFCURVE",
"267 188 CURVE SMOOTH",
"267 750 LINE",
"121 738 LINE",
"121 200 LINE SMOOTH",
"121 147 OFFCURVE",
"120 93 OFFCURVE",
"66 93 CURVE SMOOTH",
"55 93 OFFCURVE",
"42 95 OFFCURVE",
"27 100 CURVE",
"27 1 LINE",
"63 -9 OFFCURVE",
"94 -14 OFFCURVE",
"121 -14 CURVE SMOOTH"
);
}
);
width = 333;
}
);
unicode = 004A;
},
{
color = 4;
glyphname = K;
lastChange = "2016-07-29 15:34:05 +0000";
layers = (
{
anchors = (
{
name = bottom;
position = "{281, 0}";
},
{
name = top;
position = "{281, 750}";
}
);
layerId = "849A9C4C-BF7C-40C5-8614-1FD725A2A379";
paths = (
{
closed = 1;
nodes = (
"553 21 LINE",
"390 440 LINE",
"551 750 LINE",
"395 750 LINE",
"217 422 LINE",
"217 750 LINE",
"70 738 LINE",
"70 0 LINE",
"217 0 LINE",
"217 237 LINE",
"274 336 LINE",
"404 -13 LINE"
);
}
);
width = 563;
}
);
unicode = 004B;
},
{
color = 4;
glyphname = L;
lastChange = "2016-07-29 15:34:05 +0000";
layers = (
{
anchors = (
{
name = bottom;
position = "{234, 0}";
},
{
name = center;
position = "{365, 375}";
},
{
name = top;
position = "{234, 750}";
},
{
name = topright;
position = "{459, 750}";
}
);
layerId = "849A9C4C-BF7C-40C5-8614-1FD725A2A379";
paths = (
{
closed = 1;
nodes = (
"447 0 LINE",
"462 117 LINE",
"216 117 LINE",
"216 750 LINE",
"70 738 LINE",
"70 0 LINE"
);
}
);
width = 469;
}
);
unicode = 004C;
},
{
color = 4;
glyphname = Lslash;
lastChange = "2016-07-29 15:34:05 +0000";
layers = (
{
layerId = "849A9C4C-BF7C-40C5-8614-1FD725A2A379";
paths = (
{
closed = 1;
nodes = (
"453 0 LINE",
"476 117 LINE",
"222 117 LINE",
"222 360 LINE",
"327 375 LINE",
"327 491 LINE",
"222 476 LINE",
"222 750 LINE",
"76 738 LINE",
"76 455 LINE",
"-1 444 LINE",
"-1 328 LINE",
"76 339 LINE",
"76 0 LINE"
);
}
);
width = 481;
}
);
unicode = 0141;
},
{
color = 4;
glyphname = M;
lastChange = "2016-07-29 15:34:05 +0000";
layers = (
{
anchors = (
{
name = bottom;
position = "{397, 0}";
},
{
name = top;
position = "{397, 750}";
}
);
layerId = "849A9C4C-BF7C-40C5-8614-1FD725A2A379";
paths = (
{
closed = 1;
nodes = (
"724 6 LINE",
"724 744 LINE",
"528 732 LINE",
"409 285 LINE",
"285 749 LINE",
"70 743 LINE",
"70 0 LINE",
"191 6 LINE",
"191 559 LINE",
"342 0 LINE",
"432 0 LINE",
"572 557 LINE",
"572 -6 LINE"
);
}
);
width = 794;
}
);
unicode = 004D;
},
{
color = 4;
glyphname = N;
lastChange = "2016-07-29 15:34:05 +0000";
layers = (
{
anchors = (
{
name = bottom;
position = "{306, 0}";
},
{
name = top;
position = "{306, 750}";
}
);
layerId = "849A9C4C-BF7C-40C5-8614-1FD725A2A379";
paths = (
{
closed = 1;
nodes = (
"541 6 LINE",
"541 750 LINE",
"417 738 LINE",
"417 304 LINE",
"223 750 LINE",
"70 744 LINE",
"70 0 LINE",
"201 6 LINE",
"201 463 LINE",
"420 -6 LINE"
);
}
);
width = 611;
}
);
unicode = 004E;
},
{
color = 4;
glyphname = Eng;
lastChange = "2016-07-29 15:34:05 +0000";
layers = (
{
layerId = "849A9C4C-BF7C-40C5-8614-1FD725A2A379";
paths = (
{
closed = 1;
nodes = (
"504 -155 OFFCURVE",
"539 -73 OFFCURVE",
"539 46 CURVE SMOOTH",
"539 750 LINE",
"415 738 LINE",
"415 353 LINE",
"222 750 LINE",
"69 744 LINE",
"69 0 LINE",
"200 6 LINE",
"200 487 LINE",
"415 70 LINE",
"415 59 LINE SMOOTH",
"415 6 OFFCURVE",
"415 -48 OFFCURVE",
"346 -48 CURVE SMOOTH",
"334 -48 OFFCURVE",
"322 -46 OFFCURVE",
"307 -41 CURVE",
"307 -140 LINE",
"343 -150 OFFCURVE",
"374 -155 OFFCURVE",
"400 -155 CURVE SMOOTH"
);
}
);
width = 608;
}
);
unicode = 014A;
},
{
color = 4;
glyphname = O;
lastChange = "2016-07-29 15:34:05 +0000";
layers = (
{
anchors = (
{
name = bottom;
position = "{275, 0}";
},
{
name = center;
position = "{275, 375}";
},
{
name = ogonek;
position = "{445, 5}";
},
{
name = top;
position = "{275, 750}";
},
{
name = topleft;
position = "{10, 750}";
},
{
name = topright;
position = "{540, 750}";
}
);
layerId = "849A9C4C-BF7C-40C5-8614-1FD725A2A379";
paths = (
{
closed = 1;
nodes = (
"463 -14 OFFCURVE",
"507 192 OFFCURVE",
"507 383 CURVE SMOOTH",
"507 623 OFFCURVE",
"438 764 OFFCURVE",
"274 764 CURVE SMOOTH",
"104 764 OFFCURVE",
"42 613 OFFCURVE",
"42 379 CURVE SMOOTH",
"42 180 OFFCURVE",
"87 -14 OFFCURVE",
"272 -14 CURVE SMOOTH"
);
},
{
closed = 1;
nodes = (
"197 104 OFFCURVE",
"188 223 OFFCURVE",
"188 385 CURVE SMOOTH",
"188 490 OFFCURVE",
"192 646 OFFCURVE",
"274 646 CURVE SMOOTH",
"356 646 OFFCURVE",
"361 490 OFFCURVE",
"361 384 CURVE SMOOTH",
"361 222 OFFCURVE",
"351 104 OFFCURVE",
"274 104 CURVE SMOOTH"
);
}
);
width = 549;
}
);
unicode = 004F;
},
{
color = 4;
glyphname = Oslash;
lastChange = "2016-07-29 15:34:05 +0000";
layers = (
{
layerId = "849A9C4C-BF7C-40C5-8614-1FD725A2A379";
paths = (
{
closed = 1;
nodes = (
"467 -16 OFFCURVE",
"508 190 OFFCURVE",
"508 400 CURVE SMOOTH",
"508 464 OFFCURVE",
"501 521 OFFCURVE",
"489 572 CURVE",
"552 648 LINE",
"505 693 LINE",
"464 643 LINE",
"427 721 OFFCURVE",
"365 766 OFFCURVE",
"274 766 CURVE SMOOTH",
"112 766 OFFCURVE",
"42 621 OFFCURVE",
"42 400 CURVE SMOOTH",
"42 315 OFFCURVE",
"49 233 OFFCURVE",
"69 163 CURVE",
"14 97 LINE",
"61 52 LINE",
"96 94 LINE",
"131 27 OFFCURVE",
"186 -16 OFFCURVE",
"274 -16 CURVE SMOOTH"
);
},
{
closed = 1;
nodes = (
"228 109 OFFCURVE",
"207 148 OFFCURVE",
"197 217 CURVE",
"361 417 LINE",
"361 400 LINE SMOOTH",
"361 221 OFFCURVE",
"353 109 OFFCURVE",
"274 109 CURVE SMOOTH"
);
},
{
closed = 1;
nodes = (
"188 337 OFFCURVE",
"188 367 OFFCURVE",
"188 400 CURVE SMOOTH",
"188 494 OFFCURVE",
"194 649 OFFCURVE",
"274 649 CURVE SMOOTH",
"327 649 OFFCURVE",
"348 583 OFFCURVE",
"356 512 CURVE",
"189 310 LINE"
);
}
);
width = 551;
}
);
unicode = 00D8;
},
{
color = 4;
glyphname = OE;
lastChange = "2016-07-29 15:34:05 +0000";
layers = (
{
layerId = "849A9C4C-BF7C-40C5-8614-1FD725A2A379";
paths = (
{
closed = 1;
nodes = (
"319 -13 OFFCURVE",
"351 9 OFFCURVE",
"375 47 CURVE",
"375 0 LINE",
"761 0 LINE",
"761 117 LINE",
"521 117 LINE",
"521 328 LINE",
"667 328 LINE",
"667 454 LINE",
"521 454 LINE",
"521 633 LINE",
"753 633 LINE",
"753 750 LINE",
"375 750 LINE",
"375 695 LINE",
"350 734 OFFCURVE",
"317 755 OFFCURVE",
"274 755 CURVE SMOOTH",
"112 755 OFFCURVE",
"42 609 OFFCURVE",
"42 396 CURVE SMOOTH",
"42 188 OFFCURVE",
"82 -13 OFFCURVE",
"274 -13 CURVE SMOOTH"
);
},
{
closed = 1;
nodes = (
"196 111 OFFCURVE",
"188 219 OFFCURVE",
"188 396 CURVE SMOOTH",
"188 485 OFFCURVE",
"194 638 OFFCURVE",
"274 638 CURVE SMOOTH",
"356 638 OFFCURVE",
"375 521 OFFCURVE",
"375 432 CURVE SMOOTH",
"375 333 LINE SMOOTH",
"375 194 OFFCURVE",
"354 111 OFFCURVE",
"274 111 CURVE SMOOTH"
);
}
);
width = 790;
}
);
unicode = 0152;
},
{
color = 4;
glyphname = P;
lastChange = "2016-07-29 15:34:05 +0000";
layers = (
{
anchors = (
{
name = bottom;
position = "{267, 0}";
},
{
name = top;
position = "{267, 750}";
}
);
layerId = "849A9C4C-BF7C-40C5-8614-1FD725A2A379";
paths = (
{
closed = 1;
nodes = (
"217 6 LINE",
"217 295 LINE",
"350 295 OFFCURVE",
"514 314 OFFCURVE",
"514 525 CURVE SMOOTH",
"514 758 OFFCURVE",
"316 750 OFFCURVE",
"164 750 CURVE SMOOTH",
"70 750 LINE",
"70 -6 LINE"
);
},
{
closed = 1;
nodes = (
"218 633 LINE",
"239 633 LINE SMOOTH",
"321 633 OFFCURVE",
"368 616 OFFCURVE",
"368 526 CURVE SMOOTH",
"368 434 OFFCURVE",
"311 414 OFFCURVE",
"243 414 CURVE SMOOTH",
"218 414 LINE"
);
}
);
width = 533;
}
);
unicode = 0050;
},
{
color = 4;
glyphname = Thorn;
lastChange = "2016-07-29 15:34:05 +0000";
layers = (
{
layerId = "849A9C4C-BF7C-40C5-8614-1FD725A2A379";
paths = (
{
closed = 1;
nodes = (
"215 -33 LINE",
"215 129 LINE",
"348 129 OFFCURVE",
"512 148 OFFCURVE",
"512 350 CURVE SMOOTH",
"512 551 OFFCURVE",
"356 568 OFFCURVE",
"216 570 CURVE",
"216 750 LINE",
"68 750 LINE",
"68 -45 LINE"
);
},
{
closed = 1;
nodes = (
"216 458 LINE",
"237 458 LINE SMOOTH",
"319 458 OFFCURVE",
"366 440 OFFCURVE",
"366 351 CURVE SMOOTH",
"366 259 OFFCURVE",
"309 238 OFFCURVE",
"241 238 CURVE SMOOTH",
"216 238 LINE"
);
}
);
width = 528;
}
);
unicode = 00DE;
},
{
color = 4;
glyphname = Q;
lastChange = "2016-07-29 15:34:05 +0000";
layers = (
{
anchors = (
{
name = bottom;
position = "{275, 0}";
},
{
name = top;
position = "{275, 750}";
}
);
components = (
{
name = O;
}
);
layerId = "849A9C4C-BF7C-40C5-8614-1FD725A2A379";
paths = (
{
closed = 1;
nodes = (
"474 -118 LINE",
"350 66 LINE",
"263 -7 LINE",
"321 -89 OFFCURVE",
"384 -177 OFFCURVE",
"384 -177 CURVE"
);
}
);
width = 549;
}
);
unicode = 0051;
},
{
color = 4;
glyphname = R;
lastChange = "2016-07-29 15:34:05 +0000";
layers = (
{
anchors = (
{
name = bottom;
position = "{283, 0}";
},
{
name = top;
position = "{283, 750}";
}
);
layerId = "849A9C4C-BF7C-40C5-8614-1FD725A2A379";
paths = (
{
closed = 1;
nodes = (
"551 26 LINE",
"483 188 LINE SMOOTH",
"450 268 OFFCURVE",
"416 350 OFFCURVE",
"416 351 CURVE",
"480 388 OFFCURVE",
"523 443 OFFCURVE",
"523 541 CURVE SMOOTH",
"523 688 OFFCURVE",
"413 750 OFFCURVE",
"248 750 CURVE",
"70 744 LINE",
"70 -6 LINE",
"216 6 LINE",
"216 329 LINE",
"273 329 LINE",
"407 -13 LINE"
);
},
{
closed = 1;
nodes = (
"216 633 LINE",
"285 633 LINE SMOOTH",
"337 633 OFFCURVE",
"377 610 OFFCURVE",
"377 540 CURVE SMOOTH",
"377 452 OFFCURVE",
"325 437 OFFCURVE",
"266 437 CURVE SMOOTH",
"216 437 LINE"
);
}
);
width = 565;
}
);
unicode = 0052;
},
{
color = 4;
glyphname = S;
lastChange = "2016-07-29 15:34:05 +0000";
layers = (
{
anchors = (
{
name = bottom;
position = "{267, 0}";
},
{
name = top;
position = "{267, 750}";
}
);
layerId = "849A9C4C-BF7C-40C5-8614-1FD725A2A379";
paths = (
{
closed = 1;
nodes = (
"403 -14 OFFCURVE",
"507 81 OFFCURVE",
"507 226 CURVE",
"504 280 OFFCURVE",
"481 361 OFFCURVE",
"366 426 CURVE",
"245 497 LINE SMOOTH",
"222 510 OFFCURVE",
"199 537 OFFCURVE",
"199 571 CURVE SMOOTH",
"199 612 OFFCURVE",
"221 646 OFFCURVE",
"267 646 CURVE SMOOTH",
"325 646 OFFCURVE",
"337 606 OFFCURVE",
"361 557 CURVE",
"485 613 LINE",
"450 713 OFFCURVE",
"376 764 OFFCURVE",
"274 764 CURVE SMOOTH",
"142 764 OFFCURVE",
"42 674 OFFCURVE",
"42 541 CURVE SMOOTH",
"42 457 OFFCURVE",
"94 391 OFFCURVE",
"167 350 CURVE",
"298 272 LINE",
"326 254 OFFCURVE",
"348 223 OFFCURVE",
"348 184 CURVE SMOOTH",
"348 145 OFFCURVE",
"316 104 OFFCURVE",
"281 104 CURVE SMOOTH",
"211 104 OFFCURVE",
"176 183 OFFCURVE",
"147 230 CURVE",
"23 172 LINE",
"60 64 OFFCURVE",
"142 -14 OFFCURVE",
"268 -14 CURVE SMOOTH"
);
}
);
width = 533;
}
);
unicode = 0053;
},
{
glyphname = Germandbls;
lastChange = "2016-07-29 15:34:05 +0000";
layers = (
{
background = {
components = (
{
name = germandbls;
transform = "{1, 0, 0, 1, 20, 0}";
}
);
};
layerId = "849A9C4C-BF7C-40C5-8614-1FD725A2A379";
paths = (
{
closed = 1;
nodes = (
"202 0 LINE",
"202 542 LINE SMOOTH",
"202 632 OFFCURVE",
"246 661 OFFCURVE",
"294 661 CURVE SMOOTH",
"420 661 LINE",
"407 677 LINE",
"298 444 LINE",
"399 366 LINE",
"547 671 LINE",
"547 766 LINE",
"289 766 LINE SMOOTH",
"210 766 OFFCURVE",
"61 740 OFFCURVE",
"61 516 CURVE SMOOTH",
"61 -12 LINE"
);
},
{
closed = 1;
nodes = (
"432 7 OFFCURVE",
"589 55 OFFCURVE",
"589 229 CURVE SMOOTH",
"589 350 OFFCURVE",
"514 397 OFFCURVE",
"426 425 CURVE",
"298 444 LINE",
"311 362 LINE",
"398 356 OFFCURVE",
"447 284 OFFCURVE",
"447 227 CURVE SMOOTH",
"447 167 OFFCURVE",
"393 103 OFFCURVE",
"264 103 CURVE",
"264 1 LINE"
);
}
);
width = 610;
}
);
unicode = 1E9E;
},
{
color = 4;
glyphname = Schwa;
lastChange = "2016-07-29 15:34:05 +0000";
layers = (
{
layerId = "849A9C4C-BF7C-40C5-8614-1FD725A2A379";
paths = (
{
closed = 1;
nodes = (
"456 -16 OFFCURVE",
"500 190 OFFCURVE",
"500 383 CURVE SMOOTH",
"500 628 OFFCURVE",
"429 766 OFFCURVE",
"268 766 CURVE SMOOTH",
"143 766 OFFCURVE",
"74 684 OFFCURVE",
"43 557 CURVE",
"178 510 LINE",
"188 584 OFFCURVE",
"213 649 OFFCURVE",
"266 649 CURVE SMOOTH",
"347 649 OFFCURVE",
"353 494 OFFCURVE",
"353 398 CURVE",
"34 398 LINE",
"34 191 OFFCURVE",
"74 -16 OFFCURVE",
"265 -16 CURVE SMOOTH"
);
},
{
closed = 1;
nodes = (
"205 109 OFFCURVE",
"188 177 OFFCURVE",
"182 291 CURVE",
"351 291 LINE",
"346 176 OFFCURVE",
"327 109 OFFCURVE",
"266 109 CURVE SMOOTH"
);
}
);
width = 542;
}
);
unicode = 018F;
},
{
color = 4;
glyphname = T;
lastChange = "2016-07-29 15:34:05 +0000";
layers = (
{
anchors = (
{
name = bottom;
position = "{239, 0}";
},
{
name = center;
position = "{239, 375}";
},
{
name = top;
position = "{239, 750}";
}
);
layerId = "849A9C4C-BF7C-40C5-8614-1FD725A2A379";
paths = (
{
closed = 1;
nodes = (
"313 6 LINE",
"313 633 LINE",
"453 633 LINE",
"465 750 LINE",
"25 750 LINE",
"14 633 LINE",
"167 633 LINE",
"167 -6 LINE"
);
}
);
width = 477;
}
);
unicode = 0054;
},
{
color = 4;
glyphname = Tbar;
lastChange = "2016-07-29 15:34:05 +0000";
layers = (
{
layerId = "849A9C4C-BF7C-40C5-8614-1FD725A2A379";
paths = (
{
closed = 1;
nodes = (
"313 6 LINE",
"313 633 LINE",
"453 633 LINE",
"465 750 LINE",
"25 750 LINE",
"14 633 LINE",
"167 633 LINE",
"167 -6 LINE"
);
},
{
closed = 1;
nodes = (
"376 299 LINE",
"376 393 LINE",
"95 393 LINE",
"95 299 LINE"
);
}
);
width = 477;
}
);
unicode = 0166;
},
{
color = 4;
glyphname = U;
lastChange = "2016-07-29 15:34:05 +0000";
layers = (
{
anchors = (
{
name = bottom;
position = "{284, 0}";
},
{
name = ogonek;
position = "{453, 5}";
},
{
name = top;
position = "{284, 750}";
},
{
name = topright;
position = "{558, 750}";
}
);
layerId = "849A9C4C-BF7C-40C5-8614-1FD725A2A379";
paths = (
{
closed = 1;
nodes = (
"491 -14 OFFCURVE",
"503 178 OFFCURVE",
"503 264 CURVE SMOOTH",
"503 750 LINE",
"369 738 LINE",
"369 237 LINE SMOOTH",
"369 178 OFFCURVE",
"369 104 OFFCURVE",
"293 104 CURVE SMOOTH",
"213 104 OFFCURVE",
"211 176 OFFCURVE",
"211 235 CURVE SMOOTH",
"211 750 LINE",
"64 744 LINE",
"64 247 LINE SMOOTH",
"64 100 OFFCURVE",
"131 -14 OFFCURVE",
"288 -14 CURVE SMOOTH"
);
}
);
width = 568;
}
);
unicode = 0055;
},
{
color = 4;
glyphname = V;
lastChange = "2016-07-29 15:34:05 +0000";
layers = (
{
anchors = (
{
name = bottom;
position = "{267, 0}";
},
{
name = top;
position = "{267, 750}";
}
);
layerId = "849A9C4C-BF7C-40C5-8614-1FD725A2A379";
paths = (
{
closed = 1;
nodes = (
"346 0 LINE",
"526 750 LINE",
"385 744 LINE",
"281 232 LINE",
"182 750 LINE",
"8 744 LINE",
"185 0 LINE"
);
}
);
width = 533;
}
);
unicode = 0056;
},
{
color = 4;
glyphname = W;
lastChange = "2016-07-29 15:34:05 +0000";
layers = (
{
anchors = (
{
name = bottom;
position = "{387, 0}";
},
{
name = top;
position = "{387, 750}";
}
);
layerId = "849A9C4C-BF7C-40C5-8614-1FD725A2A379";
paths = (
{
closed = 1;
nodes = (
"300 0 LINE",
"381 458 LINE",
"460 0 LINE",
"605 0 LINE",
"766 750 LINE",
"631 744 LINE",
"536 296 LINE",
"457 750 LINE",
"337 744 LINE",
"252 301 LINE",
"173 750 LINE",
"13 744 LINE",
"166 0 LINE"
);
}
);
width = 774;
}
);
unicode = 0057;
},
{
color = 4;
glyphname = X;
lastChange = "2016-07-29 15:34:05 +0000";
layers = (
{
anchors = (
{
name = bottom;
position = "{260, 0}";
},
{
name = top;
position = "{260, 750}";
}
);
layerId = "849A9C4C-BF7C-40C5-8614-1FD725A2A379";
paths = (
{
closed = 1;
nodes = (
"139 0 LINE",
"245 235 LINE",
"351 0 LINE",
"525 0 LINE",
"331 409 LINE",
"500 750 LINE",
"360 750 LINE",
"270 555 LINE",
"183 750 LINE",
"8 750 LINE",
"187 381 LINE",
"0 0 LINE"
);
}
);
width = 520;
}
);
unicode = 0058;
},
{
color = 4;
glyphname = Y;
lastChange = "2016-07-29 15:34:05 +0000";
layers = (
{
anchors = (
{
name = bottom;
position = "{251, 0}";
},
{
name = top;
position = "{251, 750}";
},
{
name = topleft;
position = "{10, 750}";
}
);
layerId = "849A9C4C-BF7C-40C5-8614-1FD725A2A379";
paths = (
{
closed = 1;
nodes = (
"327 6 LINE",
"327 314 LINE",
"500 750 LINE",
"374 750 LINE",
"263 438 LINE",
"160 750 LINE",
"-1 750 LINE",
"179 297 LINE",
"179 -6 LINE"
);
}
);
width = 501;
}
);
unicode = 0059;
},
{
color = 4;
glyphname = Z;
lastChange = "2016-07-29 15:34:05 +0000";
layers = (
{
anchors = (
{
name = bottom;
position = "{236, 0}";
},
{
name = top;
position = "{236, 750}";
}
);
layerId = "849A9C4C-BF7C-40C5-8614-1FD725A2A379";
paths = (
{
closed = 1;
nodes = (
"425 0 LINE",
"448 117 LINE",
"206 117 LINE",
"441 653 LINE",
"441 750 LINE",
"65 750 LINE",
"53 633 LINE",
"271 633 LINE",
"30 93 LINE",
"30 0 LINE"
);
}
);
width = 472;
}
);
unicode = 005A;
},
{
color = 4;
glyphname = a;
lastChange = "2016-07-29 15:34:05 +0000";
layers = (
{
anchors = (
{
name = bottom;
position = "{235, 0}";
},
{
name = ogonek;
position = "{482, 5}";
},
{
name = top;
position = "{235, 563}";
}
);
layerId = "849A9C4C-BF7C-40C5-8614-1FD725A2A379";
paths = (
{
closed = 1;
nodes = (
"204 -13 OFFCURVE",
"255 22 OFFCURVE",
"278 63 CURVE",
"294 -6 LINE",
"431 6 LINE",
"421 41 OFFCURVE",
"416 69 OFFCURVE",
"416 106 CURVE SMOOTH",
"416 397 LINE SMOOTH",
"416 493 OFFCURVE",
"361 570 OFFCURVE",
"234 570 CURVE SMOOTH",
"153 570 OFFCURVE",
"61 539 OFFCURVE",
"47 427 CURVE",
"184 403 LINE",
"188 435 OFFCURVE",
"201 467 OFFCURVE",
"234 467 CURVE SMOOTH",
"275 467 OFFCURVE",
"275 416 OFFCURVE",
"275 361 CURVE",
"177 355 OFFCURVE",
"27 321 OFFCURVE",
"27 157 CURVE SMOOTH",
"27 61 OFFCURVE",
"79 -13 OFFCURVE",
"153 -13 CURVE SMOOTH"
);
},
{
closed = 1;
nodes = (
"182 87 OFFCURVE",
"165 117 OFFCURVE",
"165 166 CURVE SMOOTH",
"165 246 OFFCURVE",
"212 277 OFFCURVE",
"275 277 CURVE",
"275 121 LINE",
"257 102 OFFCURVE",
"243 87 OFFCURVE",
"218 87 CURVE SMOOTH"
);
}
);
width = 471;
}
);
unicode = 0061;
},
{
color = 4;
glyphname = ae;
lastChange = "2016-07-29 15:34:05 +0000";
layers = (
{
layerId = "849A9C4C-BF7C-40C5-8614-1FD725A2A379";
paths = (
{
closed = 1;
nodes = (
"239 -13 OFFCURVE",
"316 7 OFFCURVE",
"348 70 CURVE",
"382 18 OFFCURVE",
"420 -13 OFFCURVE",
"485 -13 CURVE SMOOTH",
"579 -13 OFFCURVE",
"642 50 OFFCURVE",
"667 142 CURVE",
"561 182 LINE",
"555 170 OFFCURVE",
"527 90 OFFCURVE",
"482 90 CURVE SMOOTH",
"432 90 OFFCURVE",
"415 191 OFFCURVE",
"415 262 CURVE",
"683 262 LINE",
"683 271 OFFCURVE",
"683 279 OFFCURVE",
"683 287 CURVE SMOOTH",
"683 466 OFFCURVE",
"615 570 OFFCURVE",
"489 570 CURVE SMOOTH",
"430 570 OFFCURVE",
"390 546 OFFCURVE",
"353 504 CURVE",
"323 548 OFFCURVE",
"289 570 OFFCURVE",
"228 570 CURVE SMOOTH",
"154 570 OFFCURVE",
"59 538 OFFCURVE",
"46 427 CURVE",
"183 403 LINE",
"187 434 OFFCURVE",
"199 467 OFFCURVE",
"233 467 CURVE SMOOTH",
"271 467 OFFCURVE",
"274 427 OFFCURVE",
"274 361 CURVE",
"177 355 OFFCURVE",
"26 320 OFFCURVE",
"26 159 CURVE SMOOTH",
"26 60 OFFCURVE",
"83 -13 OFFCURVE",
"186 -13 CURVE SMOOTH"
);
},
{
closed = 1;
nodes = (
"183 87 OFFCURVE",
"164 117 OFFCURVE",
"164 167 CURVE SMOOTH",
"164 246 OFFCURVE",
"211 277 OFFCURVE",
"274 277 CURVE",
"274 187 LINE SMOOTH",
"274 157 OFFCURVE",
"262 87 OFFCURVE",
"214 87 CURVE SMOOTH"
);
},
{
closed = 1;
nodes = (
"417 420 OFFCURVE",
"446 473 OFFCURVE",
"487 473 CURVE SMOOTH",
"529 473 OFFCURVE",
"549 417 OFFCURVE",
"549 343 CURVE",
"415 343 LINE"
);
}
);
width = 711;
}
);
unicode = 00E6;
},
{
color = 4;
glyphname = b;
lastChange = "2016-07-29 15:34:05 +0000";
layers = (
{
anchors = (
{
name = bottom;
position = "{259, 0}";
},
{
name = top;
position = "{259, 563}";
}
);
layerId = "849A9C4C-BF7C-40C5-8614-1FD725A2A379";
paths = (
{
closed = 1;
nodes = (
"425 -13 OFFCURVE",
"483 78 OFFCURVE",
"483 281 CURVE SMOOTH",
"483 495 OFFCURVE",
"424 570 OFFCURVE",
"344 570 CURVE SMOOTH",
"286 570 OFFCURVE",
"234 538 OFFCURVE",
"201 491 CURVE",
"201 750 LINE",
"61 732 LINE",
"61 6 LINE",
"167 -6 LINE",
"201 70 LINE",
"213 28 OFFCURVE",
"240 -13 OFFCURVE",
"322 -13 CURVE SMOOTH"
);
},
{
closed = 1;
nodes = (
"236 87 OFFCURVE",
"201 117 OFFCURVE",
"201 234 CURVE SMOOTH",
"201 412 LINE",
"214 425 OFFCURVE",
"252 450 OFFCURVE",
"279 450 CURVE SMOOTH",
"331 450 OFFCURVE",
"343 409 OFFCURVE",
"343 281 CURVE SMOOTH",
"343 177 OFFCURVE",
"338 87 OFFCURVE",
"270 87 CURVE SMOOTH"
);
}
);
width = 518;
}
);
unicode = 0062;
},
{
color = 4;
glyphname = c;
lastChange = "2016-07-29 15:34:05 +0000";
layers = (
{
anchors = (
{
name = bottom;
position = "{223, 0}";
},
{
name = top;
position = "{223, 563}";
}
);
layerId = "849A9C4C-BF7C-40C5-8614-1FD725A2A379";
paths = (
{
closed = 1;
nodes = (
"362 -13 OFFCURVE",
"399 74 OFFCURVE",
"415 198 CURVE",
"297 211 LINE",
"296 159 OFFCURVE",
"285 105 OFFCURVE",
"241 105 CURVE SMOOTH",
"175 105 OFFCURVE",
"175 234 OFFCURVE",
"175 281 CURVE SMOOTH",
"175 328 OFFCURVE",
"175 458 OFFCURVE",
"237 458 CURVE SMOOTH",
"277 458 OFFCURVE",
"281 395 OFFCURVE",
"285 362 CURVE",
"418 368 LINE",
"414 487 OFFCURVE",
"342 570 OFFCURVE",
"238 570 CURVE SMOOTH",
"96 570 OFFCURVE",
"34 420 OFFCURVE",
"34 276 CURVE SMOOTH",
"34 127 OFFCURVE",
"101 -13 OFFCURVE",
"235 -13 CURVE SMOOTH"
);
}
);
width = 445;
}
);
unicode = 0063;
},
{
color = 4;
glyphname = d;
lastChange = "2016-07-29 15:34:05 +0000";
layers = (
{
anchors = (
{
name = bottom;
position = "{259, 0}";
},
{
name = center;
position = "{259, 281}";
},
{
name = top;
position = "{259, 563}";
},
{
name = topright;
position = "{508, 563}";
}
);
layerId = "849A9C4C-BF7C-40C5-8614-1FD725A2A379";
paths = (
{
closed = 1;
nodes = (
"280 -13 OFFCURVE",
"307 28 OFFCURVE",
"318 70 CURVE",
"353 -6 LINE",
"459 6 LINE",
"459 750 LINE",
"318 732 LINE",
"318 488 LINE",
"298 534 OFFCURVE",
"250 570 OFFCURVE",
"201 570 CURVE SMOOTH",
"90 570 OFFCURVE",
"36 489 OFFCURVE",
"36 281 CURVE SMOOTH",
"36 78 OFFCURVE",
"95 -13 OFFCURVE",
"198 -13 CURVE SMOOTH"
);
},
{
closed = 1;
nodes = (
"181 87 OFFCURVE",
"177 177 OFFCURVE",
"177 281 CURVE SMOOTH",
"177 385 OFFCURVE",
"181 467 OFFCURVE",
"250 467 CURVE SMOOTH",
"277 467 OFFCURVE",
"300 450 OFFCURVE",
"318 422 CURVE",
"318 234 LINE SMOOTH",
"318 117 OFFCURVE",
"284 87 OFFCURVE",
"250 87 CURVE SMOOTH"
);
}
);
width = 518;
}
);
unicode = 0064;
},
{
color = 4;
glyphname = eth;
lastChange = "2016-07-29 15:34:05 +0000";
layers = (
{
background = {
paths = (
{
closed = 1;
nodes = (
"413 -16 OFFCURVE",
"447 194 OFFCURVE",
"447 378 CURVE SMOOTH",
"447 541 OFFCURVE",
"384 766 OFFCURVE",
"219 766 CURVE SMOOTH",
"131 766 OFFCURVE",
"83 752 OFFCURVE",
"-4 680 CURVE",
"49 589 LINE",
"76 614 OFFCURVE",
"142 657 OFFCURVE",
"194 657 CURVE SMOOTH",
"296 657 OFFCURVE",
"302 500 OFFCURVE",
"304 418 CURVE",
"273 441 OFFCURVE",
"229 457 OFFCURVE",
"189 457 CURVE SMOOTH",
"85 457 OFFCURVE",
"21 343 OFFCURVE",
"21 221 CURVE SMOOTH",
"21 101 OFFCURVE",
"106 -16 OFFCURVE",
"230 -16 CURVE SMOOTH"
);
},
{
closed = 1;
nodes = (
"176 112 OFFCURVE",
"162 175 OFFCURVE",
"162 218 CURVE SMOOTH",
"162 276 OFFCURVE",
"181 338 OFFCURVE",
"238 338 CURVE SMOOTH",
"256 338 OFFCURVE",
"272 333 OFFCURVE",
"284 327 CURVE",
"303 317 LINE",
"303 314 OFFCURVE",
"303 312 OFFCURVE",
"304 309 CURVE",
"304 305 OFFCURVE",
"304 300 OFFCURVE",
"304 297 CURVE SMOOTH",
"304 235 OFFCURVE",
"309 112 OFFCURVE",
"236 112 CURVE SMOOTH"
);
},
{
closed = 1;
nodes = (
"492 591 LINE",
"460 679 LINE",
"161 587 LINE",
"192 499 LINE"
);
}
);
};
layerId = "849A9C4C-BF7C-40C5-8614-1FD725A2A379";
paths = (
{
closed = 1;
nodes = (
"413 -16 OFFCURVE",
"447 194 OFFCURVE",
"447 378 CURVE SMOOTH",
"447 541 OFFCURVE",
"384 766 OFFCURVE",
"219 766 CURVE SMOOTH",
"131 766 OFFCURVE",
"83 752 OFFCURVE",
"-4 680 CURVE",
"49 589 LINE",
"76 614 OFFCURVE",
"142 657 OFFCURVE",
"194 657 CURVE SMOOTH",
"296 657 OFFCURVE",
"302 500 OFFCURVE",
"304 418 CURVE",
"273 441 OFFCURVE",
"229 457 OFFCURVE",
"189 457 CURVE SMOOTH",
"85 457 OFFCURVE",
"21 343 OFFCURVE",
"21 221 CURVE SMOOTH",
"21 101 OFFCURVE",
"106 -16 OFFCURVE",
"230 -16 CURVE SMOOTH"
);
},
{
closed = 1;
nodes = (
"176 112 OFFCURVE",
"162 175 OFFCURVE",
"162 218 CURVE SMOOTH",
"162 276 OFFCURVE",
"181 338 OFFCURVE",
"238 338 CURVE SMOOTH",
"256 338 OFFCURVE",
"272 333 OFFCURVE",
"284 327 CURVE",
"303 317 LINE",
"303 314 OFFCURVE",
"303 312 OFFCURVE",
"304 309 CURVE",
"304 305 OFFCURVE",
"304 300 OFFCURVE",
"304 297 CURVE SMOOTH",
"304 235 OFFCURVE",
"309 112 OFFCURVE",
"236 112 CURVE SMOOTH"
);
},
{
closed = 1;
nodes = (
"492 591 LINE",
"460 679 LINE",
"161 587 LINE",
"192 499 LINE"
);
}
);
width = 491;
}
);
unicode = 00F0;
},
{
color = 4;
glyphname = dcaron;
lastChange = "2016-07-29 15:34:05 +0000";
layers = (
{
layerId = "849A9C4C-BF7C-40C5-8614-1FD725A2A379";
paths = (
{
closed = 1;
nodes = (
"251 -13 OFFCURVE",
"282 7 OFFCURVE",
"299 28 CURVE SMOOTH",
"309 41 OFFCURVE",
"316 55 OFFCURVE",
"320 70 CURVE",
"354 -6 LINE",
"461 6 LINE",
"461 750 LINE",
"320 732 LINE",
"320 488 LINE",
"308 503 OFFCURVE",
"295 517 OFFCURVE",
"281 529 CURVE SMOOTH",
"257 550 OFFCURVE",
"224 570 OFFCURVE",
"193 570 CURVE SMOOTH",
"82 570 OFFCURVE",
"38 489 OFFCURVE",
"38 281 CURVE SMOOTH",
"38 78 OFFCURVE",
"97 -13 OFFCURVE",
"200 -13 CURVE SMOOTH"
);
},
{
closed = 1;
nodes = (
"183 87 OFFCURVE",
"179 177 OFFCURVE",
"179 281 CURVE SMOOTH",
"179 385 OFFCURVE",
"183 467 OFFCURVE",
"252 467 CURVE SMOOTH",
"269 467 OFFCURVE",
"286 456 OFFCURVE",
"299 444 CURVE SMOOTH",
"306 438 OFFCURVE",
"313 430 OFFCURVE",
"320 422 CURVE",
"320 234 LINE SMOOTH",
"320 117 OFFCURVE",
"286 87 OFFCURVE",
"252 87 CURVE SMOOTH"
);
},
{
closed = 1;
nodes = (
"575 470 OFFCURVE",
"594 476 OFFCURVE",
"611 486 CURVE SMOOTH",
"641 503 OFFCURVE",
"670 539 OFFCURVE",
"670 609 CURVE SMOOTH",
"670 750 LINE",
"529 750 LINE",
"529 604 LINE",
"600 609 LINE",
"599 601 OFFCURVE",
"597 593 OFFCURVE",
"594 586 CURVE SMOOTH",
"588 574 OFFCURVE",
"576 563 OFFCURVE",
"553 563 CURVE",
"553 469 LINE"
);
}
);
width = 642;
}
);
unicode = 010F;
},
{
color = 4;
glyphname = dcroat;
lastChange = "2016-07-29 15:34:05 +0000";
layers = (
{
layerId = "849A9C4C-BF7C-40C5-8614-1FD725A2A379";
paths = (
{
closed = 1;
nodes = (
"251 -13 OFFCURVE",
"282 7 OFFCURVE",
"299 28 CURVE SMOOTH",
"309 41 OFFCURVE",
"316 55 OFFCURVE",
"320 70 CURVE",
"354 -6 LINE",
"461 6 LINE",
"461 750 LINE",
"320 732 LINE",
"320 488 LINE",
"308 503 OFFCURVE",
"295 517 OFFCURVE",
"281 529 CURVE SMOOTH",
"257 550 OFFCURVE",
"224 570 OFFCURVE",
"193 570 CURVE SMOOTH",
"82 570 OFFCURVE",
"38 489 OFFCURVE",
"38 281 CURVE SMOOTH",
"38 78 OFFCURVE",
"97 -13 OFFCURVE",
"200 -13 CURVE SMOOTH"
);
},
{
closed = 1;
nodes = (
"183 87 OFFCURVE",
"179 177 OFFCURVE",
"179 281 CURVE SMOOTH",
"179 385 OFFCURVE",
"183 467 OFFCURVE",
"252 467 CURVE SMOOTH",
"269 467 OFFCURVE",
"286 456 OFFCURVE",
"299 444 CURVE SMOOTH",
"306 438 OFFCURVE",
"313 430 OFFCURVE",
"320 422 CURVE",
"320 234 LINE SMOOTH",
"320 117 OFFCURVE",
"286 87 OFFCURVE",
"252 87 CURVE SMOOTH"
);
},
{
closed = 1;
nodes = (
"528 609 LINE",
"528 703 LINE",
"247 703 LINE",
"247 609 LINE"
);
}
);
width = 521;
}
);
unicode = 0111;
},
{
color = 4;
glyphname = e;
lastChange = "2016-07-29 15:34:05 +0000";
layers = (
{
anchors = (
{
name = bottom;
position = "{236, 0}";
},
{
name = ogonek;
position = "{399, 5}";
},
{
name = top;
position = "{236, 563}";
}
);
layerId = "849A9C4C-BF7C-40C5-8614-1FD725A2A379";
paths = (
{
closed = 1;
nodes = (
"343 -13 OFFCURVE",
"401 51 OFFCURVE",
"427 142 CURVE",
"321 182 LINE",
"317 174 OFFCURVE",
"287 90 OFFCURVE",
"243 90 CURVE SMOOTH",
"191 90 OFFCURVE",
"174 191 OFFCURVE",
"174 262 CURVE",
"441 262 LINE",
"441 264 OFFCURVE",
"447 267 OFFCURVE",
"447 278 CURVE SMOOTH",
"447 451 OFFCURVE",
"379 570 OFFCURVE",
"245 570 CURVE SMOOTH",
"104 570 OFFCURVE",
"34 451 OFFCURVE",
"34 278 CURVE SMOOTH",
"34 107 OFFCURVE",
"103 -13 OFFCURVE",
"240 -13 CURVE SMOOTH"
);
},
{
closed = 1;
nodes = (
"174 417 OFFCURVE",
"208 473 OFFCURVE",
"243 473 CURVE SMOOTH",
"291 473 OFFCURVE",
"309 417 OFFCURVE",
"309 343 CURVE",
"174 343 LINE"
);
}
);
width = 471;
}
);
unicode = 0065;
},
{
color = 4;
glyphname = f;
lastChange = "2016-07-29 15:34:05 +0000";
layers = (
{
anchors = (
{
name = bottom;
position = "{169, 0}";
},
{
name = top;
position = "{169, 563}";
}
);
layerId = "849A9C4C-BF7C-40C5-8614-1FD725A2A379";
paths = (
{
closed = 1;
nodes = (
"229 6 LINE",
"229 457 LINE",
"322 457 LINE",
"328 563 LINE",
"229 563 LINE",
"229 573 LINE SMOOTH",
"229 614 OFFCURVE",
"233 656 OFFCURVE",
"292 656 CURVE SMOOTH",
"323 656 LINE",
"323 740 LINE",
"307 747 OFFCURVE",
"283 755 OFFCURVE",
"228 755 CURVE SMOOTH",
"92 755 OFFCURVE",
"88 664 OFFCURVE",
"88 573 CURVE SMOOTH",
"88 563 LINE",
"24 563 LINE",
"19 457 LINE",
"88 457 LINE",
"88 -6 LINE"
);
}
);
width = 338;
}
);
unicode = 0066;
},
{
color = 4;
glyphname = g;
lastChange = "2016-07-29 15:34:05 +0000";
layers = (
{
anchors = (
{
name = bottom;
position = "{266, 0}";
},
{
name = top;
position = "{266, 563}";
}
);
layerId = "849A9C4C-BF7C-40C5-8614-1FD725A2A379";
paths = (
{
closed = 1;
nodes = (
"385 -175 OFFCURVE",
"509 -140 OFFCURVE",
"509 -6 CURVE SMOOTH",
"509 66 OFFCURVE",
"472 117 OFFCURVE",
"370 129 CURVE SMOOTH",
"210 147 LINE SMOOTH",
"191 150 OFFCURVE",
"175 164 OFFCURVE",
"175 183 CURVE SMOOTH",
"175 205 OFFCURVE",
"198 224 OFFCURVE",
"212 229 CURVE",
"225 229 OFFCURVE",
"249 227 OFFCURVE",
"271 227 CURVE SMOOTH",
"423 227 OFFCURVE",
"467 321 OFFCURVE",
"467 396 CURVE SMOOTH",
"467 427 OFFCURVE",
"459 449 OFFCURVE",
"446 484 CURVE",
"455 488 OFFCURVE",
"476 498 OFFCURVE",
"535 498 CURVE",
"535 591 LINE",
"464 591 OFFCURVE",
"419 547 OFFCURVE",
"398 528 CURVE",
"372 546 OFFCURVE",
"325 570 OFFCURVE",
"258 570 CURVE SMOOTH",
"156 570 OFFCURVE",
"47 513 OFFCURVE",
"47 395 CURVE SMOOTH",
"47 319 OFFCURVE",
"92 276 OFFCURVE",
"137 250 CURVE",
"84 224 OFFCURVE",
"39 183 OFFCURVE",
"39 127 CURVE SMOOTH",
"39 82 OFFCURVE",
"69 63 OFFCURVE",
"115 50 CURVE",
"67 32 OFFCURVE",
"16 -1 OFFCURVE",
"16 -57 CURVE SMOOTH",
"16 -129 OFFCURVE",
"101 -175 OFFCURVE",
"252 -175 CURVE SMOOTH"
);
},
{
closed = 1;
nodes = (
"180 -73 OFFCURVE",
"144 -52 OFFCURVE",
"144 -17 CURVE SMOOTH",
"144 10 OFFCURVE",
"166 32 OFFCURVE",
"188 39 CURVE",
"271 32 LINE SMOOTH",
"347 26 OFFCURVE",
"372 23 OFFCURVE",
"372 -11 CURVE SMOOTH",
"372 -49 OFFCURVE",
"340 -73 OFFCURVE",
"258 -73 CURVE SMOOTH"
);
},
{
closed = 1;
nodes = (
"202 307 OFFCURVE",
"190 365 OFFCURVE",
"190 398 CURVE SMOOTH",
"190 446 OFFCURVE",
"215 485 OFFCURVE",
"257 485 CURVE SMOOTH",
"291 485 OFFCURVE",
"321 460 OFFCURVE",
"321 397 CURVE SMOOTH",
"321 340 OFFCURVE",
"297 307 OFFCURVE",
"256 307 CURVE SMOOTH"
);
}
);
width = 532;
}
);
unicode = 0067;
},
{
color = 4;
glyphname = gcommaaccent;
lastChange = "2016-07-29 15:34:05 +0000";
layers = (
{
background = {
paths = (
{
closed = 1;
nodes = (
"362 -175 OFFCURVE",
"514 -138 OFFCURVE",
"514 -10 CURVE SMOOTH",
"514 35 OFFCURVE",
"499 71 OFFCURVE",
"469 97 CURVE SMOOTH",
"440 123 OFFCURVE",
"399 133 OFFCURVE",
"349 137 CURVE SMOOTH",
"216 147 LINE",
"196 150 OFFCURVE",
"181 164 OFFCURVE",
"181 183 CURVE SMOOTH",
"181 200 OFFCURVE",
"183 211 OFFCURVE",
"188 216 CURVE SMOOTH",
"194 221 OFFCURVE",
"204 225 OFFCURVE",
"217 229 CURVE",
"231 229 OFFCURVE",
"250 227 OFFCURVE",
"276 227 CURVE",
"308 223 OFFCURVE",
"336 227 OFFCURVE",
"360 237 CURVE SMOOTH",
"384 249 OFFCURVE",
"405 263 OFFCURVE",
"421 280 CURVE SMOOTH",
"454 315 OFFCURVE",
"470 359 OFFCURVE",
"470 400 CURVE SMOOTH",
"470 417 OFFCURVE",
"465 438 OFFCURVE",
"459 455 CURVE SMOOTH",
"456 464 OFFCURVE",
"453 474 OFFCURVE",
"449 484 CURVE",
"451 485 OFFCURVE",
"454 486 OFFCURVE",
"458 488 CURVE SMOOTH",
"463 490 OFFCURVE",
"469 492 OFFCURVE",
"476 492 CURVE SMOOTH",
"484 492 OFFCURVE",
"500 488 OFFCURVE",
"513 482 CURVE SMOOTH",
"538 473 LINE",
"538 591 LINE",
"532 592 LINE SMOOTH",
"529 593 OFFCURVE",
"526 593 OFFCURVE",
"522 593 CURVE SMOOTH",
"471 593 OFFCURVE",
"421 546 OFFCURVE",
"401 528 CURVE",
"374 546 OFFCURVE",
"331 570 OFFCURVE",
"259 570 CURVE SMOOTH",
"159 570 OFFCURVE",
"52 510 OFFCURVE",
"52 398 CURVE SMOOTH",
"52 347 OFFCURVE",
"75 311 OFFCURVE",
"97 286 CURVE",
"110 272 OFFCURVE",
"125 260 OFFCURVE",
"142 250 CURVE",
"122 240 OFFCURVE",
"104 229 OFFCURVE",
"89 215 CURVE SMOOTH",
"63 193 OFFCURVE",
"36 162 OFFCURVE",
"36 125 CURVE SMOOTH",
"36 98 OFFCURVE",
"57 79 OFFCURVE",
"78 67 CURVE SMOOTH",
"90 60 OFFCURVE",
"104 55 OFFCURVE",
"120 50 CURVE",
"102 43 OFFCURVE",
"85 34 OFFCURVE",
"71 23 CURVE SMOOTH",
"46 5 OFFCURVE",
"21 -22 OFFCURVE",
"21 -60 CURVE SMOOTH",
"21 -127 OFFCURVE",
"104 -175 OFFCURVE",
"257 -175 CURVE SMOOTH"
);
},
{
closed = 1;
nodes = (
"183 -71 OFFCURVE",
"149 -50 OFFCURVE",
"149 -18 CURVE SMOOTH",
"149 16 OFFCURVE",
"172 32 OFFCURVE",
"194 39 CURVE",
"276 39 LINE SMOOTH",
"305 39 OFFCURVE",
"377 35 OFFCURVE",
"377 -8 CURVE SMOOTH",
"377 -47 OFFCURVE",
"341 -71 OFFCURVE",
"274 -71 CURVE SMOOTH"
);
},
{
closed = 1;
nodes = (
"203 307 OFFCURVE",
"193 360 OFFCURVE",
"193 403 CURVE SMOOTH",
"193 440 OFFCURVE",
"213 485 OFFCURVE",
"258 485 CURVE SMOOTH",
"292 485 OFFCURVE",
"321 458 OFFCURVE",
"321 400 CURVE SMOOTH",
"321 340 OFFCURVE",
"297 307 OFFCURVE",
"259 307 CURVE SMOOTH"
);
},
{
closed = 1;
nodes = (
"367 642 LINE",
"367 797 LINE",
"272 797 LINE",
"273 806 OFFCURVE",
"276 813 OFFCURVE",
"281 820 CURVE SMOOTH",
"291 832 OFFCURVE",
"308 844 OFFCURVE",
"343 844 CURVE",
"343 938 LINE",
"316 936 OFFCURVE",
"293 930 OFFCURVE",
"272 920 CURVE SMOOTH",
"237 902 OFFCURVE",
"202 868 OFFCURVE",
"202 797 CURVE SMOOTH",
"202 636 LINE"
);
}
);
};
components = (
{
name = g;
}
);
layerId = "849A9C4C-BF7C-40C5-8614-1FD725A2A379";
paths = (
{
closed = 1;
nodes = (
"367 642 LINE",
"367 797 LINE",
"272 797 LINE",
"274 821 OFFCURVE",
"295 844 OFFCURVE",
"343 844 CURVE",
"343 938 LINE",
"275 934 OFFCURVE",
"202 898 OFFCURVE",
"202 797 CURVE SMOOTH",
"202 636 LINE"
);
}
);
width = 542;
}
);
unicode = 0123;
},
{
color = 4;
glyphname = h;
lastChange = "2016-07-29 15:34:05 +0000";
layers = (
{
anchors = (
{
name = bottom;
position = "{270, 0}";
},
{
name = center;
position = "{270, 281}";
},
{
name = top;
position = "{279, 750}";
}
);
layerId = "849A9C4C-BF7C-40C5-8614-1FD725A2A379";
paths = (
{
closed = 1;
nodes = (
"201 6 LINE",
"201 412 LINE",
"240 435 OFFCURVE",
"267 450 OFFCURVE",
"293 450 CURVE SMOOTH",
"321 450 OFFCURVE",
"342 429 OFFCURVE",
"342 377 CURVE SMOOTH",
"342 -6 LINE",
"482 6 LINE",
"482 428 LINE SMOOTH",
"482 515 OFFCURVE",
"432 570 OFFCURVE",
"362 570 CURVE SMOOTH",
"314 570 OFFCURVE",
"260 545 OFFCURVE",
"201 491 CURVE",
"201 750 LINE",
"61 732 LINE",
"61 -6 LINE"
);
}
);
width = 539;
}
);
unicode = 0068;
},
{
color = 4;
glyphname = hbar;
lastChange = "2016-07-29 15:34:05 +0000";
layers = (
{
layerId = "849A9C4C-BF7C-40C5-8614-1FD725A2A379";
paths = (
{
closed = 1;
nodes = (
"201 6 LINE",
"201 412 LINE",
"240 435 OFFCURVE",
"267 450 OFFCURVE",
"293 450 CURVE SMOOTH",
"321 450 OFFCURVE",
"342 429 OFFCURVE",
"342 377 CURVE SMOOTH",
"342 -6 LINE",
"482 6 LINE",
"482 428 LINE SMOOTH",
"482 515 OFFCURVE",
"432 570 OFFCURVE",
"362 570 CURVE SMOOTH",
"314 570 OFFCURVE",
"260 545 OFFCURVE",
"201 491 CURVE",
"201 750 LINE",
"61 732 LINE",
"61 -6 LINE"
);
},
{
closed = 1;
nodes = (
"312 609 LINE",
"312 703 LINE",
"-16 703 LINE",
"-16 609 LINE"
);
}
);
width = 539;
}
);
unicode = 0127;
},
{
color = 4;
glyphname = i;
lastChange = "2016-07-29 15:34:05 +0000";
layers = (
{
anchors = (
{
name = bottom;
position = "{127, 0}";
},
{
name = ogonek;
position = "{281, 5}";
},
{
name = top;
position = "{131, 563}";
}
);
background = {
paths = (
{
closed = 1;
nodes = (
"202 6 LINE",
"202 563 LINE",
"62 551 LINE",
"62 -6 LINE"
);
}
);
};
components = (
{
name = idotless;
}
);
layerId = "849A9C4C-BF7C-40C5-8614-1FD725A2A379";
paths = (
{
closed = 1;
nodes = (
"202 641 LINE",
"202 790 LINE",
"62 780 LINE",
"62 635 LINE"
);
}
);
width = 263;
}
);
unicode = 0069;
},
{
color = 4;
glyphname = idotless;
lastChange = "2016-07-29 15:34:05 +0000";
layers = (
{
anchors = (
{
name = bottom;
position = "{131, 0}";
},
{
name = ogonek;
position = "{131, 5}";
},
{
name = top;
position = "{131, 563}";
}
);
layerId = "849A9C4C-BF7C-40C5-8614-1FD725A2A379";
paths = (
{
closed = 1;
nodes = (
"201 6 LINE",
"201 563 LINE",
"61 551 LINE",
"61 -6 LINE"
);
}
);
width = 262;
}
);
unicode = 0131;
userData = {
com.fontlab.hintData = {
vhints = (
{
position = 124;
width = 288;
}
);
};
};
},
{
color = 4;
glyphname = j;
lastChange = "2016-07-29 15:34:05 +0000";
layers = (
{
layerId = "849A9C4C-BF7C-40C5-8614-1FD725A2A379";
paths = (
{
closed = 1;
nodes = (
"207 -141 OFFCURVE",
"207 -80 OFFCURVE",
"207 26 CURVE SMOOTH",
"207 563 LINE",
"66 551 LINE",
"66 26 LINE SMOOTH",
"66 -28 OFFCURVE",
"61 -47 OFFCURVE",
"-12 -47 CURVE",
"-12 -131 LINE",
"25 -138 OFFCURVE",
"56 -141 OFFCURVE",
"82 -141 CURVE SMOOTH"
);
},
{
closed = 1;
nodes = (
"207 641 LINE",
"207 790 LINE",
"66 780 LINE",
"66 635 LINE"
);
}
);
width = 265;
}
);
unicode = 006A;
},
{
color = 4;
glyphname = jdotless;
lastChange = "2016-07-29 15:34:05 +0000";
layers = (
{
anchors = (
{
name = bottom;
position = "{131, 0}";
},
{
name = top;
position = "{131, 563}";
}
);
layerId = "849A9C4C-BF7C-40C5-8614-1FD725A2A379";
paths = (
{
closed = 1;
nodes = (
"201 -141 OFFCURVE",
"201 -80 OFFCURVE",
"201 26 CURVE SMOOTH",
"201 563 LINE",
"61 551 LINE",
"61 26 LINE SMOOTH",
"61 -28 OFFCURVE",
"56 -47 OFFCURVE",
"-17 -47 CURVE",
"-17 -131 LINE",
"20 -138 OFFCURVE",
"51 -141 OFFCURVE",
"77 -141 CURVE SMOOTH"
);
}
);
width = 262;
}
);
unicode = 0237;
},
{
color = 4;
glyphname = k;
lastChange = "2016-07-29 15:34:05 +0000";
layers = (
{
anchors = (
{
name = bottom;
position = "{250, 0}";
},
{
name = top;
position = "{250, 563}";
}
);
layerId = "849A9C4C-BF7C-40C5-8614-1FD725A2A379";
paths = (
{
closed = 1;
nodes = (
"485 29 LINE",
"338 360 LINE",
"496 563 LINE",
"344 563 LINE",
"201 378 LINE",
"201 750 LINE",
"61 732 LINE",
"61 0 LINE",
"201 0 LINE",
"201 206 LINE",
"247 267 LINE",
"361 -13 LINE"
);
}
);
width = 500;
}
);
unicode = 006B;
},
{
glyphname = kgreenlandic;
lastChange = "2016-07-29 15:34:05 +0000";
layers = (
{
anchors = (
{
name = bottom;
position = "{146, 0}";
},
{
name = top;
position = "{146, 563}";
}
);
background = {
components = (
{
name = idotless;
}
);
};
layerId = "849A9C4C-BF7C-40C5-8614-1FD725A2A379";
paths = (
{
closed = 1;
nodes = (
"485 29 LINE",
"338 360 LINE",
"496 563 LINE",
"344 563 LINE",
"201 378 LINE",
"201 563 LINE",
"61 551 LINE",
"61 0 LINE",
"201 0 LINE",
"201 206 LINE",
"247 267 LINE",
"361 -13 LINE"
);
}
);
width = 500;
}
);
unicode = 0138;
},
{
color = 4;
glyphname = l;
lastChange = "2016-07-29 15:34:05 +0000";
layers = (
{
anchors = (
{
name = bottom;
position = "{131, 0}";
},
{
name = center;
position = "{131, 281}";
},
{
name = top;
position = "{131, 563}";
},
{
name = topright;
position = "{253, 563}";
}
);
layerId = "849A9C4C-BF7C-40C5-8614-1FD725A2A379";
paths = (
{
closed = 1;
nodes = (
"202 6 LINE",
"202 750 LINE",
"62 732 LINE",
"62 -6 LINE"
);
}
);
width = 263;
}
);
unicode = 006C;
},
{
color = 4;
glyphname = lslash;
lastChange = "2016-07-29 15:34:05 +0000";
layers = (
{
layerId = "849A9C4C-BF7C-40C5-8614-1FD725A2A379";
paths = (
{
closed = 1;
nodes = (
"217 6 LINE",
"217 750 LINE",
"76 732 LINE",
"76 -6 LINE"
);
},
{
closed = 1;
nodes = (
"281 353 LINE",
"281 469 LINE",
"0 397 LINE",
"0 281 LINE"
);
}
);
width = 285;
}
);
unicode = 0142;
},
{
color = 4;
glyphname = m;
lastChange = "2016-07-29 15:34:05 +0000";
layers = (
{
anchors = (
{
name = bottom;
position = "{369, 0}";
},
{
name = top;
position = "{369, 563}";
}
);
layerId = "849A9C4C-BF7C-40C5-8614-1FD725A2A379";
paths = (
{
closed = 1;
nodes = (
"198 6 LINE",
"198 410 LINE",
"215 429 OFFCURVE",
"245 450 OFFCURVE",
"274 450 CURVE SMOOTH",
"287 450 OFFCURVE",
"302 434 OFFCURVE",
"302 393 CURVE SMOOTH",
"302 -6 LINE",
"439 6 LINE",
"439 410 LINE",
"454 429 OFFCURVE",
"479 450 OFFCURVE",
"510 450 CURVE SMOOTH",
"527 450 OFFCURVE",
"543 429 OFFCURVE",
"543 392 CURVE SMOOTH",
"543 -6 LINE",
"681 6 LINE",
"681 399 LINE SMOOTH",
"681 507 OFFCURVE",
"655 570 OFFCURVE",
"581 570 CURVE SMOOTH",
"521 570 OFFCURVE",
"474 537 OFFCURVE",
"433 482 CURVE",
"419 545 OFFCURVE",
"389 570 OFFCURVE",
"350 570 CURVE SMOOTH",
"295 570 OFFCURVE",
"238 538 OFFCURVE",
"198 491 CURVE",
"198 563 LINE",
"61 551 LINE",
"61 -6 LINE"
);
}
);
width = 737;
}
);
unicode = 006D;
},
{
color = 4;
glyphname = n;
lastChange = "2016-07-29 15:34:05 +0000";
layers = (
{
anchors = (
{
name = bottom;
position = "{270, 0}";
},
{
name = top;
position = "{270, 563}";
}
);
layerId = "849A9C4C-BF7C-40C5-8614-1FD725A2A379";
paths = (
{
closed = 1;
nodes = (
"201 6 LINE",
"201 411 LINE",
"234 431 OFFCURVE",
"266 450 OFFCURVE",
"291 450 CURVE SMOOTH",
"321 450 OFFCURVE",
"342 431 OFFCURVE",
"342 375 CURVE SMOOTH",
"342 -6 LINE",
"482 6 LINE",
"482 428 LINE SMOOTH",
"482 515 OFFCURVE",
"432 570 OFFCURVE",
"362 570 CURVE SMOOTH",
"314 570 OFFCURVE",
"257 540 OFFCURVE",
"201 491 CURVE",
"201 563 LINE",
"61 551 LINE",
"61 -6 LINE"
);
}
);
width = 539;
}
);
unicode = 006E;
},
{
color = 4;
glyphname = napostrophe;
lastChange = "2016-07-29 15:34:05 +0000";
layers = (
{
layerId = "849A9C4C-BF7C-40C5-8614-1FD725A2A379";
paths = (
{
closed = 1;
nodes = (
"201 6 LINE",
"201 411 LINE",
"234 431 OFFCURVE",
"266 450 OFFCURVE",
"291 450 CURVE SMOOTH",
"321 450 OFFCURVE",
"342 431 OFFCURVE",
"342 375 CURVE SMOOTH",
"342 -6 LINE",
"482 6 LINE",
"482 428 LINE SMOOTH",
"482 515 OFFCURVE",
"432 570 OFFCURVE",
"362 570 CURVE SMOOTH",
"314 570 OFFCURVE",
"257 540 OFFCURVE",
"201 491 CURVE",
"201 563 LINE",
"61 551 LINE",
"61 -6 LINE"
);
},
{
closed = 1;
nodes = (
"80 592 OFFCURVE",
"100 598 OFFCURVE",
"117 608 CURVE SMOOTH",
"146 625 OFFCURVE",
"175 661 OFFCURVE",
"175 731 CURVE SMOOTH",
"175 872 LINE",
"35 872 LINE",
"35 731 LINE",
"105 731 LINE",
"104 722 OFFCURVE",
"103 714 OFFCURVE",
"99 708 CURVE SMOOTH",
"93 696 OFFCURVE",
"82 684 OFFCURVE",
"58 684 CURVE",
"58 590 LINE"
);
}
);
width = 539;
}
);
unicode = 0149;
},
{
color = 4;
glyphname = eng;
lastChange = "2016-07-29 15:34:05 +0000";
layers = (
{
layerId = "849A9C4C-BF7C-40C5-8614-1FD725A2A379";
paths = (
{
closed = 1;
nodes = (
"482 -141 OFFCURVE",
"482 -80 OFFCURVE",
"482 26 CURVE SMOOTH",
"482 428 LINE SMOOTH",
"482 515 OFFCURVE",
"432 570 OFFCURVE",
"362 570 CURVE SMOOTH",
"314 570 OFFCURVE",
"257 540 OFFCURVE",
"201 491 CURVE",
"201 563 LINE",
"61 551 LINE",
"61 -6 LINE",
"201 6 LINE",
"201 411 LINE",
"234 431 OFFCURVE",
"266 450 OFFCURVE",
"291 450 CURVE SMOOTH",
"321 450 OFFCURVE",
"342 431 OFFCURVE",
"342 375 CURVE SMOOTH",
"342 26 LINE SMOOTH",
"342 -28 OFFCURVE",
"337 -47 OFFCURVE",
"264 -47 CURVE",
"264 -131 LINE",
"301 -138 OFFCURVE",
"332 -141 OFFCURVE",
"358 -141 CURVE SMOOTH"
);
}
);
width = 540;
}
);
unicode = 014B;
},
{
color = 4;
glyphname = o;
lastChange = "2016-07-29 15:34:05 +0000";
layers = (
{
anchors = (
{
name = bottom;
position = "{240, 0}";
},
{
name = center;
position = "{245, 281}";
},
{
name = ogonek;
position = "{403, 5}";
},
{
name = top;
position = "{245, 563}";
},
{
name = topright;
position = "{480, 563}";
}
);
layerId = "849A9C4C-BF7C-40C5-8614-1FD725A2A379";
paths = (
{
closed = 1;
nodes = (
"382 -13 OFFCURVE",
"456 108 OFFCURVE",
"456 280 CURVE SMOOTH",
"456 452 OFFCURVE",
"382 570 OFFCURVE",
"244 570 CURVE SMOOTH",
"104 570 OFFCURVE",
"34 450 OFFCURVE",
"34 280 CURVE SMOOTH",
"34 109 OFFCURVE",
"105 -13 OFFCURVE",
"244 -13 CURVE SMOOTH"
);
},
{
closed = 1;
nodes = (
"176 91 OFFCURVE",
"175 207 OFFCURVE",
"175 292 CURVE SMOOTH",
"175 352 OFFCURVE",
"175 471 OFFCURVE",
"244 471 CURVE SMOOTH",
"313 471 OFFCURVE",
"315 351 OFFCURVE",
"315 281 CURVE SMOOTH",
"315 211 OFFCURVE",
"313 91 OFFCURVE",
"244 91 CURVE SMOOTH"
);
}
);
width = 490;
}
);
unicode = 006F;
},
{
color = 4;
glyphname = oslash;
lastChange = "2016-07-29 15:34:05 +0000";
layers = (
{
layerId = "849A9C4C-BF7C-40C5-8614-1FD725A2A379";
paths = (
{
closed = 1;
nodes = (
"109 42 LINE",
"144 6 OFFCURVE",
"188 -13 OFFCURVE",
"245 -13 CURVE SMOOTH",
"382 -13 OFFCURVE",
"456 108 OFFCURVE",
"456 282 CURVE SMOOTH",
"456 345 OFFCURVE",
"446 399 OFFCURVE",
"426 444 CURVE",
"480 512 LINE",
"442 545 LINE",
"400 492 LINE",
"364 541 OFFCURVE",
"313 570 OFFCURVE",
"245 570 CURVE SMOOTH",
"104 570 OFFCURVE",
"34 450 OFFCURVE",
"34 282 CURVE SMOOTH",
"34 202 OFFCURVE",
"49 134 OFFCURVE",
"78 83 CURVE",
"27 18 LINE",
"64 -15 LINE"
);
},
{
closed = 1;
nodes = (
"215 91 OFFCURVE",
"198 112 OFFCURVE",
"188 142 CURVE",
"315 303 LINE",
"315 282 LINE SMOOTH",
"315 212 OFFCURVE",
"313 91 OFFCURVE",
"244 91 CURVE SMOOTH"
);
},
{
closed = 1;
nodes = (
"175 234 OFFCURVE",
"175 260 OFFCURVE",
"175 282 CURVE SMOOTH",
"175 350 OFFCURVE",
"174 471 OFFCURVE",
"245 471 CURVE SMOOTH",
"286 471 OFFCURVE",
"304 427 OFFCURVE",
"310 377 CURVE",
"177 208 LINE"
);
}
);
width = 491;
}
);
unicode = 00F8;
},
{
color = 4;
glyphname = oe;
lastChange = "2016-07-29 15:34:05 +0000";
layers = (
{
layerId = "849A9C4C-BF7C-40C5-8614-1FD725A2A379";
paths = (
{
closed = 1;
nodes = (
"307 -13 OFFCURVE",
"353 17 OFFCURVE",
"386 64 CURVE",
"422 13 OFFCURVE",
"461 -13 OFFCURVE",
"523 -13 CURVE SMOOTH",
"623 -13 OFFCURVE",
"683 52 OFFCURVE",
"708 142 CURVE",
"602 182 LINE",
"596 170 OFFCURVE",
"567 90 OFFCURVE",
"523 90 CURVE SMOOTH",
"473 90 OFFCURVE",
"455 191 OFFCURVE",
"455 262 CURVE",
"724 262 LINE",
"724 274 OFFCURVE",
"724 283 OFFCURVE",
"724 294 CURVE SMOOTH",
"724 355 OFFCURVE",
"711 570 OFFCURVE",
"529 570 CURVE SMOOTH",
"467 570 OFFCURVE",
"426 545 OFFCURVE",
"387 487 CURVE",
"350 543 OFFCURVE",
"302 570 OFFCURVE",
"239 570 CURVE SMOOTH",
"107 570 OFFCURVE",
"34 451 OFFCURVE",
"34 280 CURVE SMOOTH",
"34 108 OFFCURVE",
"107 -13 OFFCURVE",
"241 -13 CURVE SMOOTH"
);
},
{
closed = 1;
nodes = (
"180 91 OFFCURVE",
"174 194 OFFCURVE",
"174 282 CURVE SMOOTH",
"174 362 OFFCURVE",
"179 471 OFFCURVE",
"244 471 CURVE SMOOTH",
"313 471 OFFCURVE",
"315 350 OFFCURVE",
"315 281 CURVE SMOOTH",
"315 212 OFFCURVE",
"313 91 OFFCURVE",
"244 91 CURVE SMOOTH"
);
},
{
closed = 1;
nodes = (
"455 413 OFFCURVE",
"485 473 OFFCURVE",
"528 473 CURVE SMOOTH",
"569 473 OFFCURVE",
"589 417 OFFCURVE",
"589 343 CURVE",
"455 343 LINE"
);
}
);
width = 751;
}
);
unicode = 0153;
},
{
color = 4;
glyphname = p;
lastChange = "2016-07-29 15:34:05 +0000";
layers = (
{
anchors = (
{
name = bottom;
position = "{252, -140}";
},
{
name = top;
position = "{252, 563}";
}
);
background = {
paths = (
{
closed = 1;
nodes = (
"201 -147 LINE",
"201 48 LINE",
"222 16 OFFCURVE",
"251 -13 OFFCURVE",
"310 -13 CURVE SMOOTH",
"495 -13 OFFCURVE",
"469 270 OFFCURVE",
"469 311 CURVE SMOOTH",
"467 410 OFFCURVE",
"464 570 OFFCURVE",
"327 570 CURVE SMOOTH",
"273 570 OFFCURVE",
"239 545 OFFCURVE",
"201 508 CURVE",
"201 563 LINE",
"61 551 LINE",
"61 -175 LINE"
);
},
{
closed = 1;
nodes = (
"227 94 OFFCURVE",
"210 119 OFFCURVE",
"201 139 CURVE",
"201 430 LINE",
"214 450 OFFCURVE",
"233 469 OFFCURVE",
"261 469 CURVE SMOOTH",
"305 469 OFFCURVE",
"328 421 OFFCURVE",
"328 280 CURVE SMOOTH",
"328 126 OFFCURVE",
"301 94 OFFCURVE",
"262 94 CURVE SMOOTH"
);
}
);
};
layerId = "849A9C4C-BF7C-40C5-8614-1FD725A2A379";
paths = (
{
closed = 1;
nodes = (
"201 -147 LINE",
"201 48 LINE",
"222 16 OFFCURVE",
"250 -13 OFFCURVE",
"312 -13 CURVE SMOOTH",
"445 -13 OFFCURVE",
"469 124 OFFCURVE",
"469 286 CURVE SMOOTH",
"469 488 OFFCURVE",
"432 570 OFFCURVE",
"329 570 CURVE SMOOTH",
"275 570 OFFCURVE",
"242 548 OFFCURVE",
"201 508 CURVE",
"201 563 LINE",
"61 551 LINE",
"61 -175 LINE"
);
},
{
closed = 1;
nodes = (
"227 94 OFFCURVE",
"210 119 OFFCURVE",
"201 139 CURVE",
"201 430 LINE",
"214 450 OFFCURVE",
"233 469 OFFCURVE",
"261 469 CURVE SMOOTH",
"305 469 OFFCURVE",
"328 421 OFFCURVE",
"328 280 CURVE SMOOTH",
"328 126 OFFCURVE",
"301 94 OFFCURVE",
"262 94 CURVE SMOOTH"
);
}
);
width = 505;
}
);
unicode = 0070;
},
{
color = 4;
glyphname = thorn;
lastChange = "2016-07-29 15:34:05 +0000";
layers = (
{
background = {
paths = (
{
closed = 1;
nodes = (
"202 -175 LINE",
"201 70 LINE",
"206 55 OFFCURVE",
"212 41 OFFCURVE",
"223 28 CURVE SMOOTH",
"240 7 OFFCURVE",
"270 -13 OFFCURVE",
"322 -13 CURVE SMOOTH",
"425 -13 OFFCURVE",
"483 78 OFFCURVE",
"483 281 CURVE SMOOTH",
"483 495 OFFCURVE",
"421 570 OFFCURVE",
"347 570 CURVE SMOOTH",
"298 570 OFFCURVE",
"244 538 OFFCURVE",
"201 491 CURVE",
"201 750 LINE",
"61 732 LINE",
"61 -175 LINE"
);
},
{
closed = 1;
nodes = (
"236 87 OFFCURVE",
"201 117 OFFCURVE",
"201 234 CURVE SMOOTH",
"201 412 LINE",
"212 418 OFFCURVE",
"224 425 OFFCURVE",
"235 431 CURVE SMOOTH",
"254 440 OFFCURVE",
"277 450 OFFCURVE",
"294 450 CURVE SMOOTH",
"340 450 OFFCURVE",
"343 376 OFFCURVE",
"343 281 CURVE SMOOTH",
"343 177 OFFCURVE",
"338 87 OFFCURVE",
"270 87 CURVE SMOOTH"
);
}
);
};
layerId = "849A9C4C-BF7C-40C5-8614-1FD725A2A379";
paths = (
{
closed = 1;
nodes = (
"201 -147 LINE",
"201 48 LINE",
"222 16 OFFCURVE",
"250 -13 OFFCURVE",
"313 -13 CURVE SMOOTH",
"449 -13 OFFCURVE",
"474 125 OFFCURVE",
"474 287 CURVE SMOOTH",
"474 487 OFFCURVE",
"436 570 OFFCURVE",
"329 570 CURVE SMOOTH",
"275 570 OFFCURVE",
"242 548 OFFCURVE",
"201 508 CURVE",
"201 750 LINE",
"61 732 LINE",
"61 -175 LINE"
);
},
{
closed = 1;
nodes = (
"227 94 OFFCURVE",
"210 119 OFFCURVE",
"201 139 CURVE",
"201 430 LINE",
"214 450 OFFCURVE",
"232 469 OFFCURVE",
"262 469 CURVE SMOOTH",
"309 469 OFFCURVE",
"333 420 OFFCURVE",
"333 280 CURVE SMOOTH",
"333 127 OFFCURVE",
"304 94 OFFCURVE",
"263 94 CURVE SMOOTH"
);
}
);
width = 511;
}
);
unicode = 00FE;
},
{
color = 4;
glyphname = q;
lastChange = "2016-07-29 15:34:05 +0000";
layers = (
{
anchors = (
{
name = bottom;
position = "{248, 0}";
},
{
name = top;
position = "{248, 563}";
}
);
layerId = "849A9C4C-BF7C-40C5-8614-1FD725A2A379";
paths = (
{
closed = 1;
nodes = (
"435 -157 LINE",
"435 563 LINE",
"299 551 LINE",
"294 508 LINE",
"271 544 OFFCURVE",
"239 570 OFFCURVE",
"186 570 CURVE SMOOTH",
"43 570 OFFCURVE",
"36 393 OFFCURVE",
"36 272 CURVE SMOOTH",
"36 174 OFFCURVE",
"41 -13 OFFCURVE",
"185 -13 CURVE SMOOTH",
"242 -13 OFFCURVE",
"273 16 OFFCURVE",
"294 48 CURVE",
"294 -175 LINE"
);
},
{
closed = 1;
nodes = (
"201 94 OFFCURVE",
"177 125 OFFCURVE",
"177 275 CURVE SMOOTH",
"177 421 OFFCURVE",
"200 469 OFFCURVE",
"242 469 CURVE SMOOTH",
"267 469 OFFCURVE",
"281 453 OFFCURVE",
"294 430 CURVE",
"294 139 LINE",
"284 117 OFFCURVE",
"265 94 OFFCURVE",
"235 94 CURVE SMOOTH"
);
}
);
width = 495;
}
);
unicode = 0071;
},
{
color = 4;
glyphname = r;
lastChange = "2016-07-29 15:34:05 +0000";
layers = (
{
anchors = (
{
name = bottom;
position = "{202, 0}";
},
{
name = top;
position = "{202, 563}";
}
);
layerId = "849A9C4C-BF7C-40C5-8614-1FD725A2A379";
paths = (
{
closed = 1;
nodes = (
"201 6 LINE",
"201 375 LINE",
"256 423 OFFCURVE",
"365 431 OFFCURVE",
"389 431 CURVE",
"389 568 LINE",
"289 568 OFFCURVE",
"235 521 OFFCURVE",
"201 472 CURVE",
"201 563 LINE",
"61 551 LINE",
"61 -6 LINE"
);
}
);
width = 404;
}
);
unicode = 0072;
},
{
color = 4;
glyphname = s;
lastChange = "2016-07-29 15:34:05 +0000";
layers = (
{
anchors = (
{
name = bottom;
position = "{226, 0}";
},
{
name = top;
position = "{226, 563}";
}
);
layerId = "849A9C4C-BF7C-40C5-8614-1FD725A2A379";
paths = (
{
closed = 1;
nodes = (
"325 -13 OFFCURVE",
"425 46 OFFCURVE",
"425 167 CURVE SMOOTH",
"425 259 OFFCURVE",
"375 303 OFFCURVE",
"312 332 CURVE",
"212 373 LINE SMOOTH",
"194 381 OFFCURVE",
"163 396 OFFCURVE",
"163 421 CURVE SMOOTH",
"163 453 OFFCURVE",
"194 466 OFFCURVE",
"224 466 CURVE SMOOTH",
"251 466 OFFCURVE",
"269 449 OFFCURVE",
"280 432 CURVE SMOOTH",
"286 422 OFFCURVE",
"291 411 OFFCURVE",
"294 398 CURVE",
"410 434 LINE",
"385 521 OFFCURVE",
"304 570 OFFCURVE",
"223 570 CURVE SMOOTH",
"125 570 OFFCURVE",
"33 509 OFFCURVE",
"33 397 CURVE SMOOTH",
"33 319 OFFCURVE",
"67 265 OFFCURVE",
"130 239 CURVE SMOOTH",
"248 191 LINE SMOOTH",
"271 182 OFFCURVE",
"291 167 OFFCURVE",
"291 143 CURVE SMOOTH",
"291 108 OFFCURVE",
"246 98 OFFCURVE",
"220 98 CURVE SMOOTH",
"185 98 OFFCURVE",
"165 114 OFFCURVE",
"153 131 CURVE",
"146 141 OFFCURVE",
"141 152 OFFCURVE",
"138 165 CURVE",
"29 129 LINE",
"49 42 OFFCURVE",
"115 -13 OFFCURVE",
"229 -13 CURVE SMOOTH"
);
}
);
width = 451;
}
);
unicode = 0073;
},
{
color = 4;
glyphname = germandbls;
lastChange = "2016-07-29 15:34:05 +0000";
layers = (
{
layerId = "849A9C4C-BF7C-40C5-8614-1FD725A2A379";
paths = (
{
closed = 1;
nodes = (
"202 0 LINE",
"202 542 LINE SMOOTH",
"202 629 OFFCURVE",
"241 657 OFFCURVE",
"285 657 CURVE SMOOTH",
"342 657 OFFCURVE",
"367 610 OFFCURVE",
"367 568 CURVE SMOOTH",
"367 523 OFFCURVE",
"339 468 OFFCURVE",
"269 444 CURVE",
"269 363 LINE",
"357 363 OFFCURVE",
"408 288 OFFCURVE",
"408 226 CURVE SMOOTH",
"408 168 OFFCURVE",
"365 103 OFFCURVE",
"264 103 CURVE",
"264 1 LINE",
"407 6 OFFCURVE",
"550 54 OFFCURVE",
"550 228 CURVE SMOOTH",
"550 347 OFFCURVE",
"483 396 OFFCURVE",
"397 425 CURVE",
"467 472 OFFCURVE",
"488 525 OFFCURVE",
"488 581 CURVE SMOOTH",
"488 690 OFFCURVE",
"408 766 OFFCURVE",
"279 766 CURVE SMOOTH",
"204 766 OFFCURVE",
"61 740 OFFCURVE",
"61 516 CURVE SMOOTH",
"61 -12 LINE"
);
}
);
width = 571;
}
);
unicode = 00DF;
},
{
color = 4;
glyphname = schwa;
lastChange = "2016-07-29 15:34:05 +0000";
layers = (
{
layerId = "849A9C4C-BF7C-40C5-8614-1FD725A2A379";
paths = (
{
closed = 1;
nodes = (
"368 -16 OFFCURVE",
"437 106 OFFCURVE",
"437 278 CURVE SMOOTH",
"437 449 OFFCURVE",
"369 570 OFFCURVE",
"230 570 CURVE SMOOTH",
"129 570 OFFCURVE",
"70 506 OFFCURVE",
"44 415 CURVE",
"150 375 LINE",
"156 386 OFFCURVE",
"185 466 OFFCURVE",
"229 466 CURVE SMOOTH",
"279 466 OFFCURVE",
"297 366 OFFCURVE",
"297 295 CURVE",
"28 295 LINE",
"27 286 OFFCURVE",
"26 270 OFFCURVE",
"26 247 CURVE SMOOTH",
"26 157 OFFCURVE",
"50 -16 OFFCURVE",
"223 -16 CURVE SMOOTH"
);
},
{
closed = 1;
nodes = (
"183 81 OFFCURVE",
"163 139 OFFCURVE",
"163 214 CURVE",
"297 214 LINE",
"297 144 OFFCURVE",
"267 81 OFFCURVE",
"224 81 CURVE SMOOTH"
);
}
);
width = 471;
}
);
unicode = 0259;
},
{
color = 4;
glyphname = t;
lastChange = "2016-07-29 15:34:05 +0000";
layers = (
{
anchors = (
{
name = bottom;
position = "{239, 0}";
},
{
name = center;
position = "{180, 281}";
},
{
name = top;
position = "{180, 563}";
},
{
name = topright;
position = "{351, 563}";
}
);
layerId = "849A9C4C-BF7C-40C5-8614-1FD725A2A379";
paths = (
{
closed = 1;
nodes = (
"292 -11 OFFCURVE",
"328 -3 OFFCURVE",
"345 0 CURVE",
"345 97 LINE",
"326 94 OFFCURVE",
"306 91 OFFCURVE",
"291 91 CURVE SMOOTH",
"254 91 OFFCURVE",
"232 105 OFFCURVE",
"232 147 CURVE SMOOTH",
"232 457 LINE",
"341 457 LINE",
"347 563 LINE",
"231 563 LINE",
"231 702 LINE",
"109 685 LINE",
"95 563 LINE",
"19 563 LINE",
"13 457 LINE",
"91 457 LINE",
"91 146 LINE SMOOTH",
"91 16 OFFCURVE",
"179 -11 OFFCURVE",
"253 -11 CURVE SMOOTH"
);
}
);
width = 360;
}
);
unicode = 0074;
},
{
color = 4;
glyphname = tbar;
lastChange = "2016-07-29 15:34:05 +0000";
layers = (
{
background = {
paths = (
{
closed = 1;
nodes = (
"270 -13 OFFCURVE",
"296 -10 OFFCURVE",
"314 -6 CURVE SMOOTH",
"324 -4 OFFCURVE",
"333 -2 OFFCURVE",
"340 0 CURVE",
"340 97 LINE",
"330 95 LINE SMOOTH",
"324 94 OFFCURVE",
"315 94 OFFCURVE",
"305 94 CURVE SMOOTH",
"274 94 OFFCURVE",
"233 102 OFFCURVE",
"233 147 CURVE SMOOTH",
"233 457 LINE",
"342 457 LINE",
"348 563 LINE",
"233 563 LINE",
"233 702 LINE",
"111 685 LINE",
"97 563 LINE",
"20 563 LINE",
"14 457 LINE",
"93 457 LINE",
"93 119 LINE SMOOTH",
"93 19 OFFCURVE",
"172 -13 OFFCURVE",
"233 -13 CURVE SMOOTH"
);
},
{
closed = 1;
nodes = (
"310 282 LINE",
"310 375 LINE",
"28 375 LINE",
"28 282 LINE"
);
}
);
};
components = (
{
name = t;
}
);
layerId = "849A9C4C-BF7C-40C5-8614-1FD725A2A379";
paths = (
{
closed = 1;
nodes = (
"310 282 LINE",
"310 375 LINE",
"28 375 LINE",
"28 282 LINE"
);
}
);
width = 358;
}
);
unicode = 0167;
},
{
color = 4;
glyphname = u;
lastChange = "2016-07-29 15:34:05 +0000";
layers = (
{
anchors = (
{
name = bottom;
position = "{270, 0}";
},
{
name = ogonek;
position = "{524, 5}";
},
{
name = top;
position = "{270, 563}";
},
{
name = topright;
position = "{529, 563}";
}
);
layerId = "849A9C4C-BF7C-40C5-8614-1FD725A2A379";
paths = (
{
closed = 1;
nodes = (
"229 -13 OFFCURVE",
"289 10 OFFCURVE",
"338 66 CURVE",
"338 -6 LINE",
"479 6 LINE",
"479 563 LINE",
"338 551 LINE",
"338 155 LINE",
"310 122 OFFCURVE",
"275 111 OFFCURVE",
"250 111 CURVE SMOOTH",
"215 111 OFFCURVE",
"197 131 OFFCURVE",
"197 186 CURVE SMOOTH",
"197 563 LINE",
"57 551 LINE",
"57 129 LINE SMOOTH",
"57 42 OFFCURVE",
"109 -13 OFFCURVE",
"182 -13 CURVE SMOOTH"
);
}
);
width = 539;
}
);
unicode = 0075;
},
{
color = 4;
glyphname = v;
lastChange = "2016-07-29 15:34:05 +0000";
layers = (
{
anchors = (
{
name = bottom;
position = "{228, 0}";
},
{
name = top;
position = "{228, 563}";
}
);
layerId = "849A9C4C-BF7C-40C5-8614-1FD725A2A379";
paths = (
{
closed = 1;
nodes = (
"290 0 LINE",
"451 557 LINE",
"324 545 LINE",
"243 203 LINE",
"172 563 LINE",
"4 551 LINE",
"161 0 LINE"
);
}
);
width = 455;
}
);
unicode = 0076;
},
{
color = 4;
glyphname = w;
lastChange = "2016-07-29 15:34:05 +0000";
layers = (
{
anchors = (
{
name = bottom;
position = "{321, 0}";
},
{
name = top;
position = "{321, 563}";
}
);
layerId = "849A9C4C-BF7C-40C5-8614-1FD725A2A379";
paths = (
{
closed = 1;
nodes = (
"248 0 LINE",
"327 365 LINE",
"391 0 LINE",
"504 0 LINE",
"633 557 LINE",
"519 551 LINE",
"458 248 LINE",
"397 563 LINE",
"280 551 LINE",
"209 244 LINE",
"161 563 LINE",
"18 552 LINE",
"133 0 LINE"
);
}
);
width = 642;
}
);
unicode = 0077;
},
{
color = 4;
glyphname = x;
lastChange = "2016-07-29 15:34:05 +0000";
layers = (
{
anchors = (
{
name = bottom;
position = "{230, 0}";
},
{
name = top;
position = "{230, 563}";
}
);
layerId = "849A9C4C-BF7C-40C5-8614-1FD725A2A379";
paths = (
{
closed = 1;
nodes = (
"462 6 LINE",
"300 310 LINE",
"436 563 LINE",
"303 563 LINE",
"231 425 LINE",
"164 563 LINE",
"10 563 LINE",
"157 283 LINE",
"5 0 LINE",
"139 0 LINE",
"225 166 LINE",
"308 -6 LINE"
);
}
);
width = 459;
}
);
unicode = 0078;
},
{
color = 4;
glyphname = y;
lastChange = "2016-07-29 15:34:05 +0000";
layers = (
{
anchors = (
{
name = bottom;
position = "{215, -160}";
},
{
name = top;
position = "{220, 563}";
}
);
layerId = "849A9C4C-BF7C-40C5-8614-1FD725A2A379";
paths = (
{
closed = 1;
nodes = (
"150 -178 OFFCURVE",
"245 -150 OFFCURVE",
"290 10 CURVE",
"434 561 LINE",
"307 560 LINE",
"232 210 LINE",
"153 563 LINE",
"1 556 LINE",
"162 53 LINE",
"162 25 LINE SMOOTH",
"162 -25 OFFCURVE",
"137 -57 OFFCURVE",
"74 -57 CURVE SMOOTH",
"66 -57 OFFCURVE",
"52 -57 OFFCURVE",
"15 -55 CURVE",
"15 -172 LINE",
"44 -177 OFFCURVE",
"57 -178 OFFCURVE",
"74 -178 CURVE SMOOTH"
);
}
);
width = 440;
}
);
unicode = 0079;
},
{
color = 4;
glyphname = z;
lastChange = "2016-07-29 15:34:05 +0000";
layers = (
{
anchors = (
{
name = bottom;
position = "{212, 0}";
},
{
name = top;
position = "{236, 563}";
}
);
layerId = "849A9C4C-BF7C-40C5-8614-1FD725A2A379";
paths = (
{
closed = 1;
nodes = (
"392 0 LINE",
"404 111 LINE",
"203 111 LINE",
"389 479 LINE",
"389 563 LINE",
"64 563 LINE",
"52 453 LINE",
"233 453 LINE",
"44 88 LINE",
"44 0 LINE"
);
}
);
width = 425;
}
);
unicode = 007A;
},
{
color = 4;
glyphname = f_f;
lastChange = "2016-07-29 15:34:05 +0000";
layers = (
{
layerId = "849A9C4C-BF7C-40C5-8614-1FD725A2A379";
paths = (
{
closed = 1;
nodes = (
"595 6 LINE",
"595 457 LINE",
"688 457 LINE",
"694 563 LINE",
"595 563 LINE",
"595 573 LINE SMOOTH",
"595 614 OFFCURVE",
"600 656 OFFCURVE",
"658 656 CURVE SMOOTH",
"689 656 LINE",
"689 740 LINE",
"683 743 OFFCURVE",
"676 745 OFFCURVE",
"667 748 CURVE SMOOTH",
"652 751 OFFCURVE",
"628 755 OFFCURVE",
"594 755 CURVE SMOOTH",
"458 755 OFFCURVE",
"454 664 OFFCURVE",
"454 573 CURVE SMOOTH",
"454 563 LINE",
"391 563 LINE",
"385 457 LINE",
"454 457 LINE",
"454 -6 LINE"
);
},
{
closed = 1;
nodes = (
"227 6 LINE",
"227 457 LINE",
"320 457 LINE",
"326 563 LINE",
"227 563 LINE",
"227 573 LINE SMOOTH",
"227 614 OFFCURVE",
"231 656 OFFCURVE",
"290 656 CURVE SMOOTH",
"321 656 LINE",
"321 740 LINE",
"315 743 OFFCURVE",
"308 745 OFFCURVE",
"299 748 CURVE SMOOTH",
"284 751 OFFCURVE",
"260 755 OFFCURVE",
"226 755 CURVE SMOOTH",
"90 755 OFFCURVE",
"86 664 OFFCURVE",
"86 573 CURVE SMOOTH",
"86 563 LINE",
"22 563 LINE",
"17 457 LINE",
"86 457 LINE",
"86 -6 LINE"
);
}
);
width = 706;
}
);
},
{
color = 4;
glyphname = f_f_i;
lastChange = "2016-07-29 15:34:05 +0000";
layers = (
{
anchors = (
{
name = caret_1;
position = "{341, 0}";
},
{
name = caret_2;
position = "{682, 0}";
}
);
layerId = "849A9C4C-BF7C-40C5-8614-1FD725A2A379";
paths = (
{
closed = 1;
nodes = (
"595 6 LINE",
"595 457 LINE",
"688 457 LINE",
"694 563 LINE",
"595 563 LINE",
"595 573 LINE SMOOTH",
"595 614 OFFCURVE",
"600 656 OFFCURVE",
"658 656 CURVE SMOOTH",
"689 656 LINE",
"689 740 LINE",
"683 743 OFFCURVE",
"676 745 OFFCURVE",
"667 748 CURVE SMOOTH",
"652 751 OFFCURVE",
"628 755 OFFCURVE",
"594 755 CURVE SMOOTH",
"458 755 OFFCURVE",
"454 664 OFFCURVE",
"454 573 CURVE SMOOTH",
"454 563 LINE",
"391 563 LINE",
"385 457 LINE",
"454 457 LINE",
"454 -6 LINE"
);
},
{
closed = 1;
nodes = (
"227 6 LINE",
"227 457 LINE",
"320 457 LINE",
"326 563 LINE",
"227 563 LINE",
"227 573 LINE SMOOTH",
"227 614 OFFCURVE",
"231 656 OFFCURVE",
"290 656 CURVE SMOOTH",
"321 656 LINE",
"321 740 LINE",
"315 743 OFFCURVE",
"308 745 OFFCURVE",
"299 748 CURVE SMOOTH",
"284 751 OFFCURVE",
"260 755 OFFCURVE",
"226 755 CURVE SMOOTH",
"90 755 OFFCURVE",
"86 664 OFFCURVE",
"86 573 CURVE SMOOTH",
"86 563 LINE",
"22 563 LINE",
"17 457 LINE",
"86 457 LINE",
"86 -6 LINE"
);
},
{
closed = 1;
nodes = (
"962 6 LINE",
"962 563 LINE",
"822 551 LINE",
"822 -6 LINE"
);
},
{
closed = 1;
nodes = (
"962 641 LINE",
"962 781 LINE",
"822 780 LINE",
"822 635 LINE"
);
}
);
width = 1023;
}
);
},
{
color = 4;
glyphname = f_f_l;
lastChange = "2016-07-29 15:34:05 +0000";
layers = (
{
layerId = "849A9C4C-BF7C-40C5-8614-1FD725A2A379";
paths = (
{
closed = 1;
nodes = (
"595 6 LINE",
"595 457 LINE",
"688 457 LINE",
"694 563 LINE",
"595 563 LINE",
"595 573 LINE SMOOTH",
"595 614 OFFCURVE",
"600 656 OFFCURVE",
"658 656 CURVE SMOOTH",
"689 656 LINE",
"689 740 LINE",
"683 743 OFFCURVE",
"676 745 OFFCURVE",
"667 748 CURVE SMOOTH",
"652 751 OFFCURVE",
"628 755 OFFCURVE",
"594 755 CURVE SMOOTH",
"458 755 OFFCURVE",
"454 664 OFFCURVE",
"454 573 CURVE SMOOTH",
"454 563 LINE",
"391 563 LINE",
"385 457 LINE",
"454 457 LINE",
"454 -6 LINE"
);
},
{
closed = 1;
nodes = (
"227 6 LINE",
"227 457 LINE",
"320 457 LINE",
"326 563 LINE",
"227 563 LINE",
"227 573 LINE SMOOTH",
"227 614 OFFCURVE",
"231 656 OFFCURVE",
"290 656 CURVE SMOOTH",
"321 656 LINE",
"321 740 LINE",
"315 743 OFFCURVE",
"308 745 OFFCURVE",
"299 748 CURVE SMOOTH",
"284 751 OFFCURVE",
"260 755 OFFCURVE",
"226 755 CURVE SMOOTH",
"90 755 OFFCURVE",
"86 664 OFFCURVE",
"86 573 CURVE SMOOTH",
"86 563 LINE",
"22 563 LINE",
"17 457 LINE",
"86 457 LINE",
"86 -6 LINE"
);
},
{
closed = 1;
nodes = (
"962 6 LINE",
"962 750 LINE",
"821 732 LINE",
"821 -6 LINE"
);
}
);
width = 1022;
}
);
},
{
color = 4;
glyphname = fi;
lastChange = "2016-07-29 15:34:05 +0000";
layers = (
{
anchors = (
{
name = caret_1;
position = "{314, 0}";
}
);
layerId = "849A9C4C-BF7C-40C5-8614-1FD725A2A379";
paths = (
{
closed = 1;
nodes = (
"227 6 LINE",
"227 447 LINE",
"427 447 LINE",
"427 -6 LINE",
"568 6 LINE",
"568 563 LINE",
"227 563 LINE",
"227 573 LINE SMOOTH",
"227 614 OFFCURVE",
"232 656 OFFCURVE",
"291 656 CURVE SMOOTH",
"321 656 LINE",
"321 740 LINE",
"315 743 OFFCURVE",
"308 745 OFFCURVE",
"299 748 CURVE SMOOTH",
"284 751 OFFCURVE",
"261 755 OFFCURVE",
"226 755 CURVE SMOOTH",
"90 755 OFFCURVE",
"86 664 OFFCURVE",
"86 573 CURVE SMOOTH",
"86 563 LINE",
"29 563 LINE",
"17 448 LINE",
"86 448 LINE",
"86 -6 LINE"
);
},
{
closed = 1;
nodes = (
"568 635 LINE",
"568 781 LINE",
"427 781 LINE",
"427 629 LINE"
);
}
);
width = 628;
}
);
unicode = FB01;
},
{
color = 4;
glyphname = fl;
lastChange = "2016-07-29 15:34:05 +0000";
layers = (
{
layerId = "849A9C4C-BF7C-40C5-8614-1FD725A2A379";
paths = (
{
closed = 1;
nodes = (
"227 6 LINE",
"227 447 LINE",
"309 447 LINE",
"320 563 LINE",
"227 563 LINE",
"227 573 LINE SMOOTH",
"227 614 OFFCURVE",
"229 656 OFFCURVE",
"271 656 CURVE SMOOTH",
"427 656 LINE",
"427 -6 LINE",
"568 6 LINE",
"568 750 LINE",
"275 750 LINE SMOOTH",
"90 750 OFFCURVE",
"86 664 OFFCURVE",
"86 573 CURVE SMOOTH",
"86 563 LINE",
"29 563 LINE",
"17 448 LINE",
"86 448 LINE",
"86 -6 LINE"
);
}
);
width = 628;
}
);
unicode = FB02;
},
{
color = 4;
glyphname = ordfeminine;
lastChange = "2016-07-29 15:34:05 +0000";
layers = (
{
layerId = "849A9C4C-BF7C-40C5-8614-1FD725A2A379";
paths = (
{
closed = 1;
nodes = (
"163 141 OFFCURVE",
"203 167 OFFCURVE",
"218 197 CURVE",
"229 146 LINE",
"330 155 LINE",
"326 168 OFFCURVE",
"319 203 OFFCURVE",
"319 229 CURVE SMOOTH",
"319 443 LINE SMOOTH",
"319 514 OFFCURVE",
"280 570 OFFCURVE",
"186 570 CURVE SMOOTH",
"126 570 OFFCURVE",
"58 547 OFFCURVE",
"48 465 CURVE",
"148 447 LINE",
"151 471 OFFCURVE",
"162 494 OFFCURVE",
"185 494 CURVE SMOOTH",
"215 494 OFFCURVE",
"216 455 OFFCURVE",
"216 417 CURVE",
"141 411 OFFCURVE",
"33 386 OFFCURVE",
"33 267 CURVE SMOOTH",
"33 195 OFFCURVE",
"72 141 OFFCURVE",
"125 141 CURVE SMOOTH"
);
},
{
closed = 1;
nodes = (
"148 215 OFFCURVE",
"135 236 OFFCURVE",
"135 272 CURVE SMOOTH",
"135 332 OFFCURVE",
"169 354 OFFCURVE",
"216 354 CURVE",
"216 239 LINE",
"207 229 OFFCURVE",
"193 215 OFFCURVE",
"173 215 CURVE SMOOTH"
);
}
);
width = 378;
}
);
unicode = 00AA;
},
{
color = 4;
glyphname = ordmasculine;
lastChange = "2016-07-29 15:34:05 +0000";
layers = (
{
layerId = "849A9C4C-BF7C-40C5-8614-1FD725A2A379";
paths = (
{
closed = 1;
nodes = (
"357 177 OFFCURVE",
"424 259 OFFCURVE",
"424 374 CURVE SMOOTH",
"424 487 OFFCURVE",
"358 570 OFFCURVE",
"231 570 CURVE SMOOTH",
"105 570 OFFCURVE",
"41 487 OFFCURVE",
"41 374 CURVE SMOOTH",
"41 259 OFFCURVE",
"106 177 OFFCURVE",
"231 177 CURVE SMOOTH"
);
},
{
closed = 1;
nodes = (
"186 272 OFFCURVE",
"162 326 OFFCURVE",
"162 377 CURVE SMOOTH",
"162 429 OFFCURVE",
"185 480 OFFCURVE",
"232 480 CURVE SMOOTH",
"279 480 OFFCURVE",
"302 428 OFFCURVE",
"302 376 CURVE SMOOTH",
"302 323 OFFCURVE",
"278 272 OFFCURVE",
"232 272 CURVE SMOOTH"
);
}
);
width = 464;
}
);
unicode = 00BA;
},
{
color = 4;
glyphname = zero;
lastChange = "2016-07-29 15:34:05 +0000";
layers = (
{
layerId = "849A9C4C-BF7C-40C5-8614-1FD725A2A379";
paths = (
{
closed = 1;
nodes = (
"471 -14 OFFCURVE",
"509 207 OFFCURVE",
"509 378 CURVE SMOOTH",
"509 546 OFFCURVE",
"472 764 OFFCURVE",
"277 764 CURVE SMOOTH",
"82 764 OFFCURVE",
"47 546 OFFCURVE",
"47 377 CURVE SMOOTH",
"47 207 OFFCURVE",
"83 -14 OFFCURVE",
"277 -14 CURVE SMOOTH"
);
},
{
closed = 1;
nodes = (
"215 104 OFFCURVE",
"188 155 OFFCURVE",
"188 415 CURVE SMOOTH",
"188 531 OFFCURVE",
"194 646 OFFCURVE",
"277 646 CURVE SMOOTH",
"360 646 OFFCURVE",
"368 532 OFFCURVE",
"368 403 CURVE SMOOTH",
"368 150 OFFCURVE",
"336 104 OFFCURVE",
"277 104 CURVE SMOOTH"
);
}
);
width = 556;
}
);
unicode = 0030;
},
{
color = 4;
glyphname = one;
lastChange = "2016-07-29 15:34:05 +0000";
layers = (
{
layerId = "849A9C4C-BF7C-40C5-8614-1FD725A2A379";
paths = (
{
closed = 1;
nodes = (
"405 0 LINE",
"411 123 LINE",
"313 123 LINE",
"313 750 LINE",
"241 750 LINE",
"70 650 LINE",
"70 545 LINE",
"173 567 LINE",
"173 123 LINE",
"77 123 LINE",
"77 0 LINE"
);
}
);
width = 454;
}
);
unicode = 0031;
},
{
color = 4;
glyphname = two;
lastChange = "2016-07-29 15:34:05 +0000";
layers = (
{
layerId = "849A9C4C-BF7C-40C5-8614-1FD725A2A379";
paths = (
{
closed = 1;
nodes = (
"467 0 LINE",
"479 123 LINE",
"220 123 LINE",
"342 241 OFFCURVE",
"485 400 OFFCURVE",
"485 560 CURVE SMOOTH",
"485 679 OFFCURVE",
"396 764 OFFCURVE",
"269 764 CURVE SMOOTH",
"141 764 OFFCURVE",
"62 665 OFFCURVE",
"42 561 CURVE",
"162 522 LINE",
"172 587 OFFCURVE",
"213 646 OFFCURVE",
"266 646 CURVE SMOOTH",
"321 646 OFFCURVE",
"343 597 OFFCURVE",
"343 562 CURVE SMOOTH",
"343 408 OFFCURVE",
"169 253 OFFCURVE",
"58 109 CURVE",
"58 0 LINE"
);
}
);
width = 521;
}
);
unicode = 0032;
},
{
color = 4;
glyphname = three;
lastChange = "2016-07-29 15:34:05 +0000";
layers = (
{
layerId = "849A9C4C-BF7C-40C5-8614-1FD725A2A379";
paths = (
{
closed = 1;
nodes = (
"365 -14 OFFCURVE",
"472 62 OFFCURVE",
"472 201 CURVE SMOOTH",
"472 301 OFFCURVE",
"418 369 OFFCURVE",
"336 395 CURVE",
"420 423 OFFCURVE",
"462 487 OFFCURVE",
"462 572 CURVE SMOOTH",
"462 697 OFFCURVE",
"358 764 OFFCURVE",
"256 764 CURVE SMOOTH",
"161 764 OFFCURVE",
"86 728 OFFCURVE",
"41 632 CURVE",
"141 575 LINE",
"159 624 OFFCURVE",
"199 647 OFFCURVE",
"236 647 CURVE SMOOTH",
"279 647 OFFCURVE",
"320 617 OFFCURVE",
"320 561 CURVE SMOOTH",
"320 560 LINE SMOOTH",
"319 472 OFFCURVE",
"252 433 OFFCURVE",
"172 433 CURVE",
"172 335 LINE",
"259 335 OFFCURVE",
"331 319 OFFCURVE",
"331 215 CURVE SMOOTH",
"331 137 OFFCURVE",
"289 104 OFFCURVE",
"243 104 CURVE SMOOTH",
"195 104 OFFCURVE",
"154 125 OFFCURVE",
"130 193 CURVE",
"23 146 LINE",
"51 35 OFFCURVE",
"146 -14 OFFCURVE",
"250 -14 CURVE SMOOTH"
);
}
);
width = 521;
}
);
unicode = 0033;
},
{
color = 4;
glyphname = four;
lastChange = "2016-07-29 15:34:05 +0000";
layers = (
{
layerId = "849A9C4C-BF7C-40C5-8614-1FD725A2A379";
paths = (
{
closed = 1;
nodes = (
"416 6 LINE",
"416 188 LINE",
"498 188 LINE",
"510 300 LINE",
"416 300 LINE",
"416 750 LINE",
"269 750 LINE",
"24 300 LINE",
"24 188 LINE",
"275 188 LINE",
"275 -6 LINE"
);
},
{
closed = 1;
nodes = (
"275 563 LINE",
"275 300 LINE",
"141 300 LINE"
);
}
);
width = 521;
}
);
unicode = 0034;
},
{
color = 4;
glyphname = five;
lastChange = "2016-07-29 15:34:05 +0000";
layers = (
{
layerId = "849A9C4C-BF7C-40C5-8614-1FD725A2A379";
paths = (
{
closed = 1;
nodes = (
"402 -14 OFFCURVE",
"497 95 OFFCURVE",
"497 243 CURVE SMOOTH",
"497 370 OFFCURVE",
"415 478 OFFCURVE",
"302 478 CURVE SMOOTH",
"259 478 OFFCURVE",
"224 467 OFFCURVE",
"200 458 CURVE",
"223 633 LINE",
"450 633 LINE",
"462 750 LINE",
"113 750 LINE",
"71 346 LINE",
"171 313 LINE",
"194 347 OFFCURVE",
"226 362 OFFCURVE",
"256 362 CURVE SMOOTH",
"330 362 OFFCURVE",
"362 298 OFFCURVE",
"362 234 CURVE SMOOTH",
"362 169 OFFCURVE",
"329 104 OFFCURVE",
"269 104 CURVE SMOOTH",
"209 104 OFFCURVE",
"169 158 OFFCURVE",
"161 206 CURVE",
"48 164 LINE",
"73 46 OFFCURVE",
"172 -14 OFFCURVE",
"272 -14 CURVE SMOOTH"
);
}
);
width = 521;
}
);
unicode = 0035;
},
{
color = 4;
glyphname = six;
lastChange = "2016-07-29 15:34:05 +0000";
layers = (
{
layerId = "849A9C4C-BF7C-40C5-8614-1FD725A2A379";
paths = (
{
closed = 1;
nodes = (
"399 -14 OFFCURVE",
"480 118 OFFCURVE",
"480 245 CURVE SMOOTH",
"480 359 OFFCURVE",
"416 456 OFFCURVE",
"312 456 CURVE SMOOTH",
"271 456 OFFCURVE",
"228 440 OFFCURVE",
"197 417 CURVE",
"197 498 OFFCURVE",
"204 646 OFFCURVE",
"285 646 CURVE SMOOTH",
"336 646 OFFCURVE",
"344 587 OFFCURVE",
"351 557 CURVE",
"460 582 LINE",
"444 698 OFFCURVE",
"379 764 OFFCURVE",
"289 764 CURVE SMOOTH",
"134 764 OFFCURVE",
"54 572 OFFCURVE",
"54 354 CURVE SMOOTH",
"54 212 OFFCURVE",
"88 -14 OFFCURVE",
"265 -14 CURVE SMOOTH"
);
},
{
closed = 1;
nodes = (
"217 104 OFFCURVE",
"196 155 OFFCURVE",
"196 261 CURVE SMOOTH",
"196 277 OFFCURVE",
"197 296 OFFCURVE",
"198 315 CURVE",
"227 332 OFFCURVE",
"245 337 OFFCURVE",
"264 337 CURVE SMOOTH",
"322 337 OFFCURVE",
"342 282 OFFCURVE",
"342 227 CURVE SMOOTH",
"342 178 OFFCURVE",
"327 104 OFFCURVE",
"267 104 CURVE SMOOTH"
);
}
);
width = 521;
}
);
unicode = 0036;
},
{
color = 4;
glyphname = seven;
lastChange = "2016-07-29 15:34:05 +0000";
layers = (
{
layerId = "849A9C4C-BF7C-40C5-8614-1FD725A2A379";
paths = (
{
closed = 1;
nodes = (
"291 0 LINE",
"291 187 OFFCURVE",
"360 422 OFFCURVE",
"474 646 CURVE",
"474 750 LINE",
"69 750 LINE",
"58 629 LINE",
"302 629 LINE",
"208 404 OFFCURVE",
"146 197 OFFCURVE",
"129 0 CURVE"
);
}
);
width = 521;
}
);
unicode = 0037;
},
{
color = 4;
glyphname = eight;
lastChange = "2016-07-29 15:34:05 +0000";
layers = (
{
layerId = "849A9C4C-BF7C-40C5-8614-1FD725A2A379";
paths = (
{
closed = 1;
nodes = (
"380 -14 OFFCURVE",
"485 72 OFFCURVE",
"485 210 CURVE SMOOTH",
"485 318 OFFCURVE",
"421 368 OFFCURVE",
"338 419 CURVE",
"339 404 LINE",
"404 440 OFFCURVE",
"458 501 OFFCURVE",
"458 586 CURVE SMOOTH",
"458 696 OFFCURVE",
"369 764 OFFCURVE",
"265 764 CURVE SMOOTH",
"149 764 OFFCURVE",
"58 681 OFFCURVE",
"58 556 CURVE SMOOTH",
"58 474 OFFCURVE",
"97 418 OFFCURVE",
"176 376 CURVE",
"174 391 LINE",
"96 352 OFFCURVE",
"36 283 OFFCURVE",
"36 184 CURVE SMOOTH",
"36 50 OFFCURVE",
"146 -14 OFFCURVE",
"255 -14 CURVE SMOOTH"
);
},
{
closed = 1;
nodes = (
"208 104 OFFCURVE",
"177 132 OFFCURVE",
"177 199 CURVE SMOOTH",
"177 269 OFFCURVE",
"210 309 OFFCURVE",
"251 337 CURVE",
"228 335 LINE",
"287 310 OFFCURVE",
"345 267 OFFCURVE",
"345 189 CURVE SMOOTH",
"345 125 OFFCURVE",
"306 104 OFFCURVE",
"260 104 CURVE SMOOTH"
);
},
{
closed = 1;
nodes = (
"276 456 LINE",
"242 474 OFFCURVE",
"189 516 OFFCURVE",
"189 574 CURVE SMOOTH",
"189 620 OFFCURVE",
"222 646 OFFCURVE",
"265 646 CURVE SMOOTH",
"312 646 OFFCURVE",
"339 616 OFFCURVE",
"339 572 CURVE SMOOTH",
"339 516 OFFCURVE",
"296 479 OFFCURVE",
"254 454 CURVE"
);
}
);
width = 521;
}
);
unicode = 0038;
},
{
color = 4;
glyphname = nine;
lastChange = "2016-07-29 15:34:05 +0000";
layers = (
{
layerId = "849A9C4C-BF7C-40C5-8614-1FD725A2A379";
paths = (
{
closed = 1;
nodes = (
"383 -14 OFFCURVE",
"473 152 OFFCURVE",
"473 388 CURVE SMOOTH",
"473 533 OFFCURVE",
"439 764 OFFCURVE",
"260 764 CURVE SMOOTH",
"133 764 OFFCURVE",
"49 649 OFFCURVE",
"49 514 CURVE SMOOTH",
"49 398 OFFCURVE",
"112 286 OFFCURVE",
"217 286 CURVE SMOOTH",
"255 286 OFFCURVE",
"300 301 OFFCURVE",
"331 324 CURVE",
"329 219 OFFCURVE",
"318 104 OFFCURVE",
"244 104 CURVE SMOOTH",
"192 104 OFFCURVE",
"184 159 OFFCURVE",
"177 194 CURVE",
"67 168 LINE",
"84 50 OFFCURVE",
"150 -14 OFFCURVE",
"239 -14 CURVE SMOOTH"
);
},
{
closed = 1;
nodes = (
"207 404 OFFCURVE",
"189 463 OFFCURVE",
"189 518 CURVE SMOOTH",
"189 569 OFFCURVE",
"205 646 OFFCURVE",
"262 646 CURVE SMOOTH",
"324 646 OFFCURVE",
"333 554 OFFCURVE",
"333 476 CURVE SMOOTH",
"333 458 OFFCURVE",
"333 445 OFFCURVE",
"331 426 CURVE",
"314 415 OFFCURVE",
"293 404 OFFCURVE",
"267 404 CURVE SMOOTH"
);
}
);
width = 521;
}
);
unicode = 0039;
},
{
color = 4;
glyphname = onesuperior;
lastChange = "2016-07-29 15:34:05 +0000";
layers = (
{
layerId = "849A9C4C-BF7C-40C5-8614-1FD725A2A379";
paths = (
{
closed = 1;
nodes = (
"341 281 LINE",
"347 375 LINE",
"255 375 LINE",
"255 750 LINE",
"206 750 LINE",
"44 650 LINE",
"44 581 LINE",
"57 581 LINE SMOOTH",
"70 581 OFFCURVE",
"91 583 OFFCURVE",
"108 585 CURVE SMOOTH",
"138 589 LINE",
"138 375 LINE",
"51 375 LINE",
"51 281 LINE"
);
}
);
width = 373;
}
);
unicode = 00B9;
},
{
color = 4;
glyphname = twosuperior;
lastChange = "2016-07-29 15:34:05 +0000";
layers = (
{
layerId = "849A9C4C-BF7C-40C5-8614-1FD725A2A379";
paths = (
{
closed = 1;
nodes = (
"337 281 LINE",
"337 318 OFFCURVE",
"345 338 OFFCURVE",
"345 375 CURVE",
"197 375 LINE",
"273 441 OFFCURVE",
"368 537 OFFCURVE",
"368 627 CURVE SMOOTH",
"368 726 OFFCURVE",
"296 766 OFFCURVE",
"212 766 CURVE SMOOTH",
"121 766 OFFCURVE",
"58 709 OFFCURVE",
"42 645 CURVE",
"159 606 LINE",
"161 618 OFFCURVE",
"163 629 OFFCURVE",
"167 639 CURVE SMOOTH",
"172 656 OFFCURVE",
"182 673 OFFCURVE",
"199 673 CURVE SMOOTH",
"219 673 OFFCURVE",
"229 653 OFFCURVE",
"229 628 CURVE SMOOTH",
"229 540 OFFCURVE",
"115 448 OFFCURVE",
"42 366 CURVE",
"42 281 LINE"
);
}
);
width = 410;
}
);
unicode = 00B2;
},
{
color = 4;
glyphname = threesuperior;
lastChange = "2016-07-29 15:34:05 +0000";
layers = (
{
layerId = "849A9C4C-BF7C-40C5-8614-1FD725A2A379";
paths = (
{
closed = 1;
nodes = (
"286 258 OFFCURVE",
"368 310 OFFCURVE",
"368 405 CURVE SMOOTH",
"368 471 OFFCURVE",
"332 507 OFFCURVE",
"270 527 CURVE",
"354 560 OFFCURVE",
"361 614 OFFCURVE",
"361 642 CURVE SMOOTH",
"361 723 OFFCURVE",
"279 765 OFFCURVE",
"196 765 CURVE SMOOTH",
"125 765 OFFCURVE",
"81 738 OFFCURVE",
"42 670 CURVE",
"143 632 LINE",
"146 640 OFFCURVE",
"149 646 OFFCURVE",
"153 653 CURVE SMOOTH",
"161 664 OFFCURVE",
"170 674 OFFCURVE",
"186 674 CURVE SMOOTH",
"213 674 OFFCURVE",
"228 653 OFFCURVE",
"228 629 CURVE SMOOTH",
"228 579 OFFCURVE",
"185 568 OFFCURVE",
"134 568 CURVE",
"134 474 LINE",
"188 474 OFFCURVE",
"234 464 OFFCURVE",
"234 404 CURVE SMOOTH",
"234 377 OFFCURVE",
"215 353 OFFCURVE",
"184 353 CURVE SMOOTH",
"150 353 OFFCURVE",
"136 375 OFFCURVE",
"128 399 CURVE",
"23 368 LINE",
"43 294 OFFCURVE",
"114 258 OFFCURVE",
"190 258 CURVE SMOOTH"
);
}
);
width = 418;
}
);
unicode = 00B3;
},
{
color = 4;
glyphname = fraction;
lastChange = "2016-07-29 15:34:05 +0000";
layers = (
{
layerId = "849A9C4C-BF7C-40C5-8614-1FD725A2A379";
paths = (
{
closed = 1;
nodes = (
"179 0 LINE",
"277 750 LINE",
"131 750 LINE",
"33 0 LINE"
);
}
);
width = 310;
}
);
unicode = 2044;
},
{
color = 4;
glyphname = onehalf;
lastChange = "2016-07-29 15:34:05 +0000";
layers = (
{
layerId = "849A9C4C-BF7C-40C5-8614-1FD725A2A379";
paths = (
{
closed = 1;
nodes = (
"470 0 LINE",
"657 750 LINE",
"517 750 LINE",
"329 0 LINE"
);
},
{
closed = 1;
nodes = (
"328 281 LINE",
"334 375 LINE",
"243 375 LINE",
"243 750 LINE",
"193 750 LINE",
"32 650 LINE",
"32 581 LINE",
"44 581 LINE SMOOTH",
"58 581 OFFCURVE",
"78 583 OFFCURVE",
"95 585 CURVE SMOOTH",
"125 589 LINE",
"125 375 LINE",
"38 375 LINE",
"38 281 LINE"
);
},
{
closed = 1;
nodes = (
"914 0 LINE",
"914 37 OFFCURVE",
"921 57 OFFCURVE",
"921 94 CURVE",
"773 94 LINE",
"850 160 OFFCURVE",
"944 255 OFFCURVE",
"944 346 CURVE SMOOTH",
"944 445 OFFCURVE",
"873 484 OFFCURVE",
"788 484 CURVE SMOOTH",
"697 484 OFFCURVE",
"634 428 OFFCURVE",
"619 364 CURVE",
"735 325 LINE",
"737 337 OFFCURVE",
"739 348 OFFCURVE",
"743 358 CURVE SMOOTH",
"749 375 OFFCURVE",
"758 392 OFFCURVE",
"775 392 CURVE SMOOTH",
"795 392 OFFCURVE",
"805 372 OFFCURVE",
"805 347 CURVE SMOOTH",
"805 258 OFFCURVE",
"691 167 OFFCURVE",
"619 84 CURVE",
"619 0 LINE"
);
}
);
width = 969;
}
);
unicode = 00BD;
},
{
color = 4;
glyphname = onequarter;
lastChange = "2016-07-29 15:34:05 +0000";
layers = (
{
layerId = "849A9C4C-BF7C-40C5-8614-1FD725A2A379";
paths = (
{
closed = 1;
nodes = (
"473 0 LINE",
"660 750 LINE",
"520 750 LINE",
"332 0 LINE"
);
},
{
closed = 1;
nodes = (
"331 281 LINE",
"337 375 LINE",
"246 375 LINE",
"246 750 LINE",
"196 750 LINE",
"35 650 LINE",
"35 581 LINE",
"47 581 LINE SMOOTH",
"61 581 OFFCURVE",
"81 583 OFFCURVE",
"98 585 CURVE SMOOTH",
"128 589 LINE",
"128 375 LINE",
"41 375 LINE",
"41 281 LINE"
);
},
{
closed = 1;
nodes = (
"768 347 LINE",
"768 181 LINE",
"667 181 LINE"
);
},
{
closed = 1;
nodes = (
"889 -16 LINE",
"889 94 LINE",
"942 94 LINE",
"950 181 LINE",
"889 181 LINE",
"889 469 LINE",
"749 469 LINE",
"577 176 LINE",
"577 94 LINE",
"768 94 LINE",
"768 -23 LINE"
);
}
);
width = 972;
}
);
unicode = 00BC;
},
{
color = 4;
glyphname = threequarters;
lastChange = "2016-07-29 15:34:05 +0000";
layers = (
{
layerId = "849A9C4C-BF7C-40C5-8614-1FD725A2A379";
paths = (
{
closed = 1;
nodes = (
"467 0 LINE",
"655 750 LINE",
"514 750 LINE",
"327 0 LINE"
);
},
{
closed = 1;
nodes = (
"283 258 OFFCURVE",
"365 310 OFFCURVE",
"365 405 CURVE SMOOTH",
"365 471 OFFCURVE",
"330 507 OFFCURVE",
"267 527 CURVE",
"351 560 OFFCURVE",
"358 614 OFFCURVE",
"358 642 CURVE SMOOTH",
"358 723 OFFCURVE",
"277 765 OFFCURVE",
"194 765 CURVE SMOOTH",
"123 765 OFFCURVE",
"78 738 OFFCURVE",
"39 670 CURVE",
"140 632 LINE",
"143 640 OFFCURVE",
"146 646 OFFCURVE",
"151 653 CURVE SMOOTH",
"158 664 OFFCURVE",
"168 674 OFFCURVE",
"183 674 CURVE SMOOTH",
"211 674 OFFCURVE",
"225 653 OFFCURVE",
"225 629 CURVE SMOOTH",
"225 579 OFFCURVE",
"183 568 OFFCURVE",
"131 568 CURVE",
"131 474 LINE",
"186 474 OFFCURVE",
"232 464 OFFCURVE",
"232 404 CURVE SMOOTH",
"232 377 OFFCURVE",
"213 353 OFFCURVE",
"182 353 CURVE SMOOTH",
"147 353 OFFCURVE",
"134 375 OFFCURVE",
"126 399 CURVE",
"21 368 LINE",
"41 294 OFFCURVE",
"112 258 OFFCURVE",
"188 258 CURVE SMOOTH"
);
},
{
closed = 1;
nodes = (
"762 347 LINE",
"762 181 LINE",
"662 181 LINE"
);
},
{
closed = 1;
nodes = (
"883 -16 LINE",
"883 94 LINE",
"937 94 LINE",
"944 181 LINE",
"883 181 LINE",
"883 469 LINE",
"744 469 LINE",
"572 176 LINE",
"572 94 LINE",
"762 94 LINE",
"762 -23 LINE"
);
}
);
width = 967;
}
);
unicode = 00BE;
},
{
color = 4;
glyphname = asterisk;
lastChange = "2016-07-29 15:34:05 +0000";
layers = (
{
layerId = "849A9C4C-BF7C-40C5-8614-1FD725A2A379";
paths = (
{
closed = 1;
nodes = (
"257 365 LINE",
"335 209 LINE",
"446 291 LINE",
"318 417 LINE",
"489 444 LINE",
"450 577 LINE",
"296 503 LINE",
"321 680 LINE",
"193 680 LINE",
"218 503 LINE",
"63 577 LINE",
"24 444 LINE",
"195 417 LINE",
"67 291 LINE",
"178 209 LINE"
);
}
);
width = 513;
}
);
unicode = 002A;
},
{
color = 4;
glyphname = backslash;
lastChange = "2016-07-29 15:34:05 +0000";
layers = (
{
layerId = "849A9C4C-BF7C-40C5-8614-1FD725A2A379";
paths = (
{
closed = 1;
nodes = (
"275 0 LINE",
"177 750 LINE",
"31 750 LINE",
"129 0 LINE"
);
}
);
width = 307;
}
);
unicode = 005C;
},
{
color = 4;
glyphname = periodcentered;
lastChange = "2016-07-29 15:34:05 +0000";
layers = (
{
anchors = (
{
name = _center;
position = "{126, 306}";
}
);
layerId = "849A9C4C-BF7C-40C5-8614-1FD725A2A379";
paths = (
{
closed = 1;
nodes = (
"196 234 LINE",
"196 375 LINE",
"56 375 LINE",
"56 234 LINE"
);
}
);
width = 252;
}
);
unicode = 00B7;
},
{
color = 4;
glyphname = bullet;
lastChange = "2016-07-29 15:34:05 +0000";
layers = (
{
layerId = "849A9C4C-BF7C-40C5-8614-1FD725A2A379";
paths = (
{
closed = 1;
nodes = (
"307 188 OFFCURVE",
"364 258 OFFCURVE",
"364 352 CURVE SMOOTH",
"364 445 OFFCURVE",
"307 516 OFFCURVE",
"203 516 CURVE SMOOTH",
"91 516 OFFCURVE",
"35 445 OFFCURVE",
"35 352 CURVE SMOOTH",
"35 258 OFFCURVE",
"91 188 OFFCURVE",
"203 188 CURVE SMOOTH"
);
}
);
width = 399;
}
);
unicode = 2022;
},
{
color = 4;
glyphname = colon;
lastChange = "2016-07-29 15:34:05 +0000";
layers = (
{
layerId = "849A9C4C-BF7C-40C5-8614-1FD725A2A379";
paths = (
{
closed = 1;
nodes = (
"196 0 LINE",
"196 141 LINE",
"56 141 LINE",
"56 -6 LINE"
);
},
{
closed = 1;
nodes = (
"196 281 LINE",
"196 422 LINE",
"56 422 LINE",
"56 281 LINE"
);
}
);
width = 252;
}
);
unicode = 003A;
},
{
color = 4;
glyphname = comma;
lastChange = "2016-07-29 15:34:05 +0000";
layers = (
{
layerId = "849A9C4C-BF7C-40C5-8614-1FD725A2A379";
paths = (
{
closed = 1;
nodes = (
"94 -139 OFFCURVE",
"113 -133 OFFCURVE",
"130 -123 CURVE SMOOTH",
"160 -106 OFFCURVE",
"189 -70 OFFCURVE",
"189 0 CURVE SMOOTH",
"189 141 LINE",
"48 141 LINE",
"48 0 LINE",
"119 0 LINE",
"118 -9 OFFCURVE",
"116 -17 OFFCURVE",
"113 -23 CURVE SMOOTH",
"107 -35 OFFCURVE",
"95 -47 OFFCURVE",
"72 -47 CURVE",
"72 -141 LINE"
);
}
);
width = 238;
}
);
unicode = 002C;
},
{
color = 4;
glyphname = ellipsis;
lastChange = "2016-07-29 15:34:05 +0000";
layers = (
{
layerId = "849A9C4C-BF7C-40C5-8614-1FD725A2A379";
paths = (
{
closed = 1;
nodes = (
"749 6 LINE",
"749 141 LINE",
"608 141 LINE",
"608 -6 LINE"
);
},
{
closed = 1;
nodes = (
"190 6 LINE",
"190 141 LINE",
"50 141 LINE",
"50 -6 LINE"
);
},
{
closed = 1;
nodes = (
"470 6 LINE",
"470 141 LINE",
"329 141 LINE",
"329 -6 LINE"
);
}
);
width = 797;
}
);
unicode = 2026;
},
{
color = 4;
glyphname = exclam;
lastChange = "2016-07-29 15:34:05 +0000";
layers = (
{
layerId = "849A9C4C-BF7C-40C5-8614-1FD725A2A379";
paths = (
{
closed = 1;
nodes = (
"180 219 LINE",
"203 750 LINE",
"62 750 LINE",
"86 219 LINE"
);
},
{
closed = 1;
nodes = (
"203 0 LINE",
"203 146 LINE",
"62 146 LINE",
"62 -6 LINE"
);
}
);
width = 265;
}
);
unicode = 0021;
},
{
color = 4;
glyphname = exclamdown;
lastChange = "2016-07-29 15:34:05 +0000";
layers = (
{
layerId = "849A9C4C-BF7C-40C5-8614-1FD725A2A379";
paths = (
{
closed = 1;
nodes = (
"203 -6 LINE",
"180 525 LINE",
"86 525 LINE",
"62 -6 LINE"
);
},
{
closed = 1;
nodes = (
"203 598 LINE",
"203 744 LINE",
"62 750 LINE",
"62 598 LINE"
);
}
);
width = 265;
}
);
unicode = 00A1;
},
{
color = 4;
glyphname = numbersign;
lastChange = "2016-07-29 15:34:05 +0000";
layers = (
{
layerId = "849A9C4C-BF7C-40C5-8614-1FD725A2A379";
paths = (
{
closed = 1;
nodes = (
"226 0 LINE",
"250 188 LINE",
"341 188 LINE",
"317 0 LINE",
"463 0 LINE",
"488 188 LINE",
"572 188 LINE",
"572 304 LINE",
"503 304 LINE",
"524 469 LINE",
"595 469 LINE",
"595 585 LINE",
"540 585 LINE",
"562 750 LINE",
"415 750 LINE",
"393 585 LINE",
"302 585 LINE",
"324 750 LINE",
"178 750 LINE",
"156 585 LINE",
"55 585 LINE",
"55 469 LINE",
"141 469 LINE",
"119 304 LINE",
"31 304 LINE",
"31 188 LINE",
"104 188 LINE",
"80 0 LINE"
);
},
{
closed = 1;
nodes = (
"287 469 LINE",
"378 469 LINE",
"356 304 LINE",
"266 304 LINE"
);
}
);
width = 626;
}
);
unicode = 0023;
},
{
color = 4;
glyphname = period;
lastChange = "2016-07-29 15:34:05 +0000";
layers = (
{
layerId = "849A9C4C-BF7C-40C5-8614-1FD725A2A379";
paths = (
{
closed = 1;
nodes = (
"190 6 LINE",
"190 141 LINE",
"50 141 LINE",
"50 -6 LINE"
);
}
);
width = 239;
}
);
unicode = 002E;
},
{
color = 4;
glyphname = question;
lastChange = "2016-07-29 15:34:05 +0000";
layers = (
{
layerId = "849A9C4C-BF7C-40C5-8614-1FD725A2A379";
paths = (
{
closed = 1;
nodes = (
"212 188 LINE",
"212 193 LINE SMOOTH",
"212 381 OFFCURVE",
"408 298 OFFCURVE",
"408 535 CURVE SMOOTH",
"408 642 OFFCURVE",
"349 755 OFFCURVE",
"214 755 CURVE SMOOTH",
"104 755 OFFCURVE",
"28 672 OFFCURVE",
"24 553 CURVE",
"158 547 LINE",
"162 580 OFFCURVE",
"167 644 OFFCURVE",
"210 644 CURVE SMOOTH",
"267 644 OFFCURVE",
"267 565 OFFCURVE",
"267 540 CURVE SMOOTH",
"267 360 OFFCURVE",
"69 470 OFFCURVE",
"95 188 CURVE"
);
},
{
closed = 1;
nodes = (
"224 0 LINE",
"224 141 LINE",
"83 141 LINE",
"83 -6 LINE"
);
}
);
width = 432;
}
);
unicode = 003F;
},
{
color = 4;
glyphname = questiondown;
lastChange = "2016-07-29 15:34:05 +0000";
layers = (
{
layerId = "849A9C4C-BF7C-40C5-8614-1FD725A2A379";
paths = (
{
closed = 1;
nodes = (
"328 -6 OFFCURVE",
"404 77 OFFCURVE",
"408 196 CURVE",
"275 202 LINE",
"271 169 OFFCURVE",
"266 105 OFFCURVE",
"222 105 CURVE SMOOTH",
"166 105 OFFCURVE",
"166 184 OFFCURVE",
"166 209 CURVE SMOOTH",
"166 389 OFFCURVE",
"363 279 OFFCURVE",
"337 562 CURVE",
"220 562 LINE",
"220 556 LINE SMOOTH",
"220 368 OFFCURVE",
"24 451 OFFCURVE",
"24 214 CURVE SMOOTH",
"24 107 OFFCURVE",
"84 -6 OFFCURVE",
"219 -6 CURVE SMOOTH"
);
},
{
closed = 1;
nodes = (
"350 608 LINE",
"350 755 LINE",
"209 749 LINE",
"209 608 LINE"
);
}
);
width = 432;
}
);
unicode = 00BF;
},
{
color = 4;
glyphname = quotedbl;
lastChange = "2016-07-29 15:34:05 +0000";
layers = (
{
layerId = "849A9C4C-BF7C-40C5-8614-1FD725A2A379";
paths = (
{
closed = 1;
nodes = (
"345 469 LINE",
"368 750 LINE",
"228 750 LINE",
"251 463 LINE"
);
},
{
closed = 1;
nodes = (
"157 469 LINE",
"181 750 LINE",
"40 750 LINE",
"63 463 LINE"
);
}
);
width = 408;
}
);
unicode = 0022;
},
{
color = 4;
glyphname = quotesingle;
lastChange = "2016-07-29 15:34:05 +0000";
layers = (
{
layerId = "849A9C4C-BF7C-40C5-8614-1FD725A2A379";
paths = (
{
closed = 1;
nodes = (
"157 469 LINE",
"181 750 LINE",
"40 750 LINE",
"63 463 LINE"
);
}
);
width = 220;
}
);
unicode = 0027;
},
{
color = 4;
glyphname = semicolon;
lastChange = "2016-07-29 15:34:05 +0000";
layers = (
{
layerId = "849A9C4C-BF7C-40C5-8614-1FD725A2A379";
paths = (
{
closed = 1;
nodes = (
"102 -139 OFFCURVE",
"121 -133 OFFCURVE",
"138 -123 CURVE SMOOTH",
"167 -106 OFFCURVE",
"197 -70 OFFCURVE",
"197 0 CURVE SMOOTH",
"197 141 LINE",
"56 141 LINE",
"56 -6 LINE",
"126 0 LINE",
"126 -9 OFFCURVE",
"124 -17 OFFCURVE",
"121 -23 CURVE SMOOTH",
"115 -35 OFFCURVE",
"103 -47 OFFCURVE",
"80 -47 CURVE",
"80 -141 LINE"
);
},
{
closed = 1;
nodes = (
"197 281 LINE",
"197 422 LINE",
"56 422 LINE",
"56 281 LINE"
);
}
);
width = 252;
}
);
unicode = 003B;
},
{
color = 4;
glyphname = slash;
lastChange = "2016-07-29 15:34:05 +0000";
layers = (
{
layerId = "849A9C4C-BF7C-40C5-8614-1FD725A2A379";
paths = (
{
closed = 1;
nodes = (
"178 0 LINE",
"276 750 LINE",
"129 750 LINE",
"31 0 LINE"
);
}
);
width = 307;
}
);
unicode = 002F;
},
{
color = 4;
glyphname = underscore;
lastChange = "2016-07-29 15:34:05 +0000";
layers = (
{
layerId = "849A9C4C-BF7C-40C5-8614-1FD725A2A379";
paths = (
{
closed = 1;
nodes = (
"276 -116 LINE",
"276 0 LINE",
"-5 0 LINE",
"-5 -116 LINE"
);
}
);
width = 271;
}
);
unicode = 005F;
},
{
color = 4;
glyphname = braceleft;
lastChange = "2016-07-29 15:34:05 +0000";
layers = (
{
layerId = "849A9C4C-BF7C-40C5-8614-1FD725A2A379";
paths = (
{
closed = 1;
nodes = (
"303 37 LINE",
"209 37 OFFCURVE",
"209 111 OFFCURVE",
"209 269 CURVE SMOOTH",
"209 308 OFFCURVE",
"209 353 OFFCURVE",
"116 384 CURVE",
"209 417 OFFCURVE",
"209 460 OFFCURVE",
"209 500 CURVE SMOOTH",
"209 647 OFFCURVE",
"209 718 OFFCURVE",
"303 718 CURVE",
"303 797 LINE",
"116 797 OFFCURVE",
"69 691 OFFCURVE",
"69 500 CURVE SMOOTH",
"69 469 OFFCURVE",
"69 431 OFFCURVE",
"22 431 CURVE",
"22 338 LINE",
"69 338 OFFCURVE",
"69 300 OFFCURVE",
"69 269 CURVE SMOOTH",
"69 68 OFFCURVE",
"116 -42 OFFCURVE",
"303 -42 CURVE"
);
}
);
width = 329;
}
);
unicode = 007B;
},
{
color = 4;
glyphname = braceright;
lastChange = "2016-07-29 15:34:05 +0000";
layers = (
{
layerId = "849A9C4C-BF7C-40C5-8614-1FD725A2A379";
paths = (
{
closed = 1;
nodes = (
"213 -42 OFFCURVE",
"260 68 OFFCURVE",
"260 269 CURVE SMOOTH",
"260 300 OFFCURVE",
"260 338 OFFCURVE",
"307 338 CURVE",
"307 431 LINE",
"260 431 OFFCURVE",
"260 469 OFFCURVE",
"260 500 CURVE SMOOTH",
"260 691 OFFCURVE",
"213 797 OFFCURVE",
"25 797 CURVE",
"25 718 LINE",
"119 718 OFFCURVE",
"119 647 OFFCURVE",
"119 500 CURVE SMOOTH",
"119 456 OFFCURVE",
"120 409 OFFCURVE",
"240 375 CURVE",
"240 393 LINE",
"120 361 OFFCURVE",
"119 313 OFFCURVE",
"119 269 CURVE SMOOTH",
"119 111 OFFCURVE",
"119 37 OFFCURVE",
"25 37 CURVE",
"25 -42 LINE"
);
}
);
width = 329;
}
);
unicode = 007D;
},
{
color = 4;
glyphname = bracketleft;
lastChange = "2016-07-29 15:34:05 +0000";
layers = (
{
layerId = "849A9C4C-BF7C-40C5-8614-1FD725A2A379";
paths = (
{
closed = 1;
nodes = (
"309 -47 LINE",
"309 46 LINE",
"215 46 LINE",
"215 703 LINE",
"309 703 LINE",
"309 797 LINE",
"69 797 LINE",
"69 -47 LINE"
);
}
);
width = 338;
}
);
unicode = 005B;
},
{
color = 4;
glyphname = bracketright;
lastChange = "2016-07-29 15:34:05 +0000";
layers = (
{
layerId = "849A9C4C-BF7C-40C5-8614-1FD725A2A379";
paths = (
{
closed = 1;
nodes = (
"270 -47 LINE",
"270 797 LINE",
"29 797 LINE",
"29 703 LINE",
"123 703 LINE",
"123 46 LINE",
"29 46 LINE",
"29 -47 LINE"
);
}
);
width = 338;
}
);
unicode = 005D;
},
{
color = 4;
glyphname = parenleft;
lastChange = "2016-07-29 15:34:05 +0000";
layers = (
{
layerId = "849A9C4C-BF7C-40C5-8614-1FD725A2A379";
paths = (
{
closed = 1;
nodes = (
"306 55 LINE",
"216 63 OFFCURVE",
"171 213 OFFCURVE",
"171 364 CURVE SMOOTH",
"171 510 OFFCURVE",
"216 657 OFFCURVE",
"306 674 CURVE",
"306 763 LINE",
"124 757 OFFCURVE",
"30 561 OFFCURVE",
"30 364 CURVE SMOOTH",
"30 170 OFFCURVE",
"120 -21 OFFCURVE",
"306 -37 CURVE"
);
}
);
width = 333;
}
);
unicode = 0028;
},
{
color = 4;
glyphname = parenright;
lastChange = "2016-07-29 15:34:05 +0000";
layers = (
{
layerId = "849A9C4C-BF7C-40C5-8614-1FD725A2A379";
paths = (
{
closed = 1;
nodes = (
"213 -21 OFFCURVE",
"303 170 OFFCURVE",
"303 364 CURVE SMOOTH",
"303 561 OFFCURVE",
"209 757 OFFCURVE",
"27 763 CURVE",
"27 674 LINE",
"117 657 OFFCURVE",
"163 510 OFFCURVE",
"163 364 CURVE SMOOTH",
"163 213 OFFCURVE",
"117 63 OFFCURVE",
"27 55 CURVE",
"27 -37 LINE"
);
}
);
width = 333;
}
);
unicode = 0029;
},
{
color = 4;
glyphname = emdash;
lastChange = "2016-07-29 15:34:05 +0000";
layers = (
{
layerId = "849A9C4C-BF7C-40C5-8614-1FD725A2A379";
paths = (
{
closed = 1;
nodes = (
"618 234 LINE",
"618 351 LINE",
"56 351 LINE",
"56 234 LINE"
);
}
);
width = 673;
}
);
unicode = 2014;
},
{
color = 4;
glyphname = endash;
lastChange = "2016-07-29 15:34:05 +0000";
layers = (
{
layerId = "849A9C4C-BF7C-40C5-8614-1FD725A2A379";
paths = (
{
closed = 1;
nodes = (
"337 234 LINE",
"337 351 LINE",
"56 351 LINE",
"56 234 LINE"
);
}
);
width = 393;
}
);
unicode = 2013;
},
{
color = 4;
glyphname = hyphen;
lastChange = "2016-07-29 15:34:05 +0000";
layers = (
{
layerId = "849A9C4C-BF7C-40C5-8614-1FD725A2A379";
paths = (
{
closed = 1;
nodes = (
"337 234 LINE",
"337 351 LINE",
"56 351 LINE",
"56 234 LINE"
);
}
);
width = 393;
}
);
unicode = 002D;
},
{
color = 4;
glyphname = guillemetleft;
lastChange = "2016-07-29 15:34:05 +0000";
layers = (
{
layerId = "849A9C4C-BF7C-40C5-8614-1FD725A2A379";
paths = (
{
closed = 1;
nodes = (
"563 196 LINE",
"403 296 LINE",
"550 407 LINE",
"557 534 LINE",
"308 344 LINE",
"308 214 LINE",
"556 29 LINE"
);
},
{
closed = 1;
nodes = (
"281 196 LINE",
"122 296 LINE",
"269 407 LINE",
"275 534 LINE",
"26 344 LINE",
"26 214 LINE",
"274 29 LINE"
);
}
);
width = 607;
}
);
unicode = 00AB;
},
{
color = 4;
glyphname = guillemetright;
lastChange = "2016-07-29 15:34:05 +0000";
layers = (
{
layerId = "849A9C4C-BF7C-40C5-8614-1FD725A2A379";
paths = (
{
closed = 1;
nodes = (
"581 214 LINE",
"581 344 LINE",
"332 534 LINE",
"339 407 LINE",
"486 296 LINE",
"326 196 LINE",
"333 29 LINE"
);
},
{
closed = 1;
nodes = (
"300 214 LINE",
"300 344 LINE",
"51 534 LINE",
"58 407 LINE",
"205 296 LINE",
"45 196 LINE",
"52 29 LINE"
);
}
);
width = 607;
}
);
unicode = 00BB;
},
{
color = 4;
glyphname = guilsinglleft;
lastChange = "2016-07-29 15:34:05 +0000";
layers = (
{
layerId = "849A9C4C-BF7C-40C5-8614-1FD725A2A379";
paths = (
{
closed = 1;
nodes = (
"345 196 LINE",
"146 296 LINE",
"332 407 LINE",
"339 534 LINE",
"26 344 LINE",
"26 214 LINE",
"338 29 LINE"
);
}
);
width = 391;
}
);
unicode = 2039;
},
{
color = 4;
glyphname = guilsinglright;
lastChange = "2016-07-29 15:34:05 +0000";
layers = (
{
layerId = "849A9C4C-BF7C-40C5-8614-1FD725A2A379";
paths = (
{
closed = 1;
nodes = (
"364 214 LINE",
"364 344 LINE",
"52 534 LINE",
"59 407 LINE",
"245 296 LINE",
"46 196 LINE",
"53 29 LINE"
);
}
);
width = 391;
}
);
unicode = 203A;
},
{
color = 4;
glyphname = quotedblbase;
lastChange = "2016-07-29 15:34:05 +0000";
layers = (
{
layerId = "849A9C4C-BF7C-40C5-8614-1FD725A2A379";
paths = (
{
closed = 1;
nodes = (
"282 -139 OFFCURVE",
"301 -133 OFFCURVE",
"318 -123 CURVE SMOOTH",
"348 -106 OFFCURVE",
"377 -70 OFFCURVE",
"377 0 CURVE SMOOTH",
"377 141 LINE",
"236 141 LINE",
"236 0 LINE",
"307 0 LINE",
"306 -9 OFFCURVE",
"304 -17 OFFCURVE",
"301 -23 CURVE SMOOTH",
"295 -35 OFFCURVE",
"283 -47 OFFCURVE",
"260 -47 CURVE",
"260 -141 LINE"
);
},
{
closed = 1;
nodes = (
"94 -139 OFFCURVE",
"114 -133 OFFCURVE",
"131 -123 CURVE SMOOTH",
"160 -106 OFFCURVE",
"189 -70 OFFCURVE",
"189 0 CURVE SMOOTH",
"189 141 LINE",
"49 141 LINE",
"49 0 LINE",
"119 0 LINE",
"119 -9 OFFCURVE",
"117 -17 OFFCURVE",
"113 -23 CURVE SMOOTH",
"107 -35 OFFCURVE",
"96 -47 OFFCURVE",
"72 -47 CURVE",
"72 -141 LINE"
);
}
);
width = 426;
}
);
unicode = 201E;
},
{
color = 4;
glyphname = quotedblleft;
lastChange = "2016-07-29 15:34:05 +0000";
layers = (
{
layerId = "849A9C4C-BF7C-40C5-8614-1FD725A2A379";
paths = (
{
closed = 1;
nodes = (
"375 469 LINE",
"375 609 LINE",
"305 609 LINE",
"305 618 OFFCURVE",
"307 626 OFFCURVE",
"311 633 CURVE SMOOTH",
"316 645 OFFCURVE",
"328 656 OFFCURVE",
"352 656 CURVE",
"352 750 LINE",
"330 749 OFFCURVE",
"310 743 OFFCURVE",
"293 732 CURVE SMOOTH",
"264 714 OFFCURVE",
"234 680 OFFCURVE",
"234 609 CURVE SMOOTH",
"234 463 LINE"
);
},
{
closed = 1;
nodes = (
"188 469 LINE",
"188 609 LINE",
"117 609 LINE",
"118 618 OFFCURVE",
"120 626 OFFCURVE",
"123 633 CURVE SMOOTH",
"129 645 OFFCURVE",
"141 656 OFFCURVE",
"164 656 CURVE",
"164 750 LINE",
"142 749 OFFCURVE",
"123 743 OFFCURVE",
"105 732 CURVE SMOOTH",
"76 714 OFFCURVE",
"47 680 OFFCURVE",
"47 609 CURVE SMOOTH",
"47 463 LINE"
);
}
);
width = 419;
}
);
unicode = 201C;
},
{
color = 4;
glyphname = quotedblright;
lastChange = "2016-07-29 15:34:05 +0000";
layers = (
{
layerId = "849A9C4C-BF7C-40C5-8614-1FD725A2A379";
paths = (
{
closed = 1;
nodes = (
"275 470 OFFCURVE",
"295 476 OFFCURVE",
"312 486 CURVE SMOOTH",
"341 503 OFFCURVE",
"371 539 OFFCURVE",
"371 609 CURVE SMOOTH",
"371 750 LINE",
"230 750 LINE",
"230 604 LINE",
"300 609 LINE",
"300 601 OFFCURVE",
"298 593 OFFCURVE",
"294 586 CURVE SMOOTH",
"289 574 OFFCURVE",
"277 563 OFFCURVE",
"253 563 CURVE",
"253 469 LINE"
);
},
{
closed = 1;
nodes = (
"88 470 OFFCURVE",
"107 476 OFFCURVE",
"125 486 CURVE SMOOTH",
"154 503 OFFCURVE",
"183 539 OFFCURVE",
"183 609 CURVE SMOOTH",
"183 750 LINE",
"42 750 LINE",
"42 604 LINE",
"113 609 LINE",
"112 601 OFFCURVE",
"110 593 OFFCURVE",
"107 586 CURVE SMOOTH",
"101 574 OFFCURVE",
"89 563 OFFCURVE",
"66 563 CURVE",
"66 469 LINE"
);
}
);
width = 411;
}
);
unicode = 201D;
},
{
color = 4;
glyphname = quoteleft;
lastChange = "2016-07-29 15:34:05 +0000";
layers = (
{
layerId = "849A9C4C-BF7C-40C5-8614-1FD725A2A379";
paths = (
{
closed = 1;
nodes = (
"212 454 LINE",
"212 609 LINE",
"118 609 LINE",
"118 618 OFFCURVE",
"121 626 OFFCURVE",
"126 633 CURVE SMOOTH",
"136 645 OFFCURVE",
"153 656 OFFCURVE",
"188 656 CURVE",
"188 750 LINE",
"162 749 OFFCURVE",
"138 743 OFFCURVE",
"118 732 CURVE SMOOTH",
"83 714 OFFCURVE",
"47 680 OFFCURVE",
"47 609 CURVE SMOOTH",
"47 448 LINE"
);
}
);
width = 256;
}
);
unicode = 2018;
},
{
color = 4;
glyphname = quoteright;
lastChange = "2016-07-29 15:34:05 +0000";
layers = (
{
layerId = "849A9C4C-BF7C-40C5-8614-1FD725A2A379";
paths = (
{
closed = 1;
nodes = (
"88 470 OFFCURVE",
"107 476 OFFCURVE",
"125 486 CURVE SMOOTH",
"154 503 OFFCURVE",
"183 539 OFFCURVE",
"183 609 CURVE SMOOTH",
"183 750 LINE",
"42 750 LINE",
"42 604 LINE",
"113 609 LINE",
"112 601 OFFCURVE",
"110 593 OFFCURVE",
"107 586 CURVE SMOOTH",
"101 574 OFFCURVE",
"89 563 OFFCURVE",
"66 563 CURVE",
"66 469 LINE"
);
}
);
width = 224;
}
);
unicode = 2019;
},
{
color = 4;
glyphname = quotesinglbase;
lastChange = "2016-07-29 15:34:05 +0000";
layers = (
{
layerId = "849A9C4C-BF7C-40C5-8614-1FD725A2A379";
paths = (
{
closed = 1;
nodes = (
"94 -139 OFFCURVE",
"114 -133 OFFCURVE",
"131 -123 CURVE SMOOTH",
"160 -106 OFFCURVE",
"189 -70 OFFCURVE",
"189 0 CURVE SMOOTH",
"189 141 LINE",
"49 141 LINE",
"49 0 LINE",
"119 0 LINE",
"119 -9 OFFCURVE",
"117 -17 OFFCURVE",
"113 -23 CURVE SMOOTH",
"107 -35 OFFCURVE",
"96 -47 OFFCURVE",
"72 -47 CURVE",
"72 -141 LINE"
);
}
);
width = 239;
}
);
unicode = 201A;
},
{
glyphname = cedi;
lastChange = "2016-07-29 15:34:05 +0000";
layers = (
{
background = {
paths = (
{
closed = 1;
nodes = (
"311 78 LINE",
"311 797 LINE",
"240 797 LINE",
"240 78 LINE"
);
},
{
closed = 1;
nodes = (
"240 22 LINE",
"240 -47 LINE",
"311 -47 LINE",
"311 23 LINE"
);
},
{
closed = 1;
nodes = (
"427 11 OFFCURVE",
"499 128 OFFCURVE",
"499 255 CURVE",
"374 267 LINE",
"368 212 OFFCURVE",
"354 128 OFFCURVE",
"285 128 CURVE SMOOTH",
"192 128 OFFCURVE",
"178 261 OFFCURVE",
"178 391 CURVE SMOOTH",
"178 489 OFFCURVE",
"192 617 OFFCURVE",
"271 617 CURVE SMOOTH",
"353 617 OFFCURVE",
"356 499 OFFCURVE",
"356 486 CURVE",
"498 493 LINE",
"498 611 OFFCURVE",
"417 734 OFFCURVE",
"279 734 CURVE SMOOTH",
"96 734 OFFCURVE",
"32 546 OFFCURVE",
"32 391 CURVE SMOOTH",
"32 212 OFFCURVE",
"80 11 OFFCURVE",
"276 11 CURVE SMOOTH"
);
}
);
};
layerId = "849A9C4C-BF7C-40C5-8614-1FD725A2A379";
paths = (
{
closed = 1;
nodes = (
"427 11 OFFCURVE",
"499 128 OFFCURVE",
"499 255 CURVE",
"374 267 LINE",
"368 212 OFFCURVE",
"354 128 OFFCURVE",
"285 128 CURVE SMOOTH",
"192 128 OFFCURVE",
"178 261 OFFCURVE",
"178 391 CURVE SMOOTH",
"178 489 OFFCURVE",
"192 617 OFFCURVE",
"271 617 CURVE SMOOTH",
"353 617 OFFCURVE",
"356 499 OFFCURVE",
"356 486 CURVE",
"498 493 LINE",
"498 611 OFFCURVE",
"417 734 OFFCURVE",
"279 734 CURVE SMOOTH",
"96 734 OFFCURVE",
"32 546 OFFCURVE",
"32 391 CURVE SMOOTH",
"32 212 OFFCURVE",
"80 11 OFFCURVE",
"276 11 CURVE SMOOTH"
);
},
{
closed = 1;
nodes = (
"315 -47 LINE",
"315 797 LINE",
"245 797 LINE",
"245 -47 LINE"
);
}
);
width = 532;
}
);
unicode = 20B5;
},
{
color = 4;
glyphname = cent;
lastChange = "2016-07-29 15:34:05 +0000";
layers = (
{
layerId = "849A9C4C-BF7C-40C5-8614-1FD725A2A379";
paths = (
{
closed = 1;
nodes = (
"282 -94 LINE",
"282 -12 LINE",
"398 -4 OFFCURVE",
"434 79 OFFCURVE",
"450 198 CURVE",
"333 211 LINE",
"331 179 OFFCURVE",
"322 115 OFFCURVE",
"282 106 CURVE",
"282 448 LINE",
"310 429 OFFCURVE",
"316 387 OFFCURVE",
"320 362 CURVE",
"453 368 LINE",
"449 474 OFFCURVE",
"382 551 OFFCURVE",
"282 567 CURVE",
"282 656 LINE",
"214 656 LINE",
"214 567 LINE",
"84 550 OFFCURVE",
"25 411 OFFCURVE",
"25 279 CURVE SMOOTH",
"25 145 OFFCURVE",
"85 19 OFFCURVE",
"214 -8 CURVE",
"214 -94 LINE"
);
},
{
closed = 1;
nodes = (
"168 159 OFFCURVE",
"167 235 OFFCURVE",
"167 281 CURVE SMOOTH",
"167 334 OFFCURVE",
"168 419 OFFCURVE",
"214 449 CURVE",
"214 123 LINE"
);
}
);
width = 480;
}
);
unicode = 00A2;
},
{
glyphname = colonsign;
lastChange = "2016-07-29 15:34:05 +0000";
layers = (
{
background = {
paths = (
{
closed = 1;
nodes = (
"459 448 LINE",
"389 448 LINE",
"389 26 LINE",
"459 26 LINE"
);
},
{
closed = 1;
nodes = (
"323 448 LINE",
"252 448 LINE",
"252 26 LINE",
"323 26 LINE"
);
}
);
};
layerId = "849A9C4C-BF7C-40C5-8614-1FD725A2A379";
paths = (
{
closed = 1;
nodes = (
"438 11 OFFCURVE",
"513 128 OFFCURVE",
"513 255 CURVE",
"389 267 LINE",
"382 212 OFFCURVE",
"366 128 OFFCURVE",
"290 128 CURVE SMOOTH",
"193 128 OFFCURVE",
"178 261 OFFCURVE",
"178 391 CURVE SMOOTH",
"178 489 OFFCURVE",
"193 617 OFFCURVE",
"276 617 CURVE SMOOTH",
"367 617 OFFCURVE",
"371 499 OFFCURVE",
"371 486 CURVE",
"512 493 LINE",
"512 611 OFFCURVE",
"428 734 OFFCURVE",
"284 734 CURVE SMOOTH",
"98 734 OFFCURVE",
"32 546 OFFCURVE",
"32 391 CURVE SMOOTH",
"32 212 OFFCURVE",
"81 11 OFFCURVE",
"281 11 CURVE SMOOTH"
);
},
{
closed = 1;
nodes = (
"196 -47 LINE",
"344 797 LINE",
"298 797 LINE",
"150 -47 LINE"
);
},
{
closed = 1;
nodes = (
"289 -47 LINE",
"437 797 LINE",
"391 797 LINE",
"243 -47 LINE"
);
}
);
width = 547;
}
);
unicode = 20A1;
},
{
color = 4;
glyphname = currency;
lastChange = "2016-07-29 15:34:05 +0000";
layers = (
{
layerId = "849A9C4C-BF7C-40C5-8614-1FD725A2A379";
paths = (
{
closed = 1;
nodes = (
"157 277 LINE",
"190 250 OFFCURVE",
"236 235 OFFCURVE",
"296 235 CURVE SMOOTH",
"296 235 LINE SMOOTH",
"356 235 OFFCURVE",
"402 250 OFFCURVE",
"437 278 CURVE",
"504 218 LINE",
"551 271 LINE",
"481 332 LINE",
"499 365 OFFCURVE",
"507 402 OFFCURVE",
"507 445 CURVE SMOOTH",
"507 489 OFFCURVE",
"498 528 OFFCURVE",
"480 562 CURVE",
"551 624 LINE",
"504 677 LINE",
"434 615 LINE",
"400 641 OFFCURVE",
"355 656 OFFCURVE",
"296 656 CURVE SMOOTH",
"238 656 OFFCURVE",
"193 641 OFFCURVE",
"159 616 CURVE",
"89 677 LINE",
"43 624 LINE",
"113 562 LINE",
"94 529 OFFCURVE",
"86 490 OFFCURVE",
"86 446 CURVE SMOOTH",
"86 402 OFFCURVE",
"94 364 OFFCURVE",
"111 332 CURVE",
"43 271 LINE",
"89 218 LINE"
);
},
{
closed = 1;
nodes = (
"234 341 OFFCURVE",
"203 375 OFFCURVE",
"203 445 CURVE SMOOTH",
"203 515 OFFCURVE",
"234 550 OFFCURVE",
"296 550 CURVE SMOOTH",
"358 550 OFFCURVE",
"390 515 OFFCURVE",
"390 445 CURVE SMOOTH",
"390 375 OFFCURVE",
"358 341 OFFCURVE",
"296 341 CURVE SMOOTH"
);
}
);
width = 592;
}
);
unicode = 00A4;
},
{
color = 4;
glyphname = dollar;
lastChange = "2016-07-29 15:34:05 +0000";
layers = (
{
background = {
paths = (
{
closed = 1;
nodes = (
"300 -47 LINE",
"300 16 LINE",
"409 33 OFFCURVE",
"489 116 OFFCURVE",
"489 235 CURVE",
"486 279 OFFCURVE",
"465 343 OFFCURVE",
"357 406 CURVE SMOOTH",
"300 439 LINE",
"300 608 LINE",
"325 592 OFFCURVE",
"337 561 OFFCURVE",
"353 527 CURVE",
"467 583 LINE",
"438 670 OFFCURVE",
"380 722 OFFCURVE",
"300 733 CURVE",
"300 797 LINE",
"230 797 LINE",
"230 733 LINE",
"122 717 OFFCURVE",
"48 631 OFFCURVE",
"48 529 CURVE SMOOTH",
"48 451 OFFCURVE",
"92 403 OFFCURVE",
"158 363 CURVE SMOOTH",
"230 321 LINE",
"230 147 LINE",
"188 169 OFFCURVE",
"161 222 OFFCURVE",
"139 258 CURVE",
"30 200 LINE",
"61 103 OFFCURVE",
"128 26 OFFCURVE",
"230 14 CURVE",
"230 -47 LINE"
);
},
{
closed = 1;
nodes = (
"300 279 LINE",
"322 263 OFFCURVE",
"339 241 OFFCURVE",
"339 212 CURVE SMOOTH",
"339 183 OFFCURVE",
"323 157 OFFCURVE",
"300 145 CURVE"
);
},
{
closed = 1;
nodes = (
"206 497 OFFCURVE",
"190 515 OFFCURVE",
"190 544 CURVE SMOOTH",
"190 571 OFFCURVE",
"204 602 OFFCURVE",
"230 613 CURVE",
"230 480 LINE"
);
}
);
};
layerId = "849A9C4C-BF7C-40C5-8614-1FD725A2A379";
paths = (
{
closed = 1;
nodes = (
"408 11 OFFCURVE",
"513 99 OFFCURVE",
"513 220 CURVE SMOOTH",
"513 275 OFFCURVE",
"491 358 OFFCURVE",
"372 427 CURVE SMOOTH",
"251 497 LINE SMOOTH",
"227 511 OFFCURVE",
"205 535 OFFCURVE",
"205 566 CURVE SMOOTH",
"205 596 OFFCURVE",
"224 617 OFFCURVE",
"265 617 CURVE SMOOTH",
"321 617 OFFCURVE",
"334 577 OFFCURVE",
"357 528 CURVE",
"481 584 LINE",
"447 684 OFFCURVE",
"373 734 OFFCURVE",
"271 734 CURVE SMOOTH",
"144 734 OFFCURVE",
"48 654 OFFCURVE",
"48 538 CURVE SMOOTH",
"48 460 OFFCURVE",
"91 398 OFFCURVE",
"173 349 CURVE SMOOTH",
"289 280 LINE SMOOTH",
"322 261 OFFCURVE",
"354 224 OFFCURVE",
"354 188 CURVE SMOOTH",
"354 149 OFFCURVE",
"317 128 OFFCURVE",
"284 128 CURVE SMOOTH",
"216 128 OFFCURVE",
"174 215 OFFCURVE",
"149 254 CURVE",
"25 196 LINE",
"63 89 OFFCURVE",
"146 11 OFFCURVE",
"273 11 CURVE SMOOTH"
);
},
{
closed = 1;
nodes = (
"300 -47 LINE",
"300 23 LINE",
"230 22 LINE",
"230 -47 LINE"
);
},
{
closed = 1;
nodes = (
"300 725 LINE",
"300 797 LINE",
"230 797 LINE",
"230 725 LINE"
);
}
);
width = 544;
}
);
unicode = 0024;
},
{
glyphname = dong;
lastChange = "2016-07-29 15:34:05 +0000";
layers = (
{
layerId = "849A9C4C-BF7C-40C5-8614-1FD725A2A379";
paths = (
{
closed = 1;
nodes = (
"280 -13 OFFCURVE",
"307 28 OFFCURVE",
"318 70 CURVE",
"350 0 LINE",
"459 0 LINE",
"459 750 LINE",
"318 750 LINE",
"318 488 LINE",
"298 534 OFFCURVE",
"250 570 OFFCURVE",
"201 570 CURVE SMOOTH",
"90 570 OFFCURVE",
"36 489 OFFCURVE",
"36 281 CURVE SMOOTH",
"36 78 OFFCURVE",
"95 -13 OFFCURVE",
"198 -13 CURVE SMOOTH"
);
},
{
closed = 1;
nodes = (
"459 -161 LINE",
"459 -91 LINE",
"36 -91 LINE",
"36 -161 LINE"
);
},
{
closed = 1;
nodes = (
"181 87 OFFCURVE",
"177 177 OFFCURVE",
"177 281 CURVE SMOOTH",
"177 385 OFFCURVE",
"181 467 OFFCURVE",
"250 467 CURVE SMOOTH",
"277 467 OFFCURVE",
"300 450 OFFCURVE",
"318 422 CURVE",
"318 234 LINE SMOOTH",
"318 117 OFFCURVE",
"284 87 OFFCURVE",
"250 87 CURVE SMOOTH"
);
},
{
closed = 1;
nodes = (
"551 630 LINE",
"551 701 LINE",
"114 701 LINE",
"114 630 LINE"
);
}
);
width = 518;
}
);
unicode = 20AB;
},
{
color = 4;
glyphname = euro;
lastChange = "2016-07-29 15:34:05 +0000";
layers = (
{
layerId = "849A9C4C-BF7C-40C5-8614-1FD725A2A379";
paths = (
{
closed = 1;
nodes = (
"455 -16 OFFCURVE",
"523 89 OFFCURVE",
"523 202 CURVE",
"399 213 LINE",
"395 176 OFFCURVE",
"381 110 OFFCURVE",
"322 110 CURVE SMOOTH",
"234 110 OFFCURVE",
"223 254 OFFCURVE",
"223 377 CURVE SMOOTH",
"223 558 OFFCURVE",
"248 648 OFFCURVE",
"312 648 CURVE SMOOTH",
"374 648 OFFCURVE",
"381 563 OFFCURVE",
"381 532 CURVE",
"522 539 LINE",
"522 649 OFFCURVE",
"449 766 OFFCURVE",
"308 766 CURVE SMOOTH",
"150 766 OFFCURVE",
"76 622 OFFCURVE",
"76 370 CURVE SMOOTH",
"76 126 OFFCURVE",
"146 -16 OFFCURVE",
"312 -16 CURVE SMOOTH"
);
},
{
closed = 1;
nodes = (
"447 271 LINE",
"447 342 LINE",
"25 342 LINE",
"25 271 LINE"
);
},
{
closed = 1;
nodes = (
"447 408 LINE",
"447 479 LINE",
"25 479 LINE",
"25 408 LINE"
);
}
);
width = 557;
}
);
unicode = 20AC;
},
{
color = 4;
glyphname = florin;
lastChange = "2016-07-29 15:34:05 +0000";
layers = (
{
layerId = "849A9C4C-BF7C-40C5-8614-1FD725A2A379";
paths = (
{
closed = 1;
nodes = (
"228 -192 OFFCURVE",
"231 -102 OFFCURVE",
"231 -11 CURVE SMOOTH",
"231 306 LINE",
"325 306 LINE",
"325 422 LINE",
"231 422 LINE",
"231 573 LINE SMOOTH",
"231 614 OFFCURVE",
"236 656 OFFCURVE",
"295 656 CURVE SMOOTH",
"326 656 LINE",
"326 740 LINE",
"320 743 OFFCURVE",
"313 745 OFFCURVE",
"304 748 CURVE SMOOTH",
"289 751 OFFCURVE",
"265 755 OFFCURVE",
"230 755 CURVE SMOOTH",
"95 755 OFFCURVE",
"91 664 OFFCURVE",
"91 573 CURVE SMOOTH",
"91 422 LINE",
"21 422 LINE",
"21 307 LINE",
"91 307 LINE",
"91 -10 LINE SMOOTH",
"91 -51 OFFCURVE",
"86 -94 OFFCURVE",
"27 -94 CURVE SMOOTH",
"-3 -94 LINE",
"-3 -178 LINE",
"2 -181 OFFCURVE",
"10 -183 OFFCURVE",
"19 -185 CURVE SMOOTH",
"34 -189 OFFCURVE",
"57 -192 OFFCURVE",
"92 -192 CURVE SMOOTH"
);
}
);
width = 344;
}
);
unicode = 0192;
},
{
glyphname = franc;
lastChange = "2016-07-29 15:34:05 +0000";
layers = (
{
background = {
paths = (
{
closed = 1;
nodes = (
"241 638 LINE",
"263 638 LINE SMOOTH",
"353 638 OFFCURVE",
"407 621 OFFCURVE",
"407 533 CURVE SMOOTH",
"407 435 OFFCURVE",
"345 414 OFFCURVE",
"267 414 CURVE SMOOTH",
"229 414 LINE",
"229 310 LINE",
"373 310 OFFCURVE",
"553 325 OFFCURVE",
"553 530 CURVE SMOOTH",
"553 743 OFFCURVE",
"371 750 OFFCURVE",
"219 750 CURVE",
"95 750 LINE",
"95 0 LINE",
"241 0 LINE"
);
},
{
closed = 1;
nodes = (
"25 379 LINE",
"25 309 LINE",
"207 309 LINE",
"207 379 LINE"
);
},
{
closed = 1;
nodes = (
"25 243 LINE",
"25 172 LINE",
"452 172 LINE",
"452 243 LINE"
);
}
);
};
layerId = "849A9C4C-BF7C-40C5-8614-1FD725A2A379";
paths = (
{
closed = 1;
nodes = (
"241 0 LINE",
"241 316 LINE",
"464 316 LINE",
"464 441 LINE",
"241 441 LINE",
"241 632 LINE",
"464 632 LINE",
"464 750 LINE",
"95 750 LINE",
"95 0 LINE"
);
},
{
closed = 1;
nodes = (
"464 172 LINE",
"464 243 LINE",
"25 243 LINE",
"25 172 LINE"
);
}
);
width = 489;
}
);
unicode = 20A3;
},
{
glyphname = guarani;
lastChange = "2016-07-29 15:34:05 +0000";
layers = (
{
layerId = "849A9C4C-BF7C-40C5-8614-1FD725A2A379";
paths = (
{
closed = 1;
nodes = (
"427 11 OFFCURVE",
"513 138 OFFCURVE",
"513 375 CURVE",
"298 375 LINE",
"298 287 LINE",
"394 287 LINE",
"376 295 LINE",
"376 210 OFFCURVE",
"353 128 OFFCURVE",
"277 128 CURVE SMOOTH",
"176 128 OFFCURVE",
"176 285 OFFCURVE",
"176 370 CURVE SMOOTH",
"176 472 OFFCURVE",
"193 617 OFFCURVE",
"284 617 CURVE SMOOTH",
"359 617 OFFCURVE",
"363 533 OFFCURVE",
"371 496 CURVE",
"510 505 LINE",
"510 625 OFFCURVE",
"439 734 OFFCURVE",
"288 734 CURVE SMOOTH",
"96 734 OFFCURVE",
"30 548 OFFCURVE",
"30 364 CURVE SMOOTH",
"30 185 OFFCURVE",
"90 11 OFFCURVE",
"286 11 CURVE SMOOTH"
);
},
{
closed = 1;
nodes = (
"311 -47 LINE",
"311 797 LINE",
"245 797 LINE",
"245 -47 LINE"
);
}
);
width = 547;
}
);
unicode = 20B2;
},
{
glyphname = kip;
lastChange = "2016-07-29 15:34:05 +0000";
layers = (
{
background = {
paths = (
{
closed = 1;
nodes = (
"577 348 LINE",
"577 441 LINE",
"20 441 LINE",
"20 348 LINE"
);
}
);
};
layerId = "849A9C4C-BF7C-40C5-8614-1FD725A2A379";
paths = (
{
closed = 1;
nodes = (
"588 0 LINE",
"407 406 LINE",
"583 750 LINE",
"421 750 LINE",
"259 417 LINE",
"426 0 LINE"
);
},
{
closed = 1;
nodes = (
"229 0 LINE",
"229 750 LINE",
"83 750 LINE",
"83 0 LINE"
);
},
{
closed = 1;
nodes = (
"576 361 LINE",
"576 431 LINE",
"20 431 LINE",
"20 361 LINE"
);
}
);
width = 601;
}
);
unicode = 20AD;
},
{
glyphname = lira;
lastChange = "2016-07-29 15:34:05 +0000";
layers = (
{
background = {
paths = (
{
closed = 1;
nodes = (
"453 -16 OFFCURVE",
"521 89 OFFCURVE",
"521 202 CURVE",
"397 213 LINE",
"393 176 OFFCURVE",
"379 110 OFFCURVE",
"320 110 CURVE SMOOTH",
"232 110 OFFCURVE",
"221 254 OFFCURVE",
"221 377 CURVE SMOOTH",
"221 558 OFFCURVE",
"246 648 OFFCURVE",
"310 648 CURVE SMOOTH",
"372 648 OFFCURVE",
"379 563 OFFCURVE",
"379 532 CURVE",
"521 539 LINE",
"521 649 OFFCURVE",
"447 766 OFFCURVE",
"306 766 CURVE SMOOTH",
"148 766 OFFCURVE",
"74 622 OFFCURVE",
"74 370 CURVE SMOOTH",
"74 126 OFFCURVE",
"144 -16 OFFCURVE",
"310 -16 CURVE SMOOTH"
);
},
{
closed = 1;
nodes = (
"23 479 LINE",
"23 408 LINE",
"445 408 LINE",
"445 479 LINE"
);
},
{
closed = 1;
nodes = (
"23 342 LINE",
"23 271 LINE",
"445 271 LINE",
"445 342 LINE"
);
}
);
};
layerId = "849A9C4C-BF7C-40C5-8614-1FD725A2A379";
paths = (
{
closed = 1;
nodes = (
"139 -6 OFFCURVE",
"182 47 OFFCURVE",
"267 47 CURVE SMOOTH",
"295 47 OFFCURVE",
"336 42 OFFCURVE",
"379 -1 CURVE",
"400 5 LINE",
"400 113 LINE",
"357 140 OFFCURVE",
"314 157 OFFCURVE",
"270 157 CURVE SMOOTH",
"246 157 OFFCURVE",
"223 152 OFFCURVE",
"201 141 CURVE",
"244 207 OFFCURVE",
"259 262 OFFCURVE",
"259 308 CURVE SMOOTH",
"259 412 OFFCURVE",
"186 480 OFFCURVE",
"186 578 CURVE SMOOTH",
"186 628 OFFCURVE",
"205 650 OFFCURVE",
"232 650 CURVE SMOOTH",
"264 650 OFFCURVE",
"291 621 OFFCURVE",
"291 559 CURVE",
"404 602 LINE",
"389 713 OFFCURVE",
"307 764 OFFCURVE",
"227 764 CURVE SMOOTH",
"130 764 OFFCURVE",
"42 690 OFFCURVE",
"42 591 CURVE SMOOTH",
"42 506 OFFCURVE",
"108 407 OFFCURVE",
"108 276 CURVE SMOOTH",
"108 212 OFFCURVE",
"93 127 OFFCURVE",
"36 110 CURVE",
"36 18 LINE",
"46 6 OFFCURVE",
"66 -6 OFFCURVE",
"90 -6 CURVE SMOOTH"
);
},
{
closed = 1;
nodes = (
"404 271 LINE",
"404 342 LINE",
"25 342 LINE",
"25 271 LINE"
);
},
{
closed = 1;
nodes = (
"404 408 LINE",
"404 479 LINE",
"25 479 LINE",
"25 408 LINE"
);
}
);
width = 429;
}
);
unicode = 20A4;
},
{
glyphname = liraTurkish;
lastChange = "2016-07-29 15:34:05 +0000";
layers = (
{
layerId = "849A9C4C-BF7C-40C5-8614-1FD725A2A379";
paths = (
{
closed = 1;
nodes = (
"197 0 LINE",
"412 0 OFFCURVE",
"437 135 OFFCURVE",
"437 204 CURVE SMOOTH",
"437 289 LINE",
"333 289 LINE",
"333 209 LINE SMOOTH",
"333 161 OFFCURVE",
"304 117 OFFCURVE",
"214 117 CURVE SMOOTH",
"207 117 LINE",
"207 750 LINE",
"61 750 LINE",
"61 0 LINE"
);
},
{
closed = 1;
nodes = (
"383 396 LINE",
"383 472 LINE",
"25 293 LINE",
"25 218 LINE"
);
},
{
closed = 1;
nodes = (
"383 533 LINE",
"383 608 LINE",
"25 430 LINE",
"25 354 LINE"
);
}
);
width = 469;
}
);
unicode = 20BA;
},
{
glyphname = manat;
lastChange = "2016-07-29 15:34:05 +0000";
layers = (
{
layerId = "849A9C4C-BF7C-40C5-8614-1FD725A2A379";
paths = (
{
closed = 1;
nodes = (
"162 0 LINE",
"162 401 LINE SMOOTH",
"162 477 OFFCURVE",
"192 531 OFFCURVE",
"307 531 CURVE SMOOTH",
"427 531 OFFCURVE",
"448 480 OFFCURVE",
"448 401 CURVE SMOOTH",
"448 0 LINE",
"578 0 LINE",
"578 374 LINE SMOOTH",
"578 576 OFFCURVE",
"483 638 OFFCURVE",
"307 638 CURVE SMOOTH",
"128 638 OFFCURVE",
"32 576 OFFCURVE",
"32 374 CURVE SMOOTH",
"32 0 LINE"
);
},
{
closed = 1;
nodes = (
"355 0 LINE",
"355 778 LINE",
"254 778 LINE",
"254 0 LINE"
);
}
);
width = 609;
}
);
unicode = 20BC;
},
{
glyphname = naira;
lastChange = "2016-07-29 15:34:05 +0000";
layers = (
{
layerId = "849A9C4C-BF7C-40C5-8614-1FD725A2A379";
paths = (
{
closed = 1;
nodes = (
"224 0 LINE",
"224 463 LINE",
"440 0 LINE",
"563 0 LINE",
"563 750 LINE",
"439 750 LINE",
"439 304 LINE",
"246 750 LINE",
"93 750 LINE",
"93 0 LINE"
);
},
{
closed = 1;
nodes = (
"632 243 LINE",
"632 313 LINE",
"25 313 LINE",
"25 243 LINE"
);
},
{
closed = 1;
nodes = (
"632 448 LINE",
"632 518 LINE",
"25 518 LINE",
"25 448 LINE"
);
}
);
width = 657;
}
);
unicode = 20A6;
},
{
glyphname = peseta;
lastChange = "2016-07-29 15:34:05 +0000";
layers = (
{
layerId = "849A9C4C-BF7C-40C5-8614-1FD725A2A379";
paths = (
{
closed = 1;
nodes = (
"241 0 LINE",
"241 638 LINE",
"263 638 LINE SMOOTH",
"353 638 OFFCURVE",
"407 621 OFFCURVE",
"407 533 CURVE SMOOTH",
"407 435 OFFCURVE",
"345 414 OFFCURVE",
"267 414 CURVE SMOOTH",
"229 414 LINE",
"229 310 LINE",
"373 310 OFFCURVE",
"553 325 OFFCURVE",
"553 530 CURVE SMOOTH",
"553 743 OFFCURVE",
"371 750 OFFCURVE",
"219 750 CURVE",
"95 750 LINE",
"95 0 LINE"
);
},
{
closed = 1;
nodes = (
"646 491 LINE",
"646 561 LINE",
"25 561 LINE",
"25 491 LINE"
);
}
);
width = 658;
}
);
unicode = 20A7;
},
{
glyphname = peso;
lastChange = "2016-07-29 15:34:05 +0000";
layers = (
{
background = {
paths = (
{
closed = 1;
nodes = (
"241 638 LINE",
"263 638 LINE SMOOTH",
"353 638 OFFCURVE",
"407 621 OFFCURVE",
"407 533 CURVE SMOOTH",
"407 435 OFFCURVE",
"345 414 OFFCURVE",
"267 414 CURVE SMOOTH",
"229 414 LINE",
"229 310 LINE",
"373 310 OFFCURVE",
"553 325 OFFCURVE",
"553 530 CURVE SMOOTH",
"553 743 OFFCURVE",
"371 750 OFFCURVE",
"219 750 CURVE",
"95 750 LINE",
"95 0 LINE",
"241 0 LINE"
);
},
{
closed = 1;
nodes = (
"25 561 LINE",
"25 491 LINE",
"646 491 LINE",
"646 561 LINE"
);
}
);
};
layerId = "849A9C4C-BF7C-40C5-8614-1FD725A2A379";
paths = (
{
closed = 1;
nodes = (
"241 0 LINE",
"241 638 LINE",
"263 638 LINE SMOOTH",
"354 638 OFFCURVE",
"407 615 OFFCURVE",
"407 499 CURVE SMOOTH",
"407 369 OFFCURVE",
"344 340 OFFCURVE",
"267 340 CURVE SMOOTH",
"229 340 LINE",
"229 236 LINE",
"375 236 OFFCURVE",
"553 254 OFFCURVE",
"553 498 CURVE SMOOTH",
"553 741 OFFCURVE",
"369 750 OFFCURVE",
"219 750 CURVE",
"95 750 LINE",
"95 0 LINE"
);
},
{
closed = 1;
nodes = (
"621 387 LINE",
"621 457 LINE",
"25 457 LINE",
"25 387 LINE"
);
},
{
closed = 1;
nodes = (
"621 523 LINE",
"621 594 LINE",
"25 594 LINE",
"25 523 LINE"
);
}
);
width = 646;
}
);
unicode = 20B1;
},
{
glyphname = ruble;
lastChange = "2016-07-29 15:34:05 +0000";
layers = (
{
background = {
components = (
{
name = rupeeIndian;
transform = "{1, 0, 0, 1, 220, 0}";
}
);
};
layerId = "849A9C4C-BF7C-40C5-8614-1FD725A2A379";
paths = (
{
closed = 1;
nodes = (
"241 0 LINE",
"241 638 LINE",
"263 638 LINE SMOOTH",
"353 638 OFFCURVE",
"407 621 OFFCURVE",
"407 533 CURVE SMOOTH",
"407 435 OFFCURVE",
"345 414 OFFCURVE",
"267 414 CURVE SMOOTH",
"229 414 LINE",
"229 310 LINE",
"373 310 OFFCURVE",
"553 325 OFFCURVE",
"553 530 CURVE SMOOTH",
"553 743 OFFCURVE",
"371 750 OFFCURVE",
"219 750 CURVE",
"95 750 LINE",
"95 0 LINE"
);
},
{
closed = 1;
nodes = (
"452 172 LINE",
"452 243 LINE",
"25 243 LINE",
"25 172 LINE"
);
},
{
closed = 1;
nodes = (
"207 309 LINE",
"207 379 LINE",
"25 379 LINE",
"25 309 LINE"
);
}
);
width = 586;
}
);
unicode = 20BD;
},
{
glyphname = rupeeIndian;
lastChange = "2016-07-29 15:34:05 +0000";
layers = (
{
layerId = "849A9C4C-BF7C-40C5-8614-1FD725A2A379";
paths = (
{
closed = 1;
nodes = (
"298 309 LINE",
"389 344 OFFCURVE",
"455 413 OFFCURVE",
"455 529 CURVE SMOOTH",
"455 681 OFFCURVE",
"344 750 OFFCURVE",
"180 750 CURVE",
"32 750 LINE",
"32 638 LINE",
"216 638 LINE SMOOTH",
"270 638 OFFCURVE",
"309 606 OFFCURVE",
"309 528 CURVE SMOOTH",
"309 435 OFFCURVE",
"254 413 OFFCURVE",
"198 413 CURVE SMOOTH",
"37 413 LINE",
"37 309 LINE"
);
},
{
closed = 1;
nodes = (
"494 0 LINE",
"320 358 LINE",
"178 336 LINE",
"333 0 LINE"
);
},
{
closed = 1;
nodes = (
"546 490 LINE",
"546 561 LINE",
"32 561 LINE",
"32 490 LINE"
);
},
{
closed = 1;
nodes = (
"546 680 LINE",
"546 750 LINE",
"32 750 LINE",
"32 680 LINE"
);
}
);
width = 559;
}
);
unicode = 20B9;
},
{
color = 4;
glyphname = sterling;
lastChange = "2016-07-29 15:34:05 +0000";
layers = (
{
layerId = "849A9C4C-BF7C-40C5-8614-1FD725A2A379";
paths = (
{
closed = 1;
nodes = (
"150 -6 OFFCURVE",
"194 47 OFFCURVE",
"278 47 CURVE SMOOTH",
"307 47 OFFCURVE",
"348 42 OFFCURVE",
"391 -1 CURVE",
"412 5 LINE",
"412 113 LINE",
"369 140 OFFCURVE",
"326 157 OFFCURVE",
"282 157 CURVE SMOOTH",
"257 157 OFFCURVE",
"235 152 OFFCURVE",
"212 141 CURVE",
"256 207 OFFCURVE",
"271 262 OFFCURVE",
"271 308 CURVE SMOOTH",
"271 412 OFFCURVE",
"197 480 OFFCURVE",
"197 578 CURVE SMOOTH",
"197 628 OFFCURVE",
"217 650 OFFCURVE",
"244 650 CURVE SMOOTH",
"276 650 OFFCURVE",
"302 621 OFFCURVE",
"302 559 CURVE",
"416 602 LINE",
"401 713 OFFCURVE",
"318 764 OFFCURVE",
"239 764 CURVE SMOOTH",
"142 764 OFFCURVE",
"54 690 OFFCURVE",
"54 591 CURVE SMOOTH",
"54 506 OFFCURVE",
"120 407 OFFCURVE",
"120 276 CURVE SMOOTH",
"120 212 OFFCURVE",
"104 127 OFFCURVE",
"47 110 CURVE",
"47 18 LINE",
"58 6 OFFCURVE",
"78 -6 OFFCURVE",
"102 -6 CURVE SMOOTH"
);
},
{
closed = 1;
nodes = (
"381 311 LINE",
"381 404 LINE",
"37 404 LINE",
"37 311 LINE"
);
}
);
width = 446;
}
);
unicode = 00A3;
},
{
glyphname = won;
lastChange = "2016-07-29 15:34:05 +0000";
layers = (
{
layerId = "849A9C4C-BF7C-40C5-8614-1FD725A2A379";
paths = (
{
closed = 1;
nodes = (
"334 0 LINE",
"434 587 LINE",
"426 587 LINE",
"495 0 LINE",
"640 0 LINE",
"800 750 LINE",
"667 750 LINE",
"565 143 LINE",
"574 143 LINE",
"491 750 LINE",
"372 750 LINE",
"283 147 LINE",
"291 147 LINE",
"208 750 LINE",
"46 750 LINE",
"200 0 LINE"
);
},
{
closed = 1;
nodes = (
"824 272 LINE",
"824 342 LINE",
"25 342 LINE",
"25 272 LINE"
);
},
{
closed = 1;
nodes = (
"824 409 LINE",
"824 479 LINE",
"25 479 LINE",
"25 409 LINE"
);
}
);
width = 850;
}
);
unicode = 20A9;
},
{
color = 4;
glyphname = yen;
lastChange = "2016-07-29 15:34:05 +0000";
layers = (
{
layerId = "849A9C4C-BF7C-40C5-8614-1FD725A2A379";
paths = (
{
closed = 1;
nodes = (
"345 0 LINE",
"345 314 LINE",
"519 750 LINE",
"392 750 LINE",
"281 438 LINE",
"178 750 LINE",
"17 750 LINE",
"197 297 LINE",
"197 0 LINE"
);
},
{
closed = 1;
nodes = (
"482 145 LINE",
"482 215 LINE",
"61 215 LINE",
"61 145 LINE"
);
},
{
closed = 1;
nodes = (
"482 296 LINE",
"482 367 LINE",
"61 367 LINE",
"61 296 LINE"
);
}
);
width = 535;
}
);
unicode = 00A5;
},
{
glyphname = bulletoperator;
lastChange = "2016-07-29 15:34:05 +0000";
layers = (
{
layerId = "849A9C4C-BF7C-40C5-8614-1FD725A2A379";
paths = (
{
closed = 1;
nodes = (
"225 346 OFFCURVE",
"280 398 OFFCURVE",
"280 466 CURVE SMOOTH",
"280 531 OFFCURVE",
"225 586 OFFCURVE",
"160 586 CURVE SMOOTH",
"93 586 OFFCURVE",
"39 531 OFFCURVE",
"39 466 CURVE SMOOTH",
"39 398 OFFCURVE",
"93 346 OFFCURVE",
"160 346 CURVE SMOOTH"
);
}
);
width = 319;
}
);
unicode = 2219;
},
{
color = 4;
glyphname = plus;
lastChange = "2016-07-29 15:34:05 +0000";
layers = (
{
layerId = "849A9C4C-BF7C-40C5-8614-1FD725A2A379";
paths = (
{
closed = 1;
nodes = (
"267 10 LINE",
"267 127 LINE",
"384 127 LINE",
"384 243 LINE",
"267 243 LINE",
"267 360 LINE",
"150 360 LINE",
"150 243 LINE",
"33 243 LINE",
"33 127 LINE",
"150 127 LINE",
"150 10 LINE"
);
}
);
width = 417;
}
);
unicode = 002B;
},
{
color = 4;
glyphname = minus;
lastChange = "2016-07-29 15:34:05 +0000";
layers = (
{
layerId = "849A9C4C-BF7C-40C5-8614-1FD725A2A379";
paths = (
{
closed = 1;
nodes = (
"337 234 LINE",
"337 351 LINE",
"56 351 LINE",
"56 234 LINE"
);
}
);
width = 393;
}
);
unicode = 2212;
},
{
color = 4;
glyphname = multiply;
lastChange = "2016-07-29 15:34:05 +0000";
layers = (
{
layerId = "849A9C4C-BF7C-40C5-8614-1FD725A2A379";
paths = (
{
closed = 1;
nodes = (
"384 177 LINE",
"291 270 LINE",
"382 361 LINE",
"300 443 LINE",
"208 352 LINE",
"119 442 LINE",
"36 359 LINE",
"126 270 LINE",
"35 178 LINE",
"117 96 LINE",
"208 188 LINE",
"301 94 LINE"
);
}
);
width = 418;
}
);
unicode = 00D7;
},
{
color = 4;
glyphname = divide;
lastChange = "2016-07-29 15:34:05 +0000";
layers = (
{
layerId = "849A9C4C-BF7C-40C5-8614-1FD725A2A379";
paths = (
{
closed = 1;
nodes = (
"358 188 LINE",
"358 281 LINE",
"31 281 LINE",
"31 188 LINE"
);
},
{
closed = 1;
nodes = (
"266 0 LINE",
"266 141 LINE",
"125 141 LINE",
"125 -6 LINE"
);
},
{
closed = 1;
nodes = (
"266 328 LINE",
"266 469 LINE",
"125 469 LINE",
"125 328 LINE"
);
}
);
width = 389;
}
);
unicode = 00F7;
},
{
color = 4;
glyphname = equal;
lastChange = "2016-07-29 15:34:05 +0000";
layers = (
{
layerId = "849A9C4C-BF7C-40C5-8614-1FD725A2A379";
paths = (
{
closed = 1;
nodes = (
"337 328 LINE",
"337 444 LINE",
"56 444 LINE",
"56 328 LINE"
);
},
{
closed = 1;
nodes = (
"337 141 LINE",
"337 257 LINE",
"56 257 LINE",
"56 141 LINE"
);
}
);
width = 393;
}
);
unicode = 003D;
},
{
color = 4;
glyphname = notequal;
lastChange = "2016-07-29 15:34:05 +0000";
layers = (
{
layerId = "849A9C4C-BF7C-40C5-8614-1FD725A2A379";
paths = (
{
closed = 1;
nodes = (
"337 328 LINE",
"337 444 LINE",
"56 444 LINE",
"56 328 LINE"
);
},
{
closed = 1;
nodes = (
"337 141 LINE",
"337 257 LINE",
"56 257 LINE",
"56 141 LINE"
);
}
);
width = 393;
}
);
unicode = 2260;
},
{
color = 4;
glyphname = greater;
lastChange = "2016-07-29 15:34:05 +0000";
layers = (
{
layerId = "849A9C4C-BF7C-40C5-8614-1FD725A2A379";
paths = (
{
closed = 1;
nodes = (
"449 214 LINE",
"449 344 LINE",
"54 520 LINE",
"61 392 LINE",
"281 296 LINE",
"48 211 LINE",
"55 43 LINE"
);
}
);
width = 477;
}
);
unicode = 003E;
},
{
color = 4;
glyphname = less;
lastChange = "2016-07-29 15:34:05 +0000";
layers = (
{
layerId = "849A9C4C-BF7C-40C5-8614-1FD725A2A379";
paths = (
{
closed = 1;
nodes = (
"429 211 LINE",
"196 296 LINE",
"416 392 LINE",
"423 520 LINE",
"27 344 LINE",
"27 214 LINE",
"422 43 LINE"
);
}
);
width = 477;
}
);
unicode = 003C;
},
{
color = 4;
glyphname = greaterequal;
lastChange = "2016-07-29 15:34:05 +0000";
layers = (
{
layerId = "849A9C4C-BF7C-40C5-8614-1FD725A2A379";
paths = (
{
closed = 1;
nodes = (
"448 402 LINE",
"448 531 LINE",
"53 707 LINE",
"60 580 LINE",
"280 484 LINE",
"47 398 LINE",
"54 231 LINE"
);
},
{
closed = 1;
nodes = (
"388 0 LINE",
"388 116 LINE",
"107 116 LINE",
"107 0 LINE"
);
}
);
width = 478;
}
);
unicode = 2265;
},
{
color = 4;
glyphname = lessequal;
lastChange = "2016-07-29 15:34:05 +0000";
layers = (
{
layerId = "849A9C4C-BF7C-40C5-8614-1FD725A2A379";
paths = (
{
closed = 1;
nodes = (
"431 398 LINE",
"198 484 LINE",
"418 580 LINE",
"425 707 LINE",
"30 531 LINE",
"30 402 LINE",
"424 231 LINE"
);
},
{
closed = 1;
nodes = (
"371 0 LINE",
"371 116 LINE",
"90 116 LINE",
"90 0 LINE"
);
}
);
width = 478;
}
);
unicode = 2264;
},
{
color = 4;
glyphname = plusminus;
lastChange = "2016-07-29 15:34:05 +0000";
layers = (
{
layerId = "849A9C4C-BF7C-40C5-8614-1FD725A2A379";
paths = (
{
closed = 1;
nodes = (
"270 164 LINE",
"270 281 LINE",
"387 281 LINE",
"387 397 LINE",
"270 397 LINE",
"270 515 LINE",
"154 515 LINE",
"154 397 LINE",
"37 397 LINE",
"37 281 LINE",
"154 281 LINE",
"154 164 LINE"
);
},
{
closed = 1;
nodes = (
"351 0 LINE",
"351 117 LINE",
"69 117 LINE",
"69 0 LINE"
);
}
);
width = 423;
}
);
unicode = 00B1;
},
{
color = 4;
glyphname = approxequal;
lastChange = "2016-07-29 15:34:05 +0000";
layers = (
{
background = {
components = (
{
name = equal;
}
);
};
layerId = "849A9C4C-BF7C-40C5-8614-1FD725A2A379";
paths = (
{
closed = 1;
nodes = (
"319 296 OFFCURVE",
"356 360 OFFCURVE",
"356 362 CURVE SMOOTH",
"356 451 LINE",
"342 425 OFFCURVE",
"309 397 OFFCURVE",
"272 397 CURVE SMOOTH",
"221 397 OFFCURVE",
"199 451 OFFCURVE",
"151 451 CURVE SMOOTH",
"124 451 OFFCURVE",
"98 434 OFFCURVE",
"79 417 CURVE SMOOTH",
"67 406 OFFCURVE",
"56 395 OFFCURVE",
"45 382 CURVE",
"45 302 LINE",
"64 322 OFFCURVE",
"100 355 OFFCURVE",
"140 355 CURVE SMOOTH",
"192 355 OFFCURVE",
"215 296 OFFCURVE",
"266 296 CURVE SMOOTH"
);
},
{
closed = 1;
nodes = (
"319 108 OFFCURVE",
"356 172 OFFCURVE",
"356 174 CURVE SMOOTH",
"356 263 LINE",
"342 236 OFFCURVE",
"309 209 OFFCURVE",
"272 209 CURVE SMOOTH",
"221 209 OFFCURVE",
"199 263 OFFCURVE",
"151 263 CURVE SMOOTH",
"124 263 OFFCURVE",
"98 245 OFFCURVE",
"79 228 CURVE SMOOTH",
"67 218 OFFCURVE",
"56 206 OFFCURVE",
"45 193 CURVE",
"45 113 LINE",
"64 133 OFFCURVE",
"100 167 OFFCURVE",
"140 167 CURVE SMOOTH",
"192 167 OFFCURVE",
"215 108 OFFCURVE",
"266 108 CURVE SMOOTH"
);
}
);
width = 404;
}
);
unicode = 2248;
},
{
color = 4;
glyphname = asciitilde;
lastChange = "2016-07-29 15:34:05 +0000";
layers = (
{
layerId = "849A9C4C-BF7C-40C5-8614-1FD725A2A379";
paths = (
{
closed = 1;
nodes = (
"319 370 OFFCURVE",
"356 434 OFFCURVE",
"356 436 CURVE SMOOTH",
"356 524 LINE",
"342 498 OFFCURVE",
"309 471 OFFCURVE",
"272 471 CURVE SMOOTH",
"221 471 OFFCURVE",
"199 524 OFFCURVE",
"151 524 CURVE SMOOTH",
"108 524 OFFCURVE",
"67 481 OFFCURVE",
"45 455 CURVE",
"45 375 LINE",
"64 395 OFFCURVE",
"100 429 OFFCURVE",
"140 429 CURVE SMOOTH",
"192 429 OFFCURVE",
"215 370 OFFCURVE",
"266 370 CURVE SMOOTH"
);
}
);
width = 398;
}
);
unicode = 007E;
},
{
color = 4;
glyphname = logicalnot;
lastChange = "2016-07-29 15:34:05 +0000";
layers = (
{
layerId = "849A9C4C-BF7C-40C5-8614-1FD725A2A379";
paths = (
{
closed = 1;
nodes = (
"328 141 LINE",
"328 351 LINE",
"46 351 LINE",
"46 234 LINE",
"257 234 LINE",
"257 141 LINE"
);
}
);
width = 385;
}
);
unicode = 00AC;
},
{
color = 4;
glyphname = micro;
lastChange = "2016-07-29 15:34:05 +0000";
layers = (
{
layerId = "849A9C4C-BF7C-40C5-8614-1FD725A2A379";
paths = (
{
closed = 1;
nodes = (
"203 -94 LINE",
"203 22 LINE",
"212 21 OFFCURVE",
"221 21 OFFCURVE",
"231 21 CURVE SMOOTH",
"265 21 OFFCURVE",
"304 37 OFFCURVE",
"344 66 CURVE",
"344 -6 LINE",
"484 6 LINE",
"484 563 LINE",
"344 551 LINE",
"344 155 LINE",
"310 133 OFFCURVE",
"275 111 OFFCURVE",
"250 111 CURVE SMOOTH",
"222 111 OFFCURVE",
"203 131 OFFCURVE",
"203 186 CURVE SMOOTH",
"203 563 LINE",
"63 551 LINE",
"63 -100 LINE"
);
}
);
width = 537;
}
);
unicode = 00B5;
subCategory = Math;
},
{
color = 4;
glyphname = percent;
lastChange = "2016-07-29 15:34:05 +0000";
layers = (
{
layerId = "849A9C4C-BF7C-40C5-8614-1FD725A2A379";
paths = (
{
closed = 1;
nodes = (
"478 0 LINE",
"670 750 LINE",
"535 750 LINE",
"343 0 LINE"
);
},
{
closed = 1;
nodes = (
"339 357 OFFCURVE",
"406 439 OFFCURVE",
"406 554 CURVE SMOOTH",
"406 667 OFFCURVE",
"340 750 OFFCURVE",
"213 750 CURVE SMOOTH",
"87 750 OFFCURVE",
"23 667 OFFCURVE",
"23 554 CURVE SMOOTH",
"23 439 OFFCURVE",
"88 357 OFFCURVE",
"213 357 CURVE SMOOTH"
);
},
{
closed = 1;
nodes = (
"167 452 OFFCURVE",
"144 506 OFFCURVE",
"144 558 CURVE SMOOTH",
"144 609 OFFCURVE",
"167 661 OFFCURVE",
"214 661 CURVE SMOOTH",
"261 661 OFFCURVE",
"284 608 OFFCURVE",
"284 556 CURVE SMOOTH",
"284 503 OFFCURVE",
"260 452 OFFCURVE",
"214 452 CURVE SMOOTH"
);
},
{
closed = 1;
nodes = (
"934 0 OFFCURVE",
"1000 82 OFFCURVE",
"1000 196 CURVE SMOOTH",
"1000 310 OFFCURVE",
"935 392 OFFCURVE",
"808 392 CURVE SMOOTH",
"682 392 OFFCURVE",
"618 310 OFFCURVE",
"618 196 CURVE SMOOTH",
"618 82 OFFCURVE",
"683 0 OFFCURVE",
"808 0 CURVE SMOOTH"
);
},
{
closed = 1;
nodes = (
"762 94 OFFCURVE",
"738 148 OFFCURVE",
"738 200 CURVE SMOOTH",
"738 251 OFFCURVE",
"762 303 OFFCURVE",
"809 303 CURVE SMOOTH",
"855 303 OFFCURVE",
"879 250 OFFCURVE",
"879 198 CURVE SMOOTH",
"879 146 OFFCURVE",
"855 94 OFFCURVE",
"809 94 CURVE SMOOTH"
);
}
);
width = 1023;
}
);
unicode = 0025;
},
{
color = 4;
glyphname = perthousand;
lastChange = "2016-07-29 15:34:05 +0000";
layers = (
{
layerId = "849A9C4C-BF7C-40C5-8614-1FD725A2A379";
paths = (
{
closed = 1;
nodes = (
"478 0 LINE",
"670 750 LINE",
"535 750 LINE",
"343 0 LINE"
);
},
{
closed = 1;
nodes = (
"339 357 OFFCURVE",
"406 439 OFFCURVE",
"406 554 CURVE SMOOTH",
"406 667 OFFCURVE",
"340 750 OFFCURVE",
"213 750 CURVE SMOOTH",
"87 750 OFFCURVE",
"23 667 OFFCURVE",
"23 554 CURVE SMOOTH",
"23 439 OFFCURVE",
"88 357 OFFCURVE",
"213 357 CURVE SMOOTH"
);
},
{
closed = 1;
nodes = (
"167 452 OFFCURVE",
"144 506 OFFCURVE",
"144 558 CURVE SMOOTH",
"144 608 OFFCURVE",
"167 661 OFFCURVE",
"214 661 CURVE SMOOTH",
"261 661 OFFCURVE",
"284 608 OFFCURVE",
"284 556 CURVE SMOOTH",
"284 503 OFFCURVE",
"260 452 OFFCURVE",
"214 452 CURVE SMOOTH"
);
},
{
closed = 1;
nodes = (
"934 0 OFFCURVE",
"1000 82 OFFCURVE",
"1000 196 CURVE SMOOTH",
"1000 310 OFFCURVE",
"935 392 OFFCURVE",
"808 392 CURVE SMOOTH",
"682 392 OFFCURVE",
"618 310 OFFCURVE",
"618 196 CURVE SMOOTH",
"618 82 OFFCURVE",
"683 0 OFFCURVE",
"808 0 CURVE SMOOTH"
);
},
{
closed = 1;
nodes = (
"762 94 OFFCURVE",
"738 148 OFFCURVE",
"738 200 CURVE SMOOTH",
"738 250 OFFCURVE",
"762 303 OFFCURVE",
"809 303 CURVE SMOOTH",
"855 303 OFFCURVE",
"879 250 OFFCURVE",
"879 198 CURVE SMOOTH",
"879 146 OFFCURVE",
"855 94 OFFCURVE",
"809 94 CURVE SMOOTH"
);
},
{
closed = 1;
nodes = (
"1374 0 OFFCURVE",
"1440 82 OFFCURVE",
"1440 196 CURVE SMOOTH",
"1440 310 OFFCURVE",
"1375 392 OFFCURVE",
"1248 392 CURVE SMOOTH",
"1122 392 OFFCURVE",
"1058 310 OFFCURVE",
"1058 196 CURVE SMOOTH",
"1058 82 OFFCURVE",
"1123 0 OFFCURVE",
"1248 0 CURVE SMOOTH"
);
},
{
closed = 1;
nodes = (
"1202 94 OFFCURVE",
"1178 148 OFFCURVE",
"1178 200 CURVE SMOOTH",
"1178 250 OFFCURVE",
"1202 303 OFFCURVE",
"1249 303 CURVE SMOOTH",
"1295 303 OFFCURVE",
"1319 250 OFFCURVE",
"1319 198 CURVE SMOOTH",
"1319 146 OFFCURVE",
"1295 94 OFFCURVE",
"1249 94 CURVE SMOOTH"
);
}
);
width = 1463;
}
);
unicode = 2030;
},
{
color = 4;
glyphname = at;
lastChange = "2016-07-29 15:34:05 +0000";
layers = (
{
layerId = "849A9C4C-BF7C-40C5-8614-1FD725A2A379";
paths = (
{
closed = 1;
nodes = (
"442 -16 OFFCURVE",
"522 5 OFFCURVE",
"624 61 CURVE",
"588 134 LINE",
"504 92 OFFCURVE",
"437 74 OFFCURVE",
"374 74 CURVE SMOOTH",
"210 74 OFFCURVE",
"136 197 OFFCURVE",
"136 329 CURVE SMOOTH",
"136 467 OFFCURVE",
"217 614 OFFCURVE",
"415 614 CURVE SMOOTH",
"635 614 OFFCURVE",
"652 432 OFFCURVE",
"652 357 CURVE SMOOTH",
"652 315 OFFCURVE",
"647 229 OFFCURVE",
"594 229 CURVE SMOOTH",
"573 229 OFFCURVE",
"560 242 OFFCURVE",
"560 284 CURVE SMOOTH",
"560 513 LINE",
"483 513 LINE",
"466 459 LINE",
"446 499 OFFCURVE",
"402 521 OFFCURVE",
"358 521 CURVE SMOOTH",
"292 521 OFFCURVE",
"222 470 OFFCURVE",
"222 343 CURVE SMOOTH",
"222 218 OFFCURVE",
"290 158 OFFCURVE",
"359 158 CURVE SMOOTH",
"409 158 OFFCURVE",
"452 188 OFFCURVE",
"485 249 CURVE",
"499 209 OFFCURVE",
"523 170 OFFCURVE",
"590 170 CURVE SMOOTH",
"685 170 OFFCURVE",
"745 249 OFFCURVE",
"745 379 CURVE SMOOTH",
"745 598 OFFCURVE",
"574 709 OFFCURVE",
"396 709 CURVE SMOOTH",
"161 709 OFFCURVE",
"27 513 OFFCURVE",
"27 324 CURVE SMOOTH",
"27 151 OFFCURVE",
"138 -16 OFFCURVE",
"363 -16 CURVE SMOOTH"
);
},
{
closed = 1;
nodes = (
"363 250 OFFCURVE",
"336 279 OFFCURVE",
"336 344 CURVE SMOOTH",
"336 402 OFFCURVE",
"358 445 OFFCURVE",
"393 445 CURVE SMOOTH",
"410 445 OFFCURVE",
"428 436 OFFCURVE",
"451 412 CURVE",
"451 305 LINE",
"438 270 OFFCURVE",
"415 250 OFFCURVE",
"392 250 CURVE SMOOTH"
);
}
);
width = 771;
}
);
unicode = 0040;
},
{
color = 4;
glyphname = ampersand;
lastChange = "2016-07-29 15:34:05 +0000";
layers = (
{
layerId = "849A9C4C-BF7C-40C5-8614-1FD725A2A379";
paths = (
{
closed = 1;
nodes = (
"284 -14 OFFCURVE",
"357 26 OFFCURVE",
"410 75 CURVE",
"462 22 OFFCURVE",
"484 -7 OFFCURVE",
"599 -7 CURVE",
"599 119 LINE",
"550 125 OFFCURVE",
"519 143 OFFCURVE",
"490 172 CURVE",
"518 217 OFFCURVE",
"557 290 OFFCURVE",
"574 368 CURVE",
"463 403 LINE",
"452 352 OFFCURVE",
"430 293 OFFCURVE",
"415 259 CURVE",
"324 400 LINE",
"391 448 OFFCURVE",
"453 512 OFFCURVE",
"453 598 CURVE SMOOTH",
"453 695 OFFCURVE",
"375 755 OFFCURVE",
"278 755 CURVE SMOOTH",
"176 755 OFFCURVE",
"94 690 OFFCURVE",
"94 584 CURVE SMOOTH",
"94 512 OFFCURVE",
"131 441 OFFCURVE",
"162 398 CURVE",
"95 353 OFFCURVE",
"19 286 OFFCURVE",
"19 180 CURVE SMOOTH",
"19 75 OFFCURVE",
"92 -14 OFFCURVE",
"207 -14 CURVE SMOOTH"
);
},
{
closed = 1;
nodes = (
"182 115 OFFCURVE",
"153 155 OFFCURVE",
"153 201 CURVE SMOOTH",
"153 241 OFFCURVE",
"175 289 OFFCURVE",
"216 315 CURVE",
"341 151 LINE",
"321 136 OFFCURVE",
"283 115 OFFCURVE",
"241 115 CURVE SMOOTH"
);
},
{
closed = 1;
nodes = (
"244 528 OFFCURVE",
"222 566 OFFCURVE",
"222 599 CURVE SMOOTH",
"222 637 OFFCURVE",
"252 657 OFFCURVE",
"277 657 CURVE SMOOTH",
"302 657 OFFCURVE",
"333 637 OFFCURVE",
"333 600 CURVE SMOOTH",
"333 547 OFFCURVE",
"271 477 OFFCURVE",
"271 474 CURVE"
);
}
);
width = 623;
}
);
unicode = 0026;
},
{
color = 4;
glyphname = paragraph;
lastChange = "2016-07-29 15:34:05 +0000";
layers = (
{
layerId = "849A9C4C-BF7C-40C5-8614-1FD725A2A379";
paths = (
{
closed = 1;
nodes = (
"277 0 LINE",
"277 376 LINE",
"302 374 OFFCURVE",
"326 373 OFFCURVE",
"351 373 CURVE",
"351 0 LINE",
"464 0 LINE",
"464 629 LINE",
"535 629 LINE",
"535 750 LINE",
"419 750 LINE SMOOTH",
"249 750 OFFCURVE",
"23 758 OFFCURVE",
"23 559 CURVE SMOOTH",
"23 459 OFFCURVE",
"83 414 OFFCURVE",
"164 391 CURVE",
"164 0 LINE"
);
}
);
width = 563;
}
);
unicode = 00B6;
},
{
color = 4;
glyphname = section;
lastChange = "2016-07-29 15:34:05 +0000";
layers = (
{
layerId = "849A9C4C-BF7C-40C5-8614-1FD725A2A379";
paths = (
{
closed = 1;
nodes = (
"340 -16 OFFCURVE",
"437 42 OFFCURVE",
"437 155 CURVE SMOOTH",
"437 200 OFFCURVE",
"421 233 OFFCURVE",
"396 258 CURVE",
"424 288 OFFCURVE",
"441 326 OFFCURVE",
"441 378 CURVE SMOOTH",
"441 465 OFFCURVE",
"392 503 OFFCURVE",
"328 532 CURVE SMOOTH",
"254 566 OFFCURVE",
"179 580 OFFCURVE",
"179 624 CURVE SMOOTH",
"179 651 OFFCURVE",
"209 667 OFFCURVE",
"238 667 CURVE SMOOTH",
"283 667 OFFCURVE",
"302 628 OFFCURVE",
"311 599 CURVE",
"426 635 LINE",
"401 717 OFFCURVE",
"324 766 OFFCURVE",
"237 766 CURVE SMOOTH",
"142 766 OFFCURVE",
"49 708 OFFCURVE",
"49 596 CURVE SMOOTH",
"49 556 OFFCURVE",
"61 519 OFFCURVE",
"84 492 CURVE",
"56 459 OFFCURVE",
"44 420 OFFCURVE",
"44 381 CURVE SMOOTH",
"44 289 OFFCURVE",
"109 238 OFFCURVE",
"204 202 CURVE SMOOTH",
"246 186 OFFCURVE",
"302 170 OFFCURVE",
"302 131 CURVE SMOOTH",
"302 96 OFFCURVE",
"257 85 OFFCURVE",
"230 85 CURVE SMOOTH",
"182 85 OFFCURVE",
"156 120 OFFCURVE",
"149 152 CURVE",
"41 117 LINE",
"59 36 OFFCURVE",
"132 -16 OFFCURVE",
"233 -16 CURVE SMOOTH"
);
},
{
closed = 1;
nodes = (
"204 355 OFFCURVE",
"174 366 OFFCURVE",
"174 403 CURVE SMOOTH",
"174 416 OFFCURVE",
"178 424 OFFCURVE",
"186 434 CURVE",
"264 402 LINE SMOOTH",
"287 393 OFFCURVE",
"307 377 OFFCURVE",
"307 353 CURVE SMOOTH",
"307 336 OFFCURVE",
"298 327 OFFCURVE",
"288 319 CURVE"
);
}
);
width = 480;
}
);
unicode = 00A7;
},
{
color = 4;
glyphname = copyright;
lastChange = "2016-07-29 15:34:05 +0000";
layers = (
{
layerId = "849A9C4C-BF7C-40C5-8614-1FD725A2A379";
paths = (
{
closed = 1;
nodes = (
"514 0 OFFCURVE",
"656 147 OFFCURVE",
"656 329 CURVE SMOOTH",
"656 510 OFFCURVE",
"514 657 OFFCURVE",
"341 657 CURVE SMOOTH",
"168 657 OFFCURVE",
"26 510 OFFCURVE",
"26 329 CURVE SMOOTH",
"26 147 OFFCURVE",
"168 0 OFFCURVE",
"341 0 CURVE SMOOTH"
);
},
{
closed = 1;
nodes = (
"440 118 OFFCURVE",
"486 197 OFFCURVE",
"486 284 CURVE",
"404 292 LINE",
"400 243 OFFCURVE",
"392 191 OFFCURVE",
"349 191 CURVE SMOOTH",
"295 191 OFFCURVE",
"288 271 OFFCURVE",
"288 332 CURVE SMOOTH",
"288 393 OFFCURVE",
"295 461 OFFCURVE",
"341 461 CURVE SMOOTH",
"391 461 OFFCURVE",
"392 376 OFFCURVE",
"392 369 CURVE",
"485 373 LINE",
"485 454 OFFCURVE",
"437 540 OFFCURVE",
"342 540 CURVE SMOOTH",
"237 540 OFFCURVE",
"191 434 OFFCURVE",
"191 333 CURVE SMOOTH",
"191 237 OFFCURVE",
"232 118 OFFCURVE",
"347 118 CURVE SMOOTH"
);
},
{
closed = 1;
nodes = (
"204 65 OFFCURVE",
"91 183 OFFCURVE",
"91 329 CURVE SMOOTH",
"91 475 OFFCURVE",
"204 592 OFFCURVE",
"341 592 CURVE SMOOTH",
"478 592 OFFCURVE",
"591 475 OFFCURVE",
"591 329 CURVE SMOOTH",
"591 183 OFFCURVE",
"478 65 OFFCURVE",
"341 65 CURVE SMOOTH"
);
}
);
width = 682;
}
);
unicode = 00A9;
},
{
color = 4;
glyphname = registered;
lastChange = "2016-07-29 15:34:05 +0000";
layers = (
{
layerId = "849A9C4C-BF7C-40C5-8614-1FD725A2A379";
paths = (
{
closed = 1;
nodes = (
"514 0 OFFCURVE",
"656 147 OFFCURVE",
"656 329 CURVE SMOOTH",
"656 510 OFFCURVE",
"514 657 OFFCURVE",
"341 657 CURVE SMOOTH",
"168 657 OFFCURVE",
"26 510 OFFCURVE",
"26 329 CURVE SMOOTH",
"26 147 OFFCURVE",
"168 0 OFFCURVE",
"341 0 CURVE SMOOTH"
);
},
{
closed = 1;
nodes = (
"204 65 OFFCURVE",
"91 183 OFFCURVE",
"91 329 CURVE SMOOTH",
"91 475 OFFCURVE",
"204 592 OFFCURVE",
"341 592 CURVE SMOOTH",
"478 592 OFFCURVE",
"591 475 OFFCURVE",
"591 329 CURVE SMOOTH",
"591 183 OFFCURVE",
"478 65 OFFCURVE",
"341 65 CURVE SMOOTH"
);
},
{
closed = 1;
nodes = (
"476 168 LINE",
"411 322 LINE",
"447 336 OFFCURVE",
"468 361 OFFCURVE",
"468 410 CURVE SMOOTH",
"468 515 OFFCURVE",
"373 520 OFFCURVE",
"295 520 CURVE SMOOTH",
"217 520 LINE",
"217 141 LINE",
"301 149 LINE",
"301 308 LINE",
"334 308 LINE",
"397 141 LINE"
);
},
{
closed = 1;
nodes = (
"302 453 LINE",
"318 453 LINE SMOOTH",
"363 453 OFFCURVE",
"390 447 OFFCURVE",
"390 411 CURVE SMOOTH",
"390 374 OFFCURVE",
"361 367 OFFCURVE",
"320 367 CURVE SMOOTH",
"302 367 LINE"
);
}
);
width = 682;
}
);
unicode = 00AE;
},
{
color = 4;
glyphname = trademark;
lastChange = "2016-07-29 15:34:05 +0000";
layers = (
{
layerId = "849A9C4C-BF7C-40C5-8614-1FD725A2A379";
paths = (
{
closed = 1;
nodes = (
"842 268 LINE",
"842 675 LINE",
"706 666 LINE",
"638 434 LINE",
"569 678 LINE",
"420 674 LINE",
"420 263 LINE",
"504 268 LINE",
"504 539 LINE",
"591 263 LINE",
"654 263 LINE",
"736 537 LINE",
"736 259 LINE"
);
},
{
closed = 1;
nodes = (
"253 268 LINE",
"253 593 LINE",
"350 593 LINE",
"359 679 LINE",
"53 679 LINE",
"45 593 LINE",
"151 593 LINE",
"151 259 LINE"
);
}
);
width = 917;
}
);
unicode = 2122;
},
{
color = 4;
glyphname = degree;
lastChange = "2016-07-29 15:34:05 +0000";
layers = (
{
layerId = "849A9C4C-BF7C-40C5-8614-1FD725A2A379";
paths = (
{
closed = 1;
nodes = (
"352 189 OFFCURVE",
"416 269 OFFCURVE",
"416 375 CURVE SMOOTH",
"416 482 OFFCURVE",
"352 562 OFFCURVE",
"226 562 CURVE SMOOTH",
"100 562 OFFCURVE",
"33 482 OFFCURVE",
"33 375 CURVE SMOOTH",
"33 269 OFFCURVE",
"100 189 OFFCURVE",
"226 189 CURVE SMOOTH"
);
},
{
closed = 1;
nodes = (
"157 283 OFFCURVE",
"154 342 OFFCURVE",
"154 374 CURVE SMOOTH",
"154 413 OFFCURVE",
"159 468 OFFCURVE",
"226 468 CURVE SMOOTH",
"293 468 OFFCURVE",
"294 411 OFFCURVE",
"294 376 CURVE SMOOTH",
"294 341 OFFCURVE",
"293 283 OFFCURVE",
"226 283 CURVE SMOOTH"
);
}
);
width = 450;
}
);
unicode = 00B0;
},
{
color = 4;
glyphname = bar;
lastChange = "2016-07-29 15:34:05 +0000";
layers = (
{
layerId = "849A9C4C-BF7C-40C5-8614-1FD725A2A379";
paths = (
{
closed = 1;
nodes = (
"215 -47 LINE",
"215 797 LINE",
"69 797 LINE",
"69 -47 LINE"
);
}
);
width = 284;
}
);
unicode = 007C;
},
{
color = 4;
glyphname = brokenbar;
lastChange = "2016-07-29 15:34:05 +0000";
layers = (
{
layerId = "849A9C4C-BF7C-40C5-8614-1FD725A2A379";
paths = (
{
closed = 1;
nodes = (
"217 469 LINE",
"217 797 LINE",
"71 797 LINE",
"71 469 LINE"
);
},
{
closed = 1;
nodes = (
"217 -47 LINE",
"217 281 LINE",
"71 281 LINE",
"71 -47 LINE"
);
}
);
width = 288;
}
);
unicode = 00A6;
},
{
color = 4;
glyphname = dagger;
lastChange = "2016-07-29 15:34:05 +0000";
layers = (
{
layerId = "849A9C4C-BF7C-40C5-8614-1FD725A2A379";
paths = (
{
closed = 1;
nodes = (
"246 94 LINE",
"246 469 LINE",
"346 469 LINE",
"352 563 LINE",
"246 563 LINE",
"246 703 LINE",
"129 697 LINE",
"129 563 LINE",
"29 563 LINE",
"23 469 LINE",
"129 469 LINE",
"129 88 LINE"
);
}
);
width = 375;
}
);
unicode = 2020;
},
{
color = 4;
glyphname = daggerdbl;
lastChange = "2016-07-29 15:34:05 +0000";
layers = (
{
layerId = "849A9C4C-BF7C-40C5-8614-1FD725A2A379";
paths = (
{
closed = 1;
nodes = (
"260 94 LINE",
"260 234 LINE",
"359 234 LINE",
"365 328 LINE",
"260 328 LINE",
"260 469 LINE",
"359 469 LINE",
"365 563 LINE",
"260 563 LINE",
"260 703 LINE",
"143 697 LINE",
"143 563 LINE",
"43 563 LINE",
"37 469 LINE",
"143 469 LINE",
"143 328 LINE",
"43 328 LINE",
"37 234 LINE",
"143 234 LINE",
"143 88 LINE"
);
}
);
width = 401;
}
);
unicode = 2021;
},
{
color = 4;
glyphname = asciicircum;
lastChange = "2016-07-29 15:34:05 +0000";
layers = (
{
layerId = "849A9C4C-BF7C-40C5-8614-1FD725A2A379";
paths = (
{
closed = 1;
nodes = (
"167 405 LINE",
"225 546 LINE",
"276 405 LINE",
"426 405 LINE",
"295 703 LINE",
"166 703 LINE",
"32 405 LINE"
);
}
);
width = 458;
}
);
unicode = 005E;
},
{
glyphname = dotaccentcomb;
lastChange = "2016-07-29 15:34:05 +0000";
layers = (
{
anchors = (
{
name = _top;
position = "{93, 563}";
},
{
name = top;
position = "{93, 750}";
}
);
layerId = "849A9C4C-BF7C-40C5-8614-1FD725A2A379";
paths = (
{
closed = 1;
nodes = (
"163 609 LINE",
"163 750 LINE",
"22 750 LINE",
"22 609 LINE"
);
}
);
width = 186;
}
);
unicode = 0307;
userData = {
com.fontlab.hintData = {
hhints = (
{
position = 1248;
width = 288;
}
);
vhints = (
{
position = 46;
width = 288;
}
);
};
};
},
{
glyphname = gravecomb;
lastChange = "2016-07-29 15:34:05 +0000";
layers = (
{
anchors = (
{
name = _top;
position = "{133, 563}";
},
{
name = top;
position = "{133, 874}";
}
);
background = {
paths = (
{
closed = 1;
nodes = (
"272 655 LINE",
"127 874 LINE",
"16 775 LINE",
"216 606 LINE"
);
}
);
};
components = (
{
name = grave;
}
);
layerId = "849A9C4C-BF7C-40C5-8614-1FD725A2A379";
width = 299;
}
);
unicode = 0300;
},
{
glyphname = acutecomb;
lastChange = "2016-07-29 15:34:05 +0000";
layers = (
{
anchors = (
{
name = _top;
position = "{145, 563}";
},
{
name = top;
position = "{145, 875}";
}
);
background = {
anchors = (
{
name = _top;
position = "{145, 563}";
},
{
name = top;
position = "{145, 875}";
}
);
paths = (
{
closed = 1;
nodes = (
"272 777 LINE",
"161 875 LINE",
"16 657 LINE",
"71 608 LINE"
);
}
);
};
layerId = "849A9C4C-BF7C-40C5-8614-1FD725A2A379";
paths = (
{
closed = 1;
nodes = (
"272 777 LINE",
"161 875 LINE",
"16 657 LINE",
"71 608 LINE"
);
}
);
width = 289;
}
);
unicode = 0301;
},
{
glyphname = circumflexcomb;
lastChange = "2016-07-29 15:34:05 +0000";
layers = (
{
anchors = (
{
name = _top;
position = "{180, 563}";
},
{
name = top;
position = "{180, 844}";
}
);
background = {
anchors = (
{
name = _top;
position = "{180, 563}";
},
{
name = top;
position = "{180, 844}";
}
);
paths = (
{
closed = 1;
nodes = (
"118 609 LINE",
"175 751 LINE",
"222 609 LINE",
"344 609 LINE",
"231 844 LINE",
"133 844 LINE",
"16 609 LINE"
);
}
);
};
components = (
{
name = circumflex;
}
);
layerId = "849A9C4C-BF7C-40C5-8614-1FD725A2A379";
width = 361;
}
);
unicode = 0302;
},
{
glyphname = brevecomb;
lastChange = "2016-07-29 15:34:05 +0000";
layers = (
{
anchors = (
{
name = _top;
position = "{249, 563}";
},
{
name = top;
position = "{249, 844}";
}
);
background = {
paths = (
{
closed = 1;
nodes = (
"395 609 OFFCURVE",
"441 755 OFFCURVE",
"441 844 CURVE",
"324 844 LINE",
"324 797 OFFCURVE",
"324 727 OFFCURVE",
"230 727 CURVE SMOOTH",
"137 727 OFFCURVE",
"137 797 OFFCURVE",
"137 844 CURVE",
"20 844 LINE",
"20 755 OFFCURVE",
"66 609 OFFCURVE",
"230 609 CURVE SMOOTH"
);
}
);
};
components = (
{
name = breve;
}
);
layerId = "849A9C4C-BF7C-40C5-8614-1FD725A2A379";
width = 497;
}
);
unicode = 0306;
userData = {
com.fontlab.hintData = {
hhints = (
{
position = 1248;
width = 240;
}
);
vhints = (
{
position = 40;
width = 240;
},
{
position = 664;
width = 240;
}
);
};
};
},
{
color = 4;
glyphname = dblgravecomb;
lastChange = "2016-07-29 15:34:05 +0000";
layers = (
{
anchors = (
{
name = _top;
position = "{220, 563}";
},
{
name = top;
position = "{220, 902}";
}
);
background = {
paths = (
{
closed = 1;
nodes = (
"246 657 LINE",
"114 892 LINE",
"0 797 LINE",
"188 609 LINE"
);
},
{
closed = 1;
nodes = (
"439 645 LINE",
"361 902 LINE",
"229 834 LINE",
"372 610 LINE"
);
}
);
};
layerId = "849A9C4C-BF7C-40C5-8614-1FD725A2A379";
paths = (
{
closed = 1;
nodes = (
"246 657 LINE",
"114 892 LINE",
"0 797 LINE",
"188 609 LINE"
);
},
{
closed = 1;
nodes = (
"439 645 LINE",
"361 902 LINE",
"229 834 LINE",
"372 610 LINE"
);
}
);
width = 538;
}
);
unicode = 030F;
},
{
color = 4;
glyphname = breveinvertedcomb;
lastChange = "2016-07-29 15:34:05 +0000";
layers = (
{
anchors = (
{
name = _top;
position = "{249, 563}";
},
{
name = top;
position = "{249, 844}";
}
);
layerId = "849A9C4C-BF7C-40C5-8614-1FD725A2A379";
paths = (
{
closed = 1;
nodes = (
"155 609 LINE",
"155 656 OFFCURVE",
"155 727 OFFCURVE",
"249 727 CURVE SMOOTH",
"342 727 OFFCURVE",
"342 656 OFFCURVE",
"342 609 CURVE",
"459 609 LINE",
"459 698 OFFCURVE",
"413 844 OFFCURVE",
"249 844 CURVE SMOOTH",
"84 844 OFFCURVE",
"38 698 OFFCURVE",
"38 609 CURVE"
);
}
);
width = 497;
}
);
unicode = 0311;
},
{
color = 4;
glyphname = commaaccentcomb;
lastChange = "2016-07-29 15:34:05 +0000";
layers = (
{
layerId = "849A9C4C-BF7C-40C5-8614-1FD725A2A379";
paths = (
{
closed = 1;
nodes = (
"131 51 OFFCURVE",
"190 88 OFFCURVE",
"190 188 CURVE SMOOTH",
"190 328 LINE",
"50 328 LINE",
"50 188 LINE",
"120 188 LINE",
"119 165 OFFCURVE",
"107 141 OFFCURVE",
"73 141 CURVE",
"73 47 LINE"
);
}
);
width = 235;
}
);
unicode = 0326;
},
{
color = 4;
glyphname = acute;
lastChange = "2016-07-29 15:34:05 +0000";
layers = (
{
anchors = (
{
name = _top;
position = "{145, 563}";
},
{
name = top;
position = "{145, 875}";
}
);
layerId = "849A9C4C-BF7C-40C5-8614-1FD725A2A379";
paths = (
{
closed = 1;
nodes = (
"272 777 LINE",
"161 875 LINE",
"16 657 LINE",
"71 608 LINE"
);
}
);
width = 293;
}
);
unicode = 00B4;
},
{
color = 4;
glyphname = breve;
lastChange = "2016-07-29 15:34:05 +0000";
layers = (
{
layerId = "849A9C4C-BF7C-40C5-8614-1FD725A2A379";
paths = (
{
closed = 1;
nodes = (
"413 609 OFFCURVE",
"459 755 OFFCURVE",
"459 844 CURVE",
"342 844 LINE",
"342 797 OFFCURVE",
"342 727 OFFCURVE",
"249 727 CURVE SMOOTH",
"155 727 OFFCURVE",
"155 797 OFFCURVE",
"155 844 CURVE",
"38 844 LINE",
"38 755 OFFCURVE",
"84 609 OFFCURVE",
"249 609 CURVE SMOOTH"
);
}
);
width = 497;
}
);
unicode = 02D8;
},
{
color = 4;
glyphname = caron;
lastChange = "2016-07-29 15:34:05 +0000";
layers = (
{
anchors = (
{
name = _top;
position = "{180, 563}";
},
{
name = top;
position = "{180, 844}";
}
);
layerId = "849A9C4C-BF7C-40C5-8614-1FD725A2A379";
paths = (
{
closed = 1;
nodes = (
"231 609 LINE",
"344 844 LINE",
"222 844 LINE",
"175 702 LINE",
"118 844 LINE",
"16 844 LINE",
"133 609 LINE"
);
}
);
width = 375;
}
);
unicode = 02C7;
},
{
color = 4;
glyphname = cedilla;
lastChange = "2016-07-29 15:34:05 +0000";
layers = (
{
anchors = (
{
name = _bottom;
position = "{146, 0}";
}
);
layerId = "849A9C4C-BF7C-40C5-8614-1FD725A2A379";
paths = (
{
closed = 1;
nodes = (
"204 -271 OFFCURVE",
"255 -243 OFFCURVE",
"255 -166 CURVE SMOOTH",
"255 -161 OFFCURVE",
"258 -70 OFFCURVE",
"140 -37 CURVE",
"154 23 LINE",
"80 23 LINE",
"61 -83 LINE",
"126 -83 OFFCURVE",
"154 -115 OFFCURVE",
"154 -141 CURVE SMOOTH",
"154 -161 OFFCURVE",
"141 -177 OFFCURVE",
"107 -177 CURVE SMOOTH",
"88 -177 OFFCURVE",
"66 -173 OFFCURVE",
"37 -160 CURVE",
"37 -240 LINE",
"64 -259 OFFCURVE",
"107 -271 OFFCURVE",
"149 -271 CURVE SMOOTH"
);
}
);
width = 269;
}
);
unicode = 00B8;
},
{
color = 4;
glyphname = circumflex;
lastChange = "2016-07-29 15:34:05 +0000";
layers = (
{
layerId = "849A9C4C-BF7C-40C5-8614-1FD725A2A379";
paths = (
{
closed = 1;
nodes = (
"118 609 LINE",
"175 751 LINE",
"222 609 LINE",
"344 609 LINE",
"231 844 LINE",
"133 844 LINE",
"16 609 LINE"
);
}
);
width = 361;
}
);
unicode = 02C6;
},
{
color = 4;
glyphname = dieresis;
lastChange = "2016-07-29 15:34:05 +0000";
layers = (
{
anchors = (
{
name = _top;
position = "{267, 563}";
},
{
name = top;
position = "{267, 750}";
}
);
layerId = "849A9C4C-BF7C-40C5-8614-1FD725A2A379";
paths = (
{
closed = 1;
nodes = (
"454 609 LINE",
"454 750 LINE",
"313 750 LINE",
"313 609 LINE"
);
},
{
closed = 1;
nodes = (
"220 609 LINE",
"220 750 LINE",
"79 750 LINE",
"79 609 LINE"
);
}
);
width = 533;
}
);
unicode = 00A8;
},
{
color = 4;
glyphname = dotaccent;
lastChange = "2016-07-29 15:34:05 +0000";
layers = (
{
anchors = (
{
name = _top;
position = "{93, 563}";
},
{
name = top;
position = "{93, 750}";
}
);
layerId = "849A9C4C-BF7C-40C5-8614-1FD725A2A379";
paths = (
{
closed = 1;
nodes = (
"163 609 LINE",
"163 750 LINE",
"22 750 LINE",
"22 609 LINE"
);
}
);
width = 186;
}
);
unicode = 02D9;
},
{
color = 4;
glyphname = grave;
lastChange = "2016-07-29 15:34:05 +0000";
layers = (
{
layerId = "849A9C4C-BF7C-40C5-8614-1FD725A2A379";
paths = (
{
closed = 1;
nodes = (
"261 655 LINE",
"116 874 LINE",
"5 775 LINE",
"206 606 LINE"
);
}
);
width = 299;
}
);
unicode = 0060;
},
{
color = 4;
glyphname = hungarumlaut;
lastChange = "2016-07-29 15:34:05 +0000";
layers = (
{
layerId = "849A9C4C-BF7C-40C5-8614-1FD725A2A379";
paths = (
{
closed = 1;
nodes = (
"521 749 LINE",
"407 844 LINE",
"275 609 LINE",
"333 562 LINE"
);
},
{
closed = 1;
nodes = (
"275 749 LINE",
"161 844 LINE",
"30 609 LINE",
"88 562 LINE"
);
}
);
width = 538;
}
);
unicode = 02DD;
},
{
color = 4;
glyphname = macron;
lastChange = "2016-07-29 15:34:05 +0000";
layers = (
{
anchors = (
{
name = _top;
position = "{220, 563}";
},
{
name = top;
position = "{220, 703}";
}
);
layerId = "849A9C4C-BF7C-40C5-8614-1FD725A2A379";
paths = (
{
closed = 1;
nodes = (
"360 609 LINE",
"360 703 LINE",
"79 703 LINE",
"79 609 LINE"
);
}
);
width = 438;
}
);
unicode = 00AF;
},
{
color = 4;
glyphname = ogonek;
lastChange = "2016-07-29 15:34:05 +0000";
layers = (
{
anchors = (
{
name = _ogonek;
position = "{266, 5}";
}
);
background = {
anchors = (
{
name = _ogonek;
position = "{116, 5}";
}
);
};
layerId = "849A9C4C-BF7C-40C5-8614-1FD725A2A379";
paths = (
{
closed = 1;
nodes = (
"195 -188 OFFCURVE",
"233 -177 OFFCURVE",
"252 -157 CURVE",
"252 -76 LINE",
"238 -83 OFFCURVE",
"206 -93 OFFCURVE",
"180 -93 CURVE SMOOTH",
"158 -93 OFFCURVE",
"141 -86 OFFCURVE",
"141 -64 CURVE SMOOTH",
"141 -60 OFFCURVE",
"142 -55 OFFCURVE",
"144 -49 CURVE SMOOTH",
"158 10 LINE",
"79 10 LINE",
"49 -72 LINE SMOOTH",
"43 -86 OFFCURVE",
"41 -94 OFFCURVE",
"41 -107 CURVE SMOOTH",
"41 -163 OFFCURVE",
"99 -188 OFFCURVE",
"156 -188 CURVE SMOOTH"
);
}
);
width = 266;
}
);
unicode = 02DB;
},
{
color = 4;
glyphname = ring;
lastChange = "2016-07-29 15:34:05 +0000";
layers = (
{
anchors = (
{
name = _top;
position = "{193, 563}";
},
{
name = top;
position = "{193, 875}";
}
);
layerId = "849A9C4C-BF7C-40C5-8614-1FD725A2A379";
paths = (
{
closed = 1;
nodes = (
"268 609 OFFCURVE",
"345 653 OFFCURVE",
"345 742 CURVE SMOOTH",
"345 832 OFFCURVE",
"269 875 OFFCURVE",
"193 875 CURVE SMOOTH",
"116 875 OFFCURVE",
"40 831 OFFCURVE",
"40 742 CURVE SMOOTH",
"40 653 OFFCURVE",
"117 609 OFFCURVE",
"193 609 CURVE SMOOTH"
);
},
{
closed = 1;
nodes = (
"163 687 OFFCURVE",
"132 706 OFFCURVE",
"132 742 CURVE SMOOTH",
"132 777 OFFCURVE",
"162 796 OFFCURVE",
"192 796 CURVE SMOOTH",
"222 796 OFFCURVE",
"253 777 OFFCURVE",
"253 742 CURVE SMOOTH",
"253 706 OFFCURVE",
"222 687 OFFCURVE",
"192 687 CURVE SMOOTH"
);
}
);
width = 385;
}
);
unicode = 02DA;
},
{
color = 4;
glyphname = tilde;
lastChange = "2016-07-29 15:34:05 +0000";
layers = (
{
anchors = (
{
name = _top;
position = "{213, 563}";
},
{
name = top;
position = "{213, 750}";
}
);
layerId = "849A9C4C-BF7C-40C5-8614-1FD725A2A379";
paths = (
{
closed = 1;
nodes = (
"333 601 OFFCURVE",
"369 669 OFFCURVE",
"369 671 CURVE",
"347 750 LINE",
"336 732 OFFCURVE",
"309 711 OFFCURVE",
"277 711 CURVE SMOOTH",
"232 711 OFFCURVE",
"200 750 OFFCURVE",
"156 750 CURVE SMOOTH",
"116 750 OFFCURVE",
"83 718 OFFCURVE",
"58 691 CURVE",
"65 601 LINE",
"84 622 OFFCURVE",
"113 650 OFFCURVE",
"150 650 CURVE SMOOTH",
"199 650 OFFCURVE",
"229 601 OFFCURVE",
"277 601 CURVE SMOOTH"
);
}
);
width = 420;
}
);
unicode = 02DC;
},
